<?xml version="1.0" encoding="utf-8"?>
<!-- Generator: Adobe Illustrator 22.1.0, SVG Export Plug-In . SVG Version: 6.00 Build 0)  -->
<svg version="1.1" id="Layer_1" xmlns="http://www.w3.org/2000/svg" xmlns:xlink="http://www.w3.org/1999/xlink" x="0px" y="0px"
	 viewBox="0 0 92.1 14.4" style="enable-background:new 0 0 92.1 14.4;" xml:space="preserve">
<style type="text/css">
	.st0{enable-background:new    ;}
</style>
<title>whocares-offset</title>
<g id="Layer_2_1_">
	<g id="Layer_1-2">
		<g class="st0">
			<g>
				<path d="M16.1,3.1l-3,7.2H9.6L8.1,6.6l-1.5,3.8H3.1l-3-7.2h3.2L5,7.7l1.6-4.5h3l1.6,4.5l1.7-4.5H16.1z"/>
			</g>
			<g>
				<path d="M26,6.1v4.2h-2.9v-3c0-1.2-0.4-1.8-1.7-1.8c-0.9,0-1.8,0.4-2.3,0.9v3.9h-2.9V0.7h2.9v3.4C20,3.5,21.1,3,22.6,3
					C24.2,3,26,3.5,26,6.1z"/>
			</g>
		</g>
		<g class="st0">
			<g>
				<path d="M26.4,6.7c0-2.7,1.8-3.7,4.9-3.7c3.1,0,4.9,1.1,4.9,3.7c0,2.7-1.8,3.7-4.9,3.7C28.2,10.4,26.4,9.4,26.4,6.7z M33.3,6.7
					c0-1.1-0.7-1.3-2-1.3s-2,0.3-2,1.3c0,1.1,0.7,1.3,2,1.3S33.3,7.8,33.3,6.7z"/>
			</g>
		</g>
		<g class="st0">
			<g>
				<path d="M41.3,3c2.8,0,4.6,0.9,4.9,3.2h-2.9c-0.2-0.6-0.9-0.8-1.9-0.8c-1.3,0-2,0.3-2,1.3c0,1.1,0.7,1.3,2,1.3
					c1,0,1.7-0.2,1.9-0.8h2.9c-0.2,2.3-2,3.2-4.9,3.2c-3.1,0-4.9-1.1-4.9-3.7C36.4,4.1,38.3,3,41.3,3z"/>
			</g>
		</g>
		<g class="st0">
			<g>
				<path d="M55.8,6.8v3.6h-2.9V9.4c-1.1,0.8-2.4,1-3.6,1c-1.6,0-3.1-0.6-3.1-2.1c0-1.9,2.2-2.4,4.3-2.4c1,0,1.8,0.1,2.4,0.4
					c0-0.9-0.9-0.9-1.9-0.9c-0.9,0-2,0.1-3.3,0.4l-0.9-2c1.4-0.5,3-0.7,4.3-0.7C54.1,3,55.7,4,55.8,6.8z M52.9,7.7
					c-0.5-0.1-1.1-0.2-1.9-0.2c-1.3,0-1.9,0.1-1.9,0.6c0,0.4,0.3,0.5,1.1,0.5c1,0,2-0.2,2.7-0.6V7.7z"/>
			</g>
			<g>
				<path d="M63.6,3.2v2.4c-0.7-0.2-1.2-0.2-1.7-0.2c-1,0-2.1,0.1-3,1v3.9H56V3.1h2.9v1.2C59.5,3.4,60.5,3,61.7,3
					C62.5,3,63.1,3.1,63.6,3.2z"/>
			</g>
			<g>
				<path d="M70.4,7.6h2.8c-0.4,1.9-1.9,2.8-4.9,2.8c-2.8,0-4.8-1.1-4.8-3.7c0-2.7,2-3.7,4.9-3.7c3,0,4.9,1.1,4.9,4.2h-6.8
					c0.2,0.8,1,1,1.8,1C69.4,8.2,69.8,8.1,70.4,7.6z M66.7,5.8h3.6C70,5.1,69.2,5,68.5,5S67,5.1,66.7,5.8z"/>
			</g>
		</g>
		<g class="st0">
			<g>
				<path d="M76.6,7.8c0,0.4,0.4,0.6,2.1,0.6c1.6,0,1.9-0.1,1.9-0.4c0-0.4-0.3-0.3-2-0.4c-3.3-0.1-4.8-0.4-4.8-2.2
					c0-2.1,2.2-2.4,4.9-2.4c2.7,0,4.5,0.3,4.5,2.4h-2.9C80.4,5,79.9,5,78.6,5c-1.5,0-1.9,0-1.9,0.3c0,0.3,0.3,0.3,2.1,0.4
					c2.8,0.1,4.6,0.3,4.6,2.2c0,2.2-1.9,2.5-4.6,2.5s-5.1-0.3-5.1-2.6H76.6z"/>
			</g>
			<g>
				<path d="M86.7,8.2v2.2h-2.9V8.2H86.7z"/>
			</g>
		</g>
		<g class="st0">
			<g>
				<path d="M18.2,10.4h-3.7l-1.4-3.5l-1.4,3.5H8l0-0.1L4.9,3h3.5l0,0.1L10,7.3L11.5,3h3.2l1.5,4.3L17.8,3h3.5L18.2,10.4z
					 M14.7,10.2H18l2.9-6.9h-3L16.2,8l-1.7-4.8h-2.8L10,8L8.3,3.2h-3l2.9,6.9h3.3l1.6-4L14.7,10.2z"/>
			</g>
			<g>
				<path d="M31.2,10.4H28V7.3c0-1.2-0.4-1.6-1.6-1.6c-0.8,0-1.6,0.3-2.2,0.8v4h-3.1V0.6h3.1v3.2c1-0.7,2.1-1,3.4-1
					c2.4,0,3.6,1.1,3.6,3.2V10.4z M28.3,10.2h2.6V6.1c0-2-1.1-3-3.3-3c-1.3,0-2.4,0.3-3.4,1.1L24,4.3V0.9h-2.6v9.3H24V6.4l0,0
					c0.6-0.6,1.5-0.9,2.4-0.9c1.3,0,1.9,0.5,1.9,1.9V10.2z"/>
			</g>
		</g>
		<g class="st0">
			<g>
				<path d="M36.3,10.6c-3.4,0-5-1.3-5-3.8s1.6-3.8,5-3.8c3.4,0,5,1.3,5,3.8S39.7,10.6,36.3,10.6z M36.3,3.1c-3.2,0-4.8,1.2-4.8,3.6
					c0,2.4,1.6,3.6,4.8,3.6c3.2,0,4.8-1.2,4.8-3.6C41.1,4.3,39.5,3.1,36.3,3.1z M36.3,8.2c-1.1,0-2.1-0.2-2.1-1.4
					c0-1.3,1-1.4,2.1-1.4c1.1,0,2.1,0.2,2.1,1.4C38.4,8,37.4,8.2,36.3,8.2z M36.3,5.5c-1.4,0-1.9,0.3-1.9,1.2c0,0.9,0.5,1.2,1.9,1.2
					c1.4,0,1.9-0.3,1.9-1.2C38.2,5.9,37.7,5.5,36.3,5.5z"/>
			</g>
		</g>
		<g class="st0">
			<g>
				<path d="M46.3,10.6c-3.4,0-5-1.3-5-3.8s1.6-3.8,5-3.8c3.1,0,4.8,1.1,5,3.3l0,0.1h-3.2l0-0.1c-0.2-0.5-0.7-0.7-1.8-0.7
					c-1.4,0-1.9,0.3-1.9,1.2c0,0.9,0.5,1.2,1.9,1.2c1.1,0,1.6-0.2,1.8-0.7l0-0.1h3.2l0,0.1C51.1,9.5,49.4,10.6,46.3,10.6z M46.3,3.1
					c-3.2,0-4.8,1.2-4.8,3.6c0,2.4,1.6,3.6,4.8,3.6c2.9,0,4.5-1,4.7-2.9h-2.7c-0.3,0.7-1.2,0.8-2,0.8c-1.1,0-2.1-0.2-2.1-1.4
					c0-1.3,1-1.4,2.1-1.4c0.9,0,1.7,0.1,2,0.8h2.7C50.8,4.1,49.2,3.1,46.3,3.1z"/>
			</g>
		</g>
		<g class="st0">
			<g>
				<path d="M54.3,10.6c-2,0-3.2-0.8-3.2-2.3c0-1.6,1.5-2.5,4.4-2.5c0.9,0,1.6,0.1,2.3,0.3C57.6,5.6,57,5.5,56,5.5
					c-1.1,0-2.1,0.1-3.3,0.4l-0.1,0l-1-2.3l0.1,0c1.4-0.5,3-0.7,4.4-0.7c3.2,0,4.8,1.2,4.8,3.9v3.7h-3.1V9.7
					C56.6,10.5,55.3,10.6,54.3,10.6z M55.5,6.1c-1.9,0-4.1,0.4-4.1,2.2c0,1.8,2.1,2,3,2c1,0,2.4-0.1,3.5-1L58,9.2v1h2.6V6.8
					c0-2.5-1.4-3.6-4.5-3.6c-1.3,0-2.8,0.2-4.2,0.7l0.8,1.8C53.9,5.4,55,5.3,56,5.3c0.8,0,2,0,2,1v0.2l-0.2-0.1
					C57.2,6.2,56.4,6.1,55.5,6.1z M55.1,8.6c-0.6,0-1.2,0-1.2-0.6c0-0.6,0.7-0.7,2-0.7c0.8,0,1.5,0.1,1.9,0.2l0.1,0v0.5l-0.1,0
					C57.1,8.4,56.1,8.6,55.1,8.6z M56,7.6c-1.3,0-1.8,0.1-1.8,0.5c0,0.2,0.1,0.3,0.9,0.3c0.9,0,1.9-0.2,2.6-0.5V7.8
					C57.3,7.7,56.7,7.6,56,7.6z"/>
			</g>
			<g>
				<path d="M64,10.4h-3.1V3H64v1c0.6-0.7,1.5-1.1,2.7-1.1c0.8,0,1.4,0.1,1.9,0.2l0.1,0v2.7l-0.2,0c-0.7-0.2-1.2-0.2-1.7-0.2
					c-1,0-2.1,0.1-2.8,1V10.4z M61.1,10.2h2.6V6.4l0,0c0.9-0.9,2-1.1,3.1-1.1c0.5,0,1,0.1,1.6,0.2V3.3c-0.5-0.1-1-0.2-1.8-0.2
					c-1.2,0-2.1,0.4-2.7,1.3l-0.2,0.3V3.2h-2.6V10.2z"/>
			</g>
			<g>
				<path d="M73.4,10.6c-3.2,0-4.9-1.3-4.9-3.8c0-2.5,1.7-3.8,5-3.8c3.4,0,5,1.4,5,4.3v0.1h-6.8C72,7.8,72.5,8,73.4,8
					c1,0,1.4-0.1,2-0.5l0,0h3l0,0.1C78,9.6,76.4,10.6,73.4,10.6z M73.5,3.1c-3.2,0-4.8,1.2-4.8,3.6c0,3,2.5,3.6,4.6,3.6
					c2.8,0,4.3-0.8,4.7-2.6h-2.6c-0.6,0.5-1,0.5-2.1,0.5c-1.1,0-1.7-0.4-2-1l-0.1-0.2h6.9C78.2,4.4,76.7,3.1,73.5,3.1z M75.5,5.9h-4
					l0.1-0.2c0.4-0.7,1.2-0.8,1.9-0.8S75,5,75.4,5.7L75.5,5.9z M71.9,5.6h3.2c-0.3-0.4-0.8-0.5-1.6-0.5C72.7,5.2,72.2,5.3,71.9,5.6z
					"/>
			</g>
		</g>
		<g class="st0">
			<g>
				<path d="M83.9,10.6c-2.7,0-5.2-0.3-5.2-2.7V7.7h3.1v0.1c0,0.3,0.3,0.4,2,0.4c1.5,0,1.8-0.1,1.8-0.3c0-0.2-0.1-0.2-1.4-0.3
					l-0.5,0c-3.3-0.1-4.9-0.4-4.9-2.3c0-2.2,2.4-2.5,5-2.5c2.4,0,4.6,0.2,4.6,2.5v0.1h-3.1V5.4c0-0.2-0.4-0.3-1.6-0.3
					c-1.1,0-1.8,0-1.8,0.2c0,0.1,0.3,0.2,1.6,0.2l0.4,0c2.7,0.1,4.8,0.2,4.8,2.3C88.6,10.4,86.3,10.6,83.9,10.6z M78.9,8
					c0.1,2.1,2.4,2.4,5,2.4c2.9,0,4.5-0.4,4.5-2.4c0-1.8-1.6-1.9-4.5-2.1l-0.4,0c-1.5-0.1-1.8-0.1-1.8-0.5c0-0.4,0.4-0.4,2-0.4
					c1.2,0,1.8,0,1.9,0.4h2.6c-0.1-1.8-1.7-2.2-4.4-2.2c-2.5,0-4.8,0.3-4.8,2.3c0,1.7,1.4,2,4.6,2.1l0.5,0c1.3,0,1.6,0.1,1.6,0.5
					c0,0.4-0.4,0.5-2,0.5c-1.6,0-2.2-0.1-2.2-0.6H78.9z"/>
			</g>
			<g>
				<path d="M91.9,10.4h-3.1V8h3.1V10.4z M89,10.2h2.6V8.3H89V10.2z"/>
			</g>
		</g>
		<g class="st0">
			<g>
				<path d="M14.2,10.4h-3.7L9.1,6.9l-1.4,3.5H4l0-0.1L0.9,3h3.5l0,0.1L6,7.3L7.5,3h3.2l1.5,4.3L13.8,3h3.5L14.2,10.4z M10.7,10.2
					H14l2.9-6.9h-3L12.2,8l-1.7-4.8H7.7L6,8L4.3,3.2h-3l2.9,6.9h3.3l1.6-4L10.7,10.2z"/>
			</g>
			<g>
				<path d="M27.2,10.4H24V7.3c0-1.2-0.4-1.6-1.6-1.6c-0.8,0-1.6,0.3-2.2,0.8v4h-3.1V0.6h3.1v3.2c1-0.7,2.1-1,3.4-1
					c2.4,0,3.6,1.1,3.6,3.2V10.4z M24.3,10.2h2.6V6.1c0-2-1.1-3-3.3-3c-1.3,0-2.4,0.3-3.4,1.1L20,4.3V0.9h-2.6v9.3H20V6.4l0,0
					c0.6-0.6,1.5-0.9,2.4-0.9c1.3,0,1.9,0.5,1.9,1.9V10.2z"/>
			</g>
		</g>
		<g class="st0">
			<g>
				<path d="M32.3,10.6c-3.4,0-5-1.3-5-3.8s1.6-3.8,5-3.8c3.4,0,5,1.3,5,3.8S35.7,10.6,32.3,10.6z M32.3,3.1c-3.2,0-4.8,1.2-4.8,3.6
					c0,2.4,1.6,3.6,4.8,3.6c3.2,0,4.8-1.2,4.8-3.6C37.1,4.3,35.5,3.1,32.3,3.1z M32.3,8.2c-1.1,0-2.1-0.2-2.1-1.4
					c0-1.3,1-1.4,2.1-1.4c1.1,0,2.1,0.2,2.1,1.4C34.4,8,33.4,8.2,32.3,8.2z M32.3,5.5c-1.4,0-1.9,0.3-1.9,1.2c0,0.9,0.5,1.2,1.9,1.2
					c1.4,0,1.9-0.3,1.9-1.2C34.2,5.9,33.7,5.5,32.3,5.5z"/>
			</g>
		</g>
		<g class="st0">
			<g>
				<path d="M42.3,10.6c-3.4,0-5-1.3-5-3.8s1.6-3.8,5-3.8c3.1,0,4.8,1.1,5,3.3l0,0.1h-3.2l0-0.1c-0.2-0.5-0.7-0.7-1.8-0.7
					c-1.4,0-1.9,0.3-1.9,1.2c0,0.9,0.5,1.2,1.9,1.2c1.1,0,1.6-0.2,1.8-0.7l0-0.1h3.2l0,0.1C47.1,9.5,45.4,10.6,42.3,10.6z M42.3,3.1
					c-3.2,0-4.8,1.2-4.8,3.6c0,2.4,1.6,3.6,4.8,3.6c2.9,0,4.5-1,4.7-2.9h-2.7c-0.3,0.7-1.2,0.8-2,0.8c-1.1,0-2.1-0.2-2.1-1.4
					c0-1.3,1-1.4,2.1-1.4c0.9,0,1.7,0.1,2,0.8h2.7C46.8,4.1,45.2,3.1,42.3,3.1z"/>
			</g>
		</g>
		<g class="st0">
			<g>
				<path d="M50.3,10.6c-2,0-3.2-0.8-3.2-2.3c0-1.6,1.5-2.5,4.4-2.5c0.9,0,1.6,0.1,2.3,0.3C53.6,5.6,53,5.5,52,5.5
					c-1.1,0-2.1,0.1-3.3,0.4l-0.1,0l-1-2.3l0.1,0c1.4-0.5,3-0.7,4.4-0.7c3.2,0,4.8,1.2,4.8,3.9v3.7h-3.1V9.7
					C52.6,10.5,51.3,10.6,50.3,10.6z M51.5,6.1c-1.9,0-4.1,0.4-4.1,2.2c0,1.8,2.1,2,3,2c1,0,2.4-0.1,3.5-1L54,9.2v1h2.6V6.8
					c0-2.5-1.4-3.6-4.5-3.6c-1.3,0-2.8,0.2-4.2,0.7l0.8,1.8C49.9,5.4,51,5.3,52,5.3c0.8,0,2,0,2,1v0.2l-0.2-0.1
					C53.2,6.2,52.4,6.1,51.5,6.1z M51.1,8.6c-0.6,0-1.2,0-1.2-0.6c0-0.6,0.7-0.7,2-0.7c0.8,0,1.5,0.1,1.9,0.2l0.1,0v0.5l-0.1,0
					C53.1,8.4,52.1,8.6,51.1,8.6z M52,7.6c-1.3,0-1.8,0.1-1.8,0.5c0,0.2,0.1,0.3,0.9,0.3c0.9,0,1.9-0.2,2.6-0.5V7.8
					C53.3,7.7,52.7,7.6,52,7.6z"/>
			</g>
			<g>
				<path d="M60,10.4h-3.1V3H60v1c0.6-0.7,1.5-1.1,2.7-1.1c0.8,0,1.4,0.1,1.9,0.2l0.1,0v2.7l-0.2,0c-0.7-0.2-1.2-0.2-1.7-0.2
					c-1,0-2.1,0.1-2.8,1V10.4z M57.1,10.2h2.6V6.4l0,0c0.9-0.9,2-1.1,3.1-1.1c0.5,0,1,0.1,1.6,0.2V3.3c-0.5-0.1-1-0.2-1.8-0.2
					c-1.2,0-2.1,0.4-2.7,1.3l-0.2,0.3V3.2h-2.6V10.2z"/>
			</g>
			<g>
				<path d="M69.4,10.6c-3.2,0-4.9-1.3-4.9-3.8c0-2.5,1.7-3.8,5-3.8c3.4,0,5,1.4,5,4.3v0.1h-6.8C68,7.8,68.5,8,69.4,8
					c1,0,1.4-0.1,2-0.5l0,0h3l0,0.1C74,9.6,72.4,10.6,69.4,10.6z M69.5,3.1c-3.2,0-4.8,1.2-4.8,3.6c0,3,2.5,3.6,4.6,3.6
					c2.8,0,4.3-0.8,4.7-2.6h-2.6c-0.6,0.5-1,0.5-2.1,0.5c-1.1,0-1.7-0.4-2-1l-0.1-0.2h6.9C74.2,4.4,72.7,3.1,69.5,3.1z M71.5,5.9h-4
					l0.1-0.2c0.4-0.7,1.2-0.8,1.9-0.8S71,5,71.4,5.7L71.5,5.9z M67.9,5.6h3.2c-0.3-0.4-0.8-0.5-1.6-0.5C68.7,5.2,68.2,5.3,67.9,5.6z
					"/>
			</g>
		</g>
		<g class="st0">
			<g>
				<path d="M79.9,10.6c-2.7,0-5.2-0.3-5.2-2.7V7.7h3.1v0.1c0,0.3,0.3,0.4,2,0.4c1.5,0,1.8-0.1,1.8-0.3c0-0.2-0.1-0.2-1.4-0.3
					l-0.5,0c-3.3-0.1-4.9-0.4-4.9-2.3c0-2.2,2.4-2.5,5-2.5c2.4,0,4.6,0.2,4.6,2.5v0.1h-3.1V5.4c0-0.2-0.4-0.3-1.6-0.3
					c-1.1,0-1.8,0-1.8,0.2c0,0.1,0.3,0.2,1.6,0.2l0.4,0c2.7,0.1,4.8,0.2,4.8,2.3C84.6,10.4,82.3,10.6,79.9,10.6z M74.9,8
					c0.1,2.1,2.4,2.4,5,2.4c2.9,0,4.5-0.4,4.5-2.4c0-1.8-1.6-1.9-4.5-2.1l-0.4,0c-1.5-0.1-1.8-0.1-1.8-0.5c0-0.4,0.4-0.4,2-0.4
					c1.2,0,1.8,0,1.9,0.4h2.6c-0.1-1.8-1.7-2.2-4.4-2.2c-2.5,0-4.8,0.3-4.8,2.3c0,1.7,1.4,2,4.6,2.1l0.5,0c1.3,0,1.6,0.1,1.6,0.5
					c0,0.4-0.4,0.5-2,0.5c-1.6,0-2.2-0.1-2.2-0.6H74.9z"/>
			</g>
			<g>
				<path d="M87.9,10.4h-3.1V8h3.1V10.4z M85,10.2h2.6V8.3H85V10.2z"/>
			</g>
		</g>
	</g>
</g>
</svg>
