<svg xmlns="http://www.w3.org/2000/svg" viewBox="0 0 401.83 137.78"><defs><style>.cls-1{fill:none;stroke:#000;}</style></defs><title>whocares-lines</title><g id="Layer_2" data-name="Layer 2"><g id="Layer_1-2" data-name="Layer 1"><path class="cls-1" d="M106.39,35.58C94.55,49.17,80.24,61.63,71.54,77.36c-7.47,13.49-13.8,28-20.81,41.74-4.25-3.64-6.28-5.64-10.48-9.38,1.61-7.4,8-24.84,2.23-33.06-3.37,8.7-7.54,17.08-11.51,25.52a41.37,41.37,0,0,0-12.06-6.49C16.35,83.28,11.22,73,6.72,61.23c5.85,0,9.27-.51,16.63-1.94C21.2,72,25.69,73.42,28.68,81.54c2.67-10.17,8.74-18.42,14.5-27.06,7.73-2.15,11.78-3.39,19.91-5.91-3.39,7.64-13.42,23.6-6.81,33,4.3-15.72,19-27.72,28.9-39.83C93.91,39,98.24,37.73,106.39,35.58Z" transform="translate(0 -22.77)"/><path class="cls-1" d="M122.93,74.84c.28,19.08-11.92,38.66-18.52,56-6.54,1.08-9.67,1.51-15.43,2,7-16.69,19.21-34.79,21.29-52.86.06-5.6-1.86-8-7.62-8a15.88,15.88,0,0,0-10.43,4.15c1.65,18.16-14.15,39.3-20.93,55.46A37.08,37.08,0,0,1,61,126.79c7.48-17.41,12.6-33,18.33-49.94,5-14.74,18.11-27.92,28.18-40.5a103.13,103.13,0,0,0-22.68,9.28,26.64,26.64,0,0,0,8.73,3.68c10.5-5.38,20.2-13.62,31.31-17.59q-5.4,7-10.81,13.9c7.76-6.37,16.66-15.55,27.12-15.35C159.26,30.62,124.41,69.61,122.93,74.84Z" transform="translate(0 -22.77)"/><path class="cls-1" d="M123.78,77.8C123.19,67.64,155.3,33.1,166,42.66c11.36,10.12-.25,27.53-1.44,37.52-2,17.1-5.64,39-29.28,45.22C106.2,133.08,124.51,90.36,123.78,77.8Zm28.85,1.65c1.41-6.14-1.83-7.27-7.22-7.53s-8.73,1-9.51,6.49,2.32,6.82,7.47,7.34S151.22,85.59,152.63,79.45Z" transform="translate(0 -22.77)"/><path class="cls-1" d="M192.17,59.78c9,2.34,18.27,5.44,16.49,17.5-4.8.22-7.19.26-12.47.27.1-3.86-3.45-4.06-8-4.08-5.69,0-8.13.35-10.4,7.35s1.09,8.07,6.61,8.27c4.43.16,7-.21,9.34-4.23,5.23,0,8,0,13.39-.27-4.93,12.56,8.63,27.4-11.66,29-15.78,1.22-34.93-15.45-29.84-33.32C168.44,70.28,180.73,56.82,192.17,59.78Z" transform="translate(0 -22.77)"/><path class="cls-1" d="M248.19,77.79c12.64,11.79,10.81,44.92,13.19,60.9-5.24-3.36-7.87-5.14-13.11-8.51-.41-2.76-1.45-7.25-3.44-15.89-.61,18.22-7.32,9.35-12.88,6.63-12.06-5.9-23.5-21.55-25.19-30.56-1.22-6.51,9.71-15.07,18.49-15.81a19,19,0,0,1,9.58,1.33c-2.26-5.64-4-4.51-7.46-4.16a51.23,51.23,0,0,0-12.28,2.85c-.78-4.14.22-6.09.06-10.3A63.84,63.84,0,0,1,235,60.71C248.28,60.51,232.76,58.72,248.19,77.79ZM238.58,85a33,33,0,0,0-9.33-.31c-6.28.5-9.54,1.84-9.18,3.65.31,1.58,2.88,4.1,6.43,4.14,4.7,0,8.72-4.19,12.29-5.93A5.73,5.73,0,0,0,238.58,85Z" transform="translate(0 -22.77)"/><path class="cls-1" d="M291.29,61.75c-1.75,3.87-19.07,2.32-17.67,6.85a21.45,21.45,0,0,0-6.84-.73c-4,.21-11,.07-7.55,6.48,19,15.41,14.55,50.87,16.88,73.13-5.22-2.79-7.84-4.41-13.09-7.74q-4.09-26.68-8.12-53.37a21.81,21.81,0,0,0-5.35-9,11.54,11.54,0,0,1-4.05-8.1,49.37,49.37,0,0,0,12-8.11l12.9,0c-.48,3.35-2.84,2.72-7.18,4.08,11.17-2.78,14.66-5.2,19.92-5.19C286.86,60.07,289.35,61.27,291.29,61.75Z" transform="translate(0 -22.77)"/><path class="cls-1" d="M321.3,81.12l12.9.06c1.67,18.47,4.23,60.21-15.32,71.34-11.73,6.67-14.59-10.24-16.74-18.13-5-18.36-4.25-48.51-20-59.16-2.41-1.63-5-4.33-7.48-6.49,10.07-6.17,27.71-7.67,39.41-8.67a16.16,16.16,0,0,1,12.34,4q-10.53,7.29,6.08,14.71c-10.7-.16-21.39-.31-32.09-.34,8.42,5.07,9.43,6.27,13,6.27C318.06,84.74,321,83.74,321.3,81.12Zm-32.92-11.9c7.08.13,10.88.25,18.7.55-3.67-3.4-3.76-3-7.68-3.13S287.85,65.87,288.38,69.22Z" transform="translate(0 -22.77)"/><path class="cls-1" d="M349,82.33c.52,1.94,2,4.21,9.71,3.54,7.14-.62,8.27-2,8.34-2.73s-1.29-1.51-9.27-1.82c-11.09-.43-33.05-9.65-32.34-12.39.82-3.1,22.12-8.44,33.18-8.24,11.82.21,18.41,1.17,18.93,10.57-5.94-.17-9-.29-15.36-.55.06-1.7-2.18-1.72-9.19-2-8-.33-10.59-.48-11.1.64s1.78,1.59,11.82,2.23c7.68.49,26,1.42,26.28,11,.34,12.38-9.91,21.08-19,30.35-22.26,22.59-22.45-12.59-25-30.68Z" transform="translate(0 -22.77)"/><path class="cls-1" d="M394.41,83.8v9.67c-5.14.14-7.65.9-12.58,3.25.1-2.81-.41-10.15-.33-13.16C386.66,83.59,389.24,83.63,394.41,83.8Z" transform="translate(0 -22.77)"/><path class="cls-1" d="M103.39,38.58C91.55,52.17,77.24,64.63,68.54,80.36c-7.47,13.49-13.8,28-20.81,41.74-4.25-3.64-6.28-5.64-10.48-9.38,1.61-7.4,8-24.84,2.23-33.06-3.37,8.7-7.54,17.08-11.51,25.52a41.37,41.37,0,0,0-12.06-6.49C13.35,86.28,8.22,76,3.72,64.23c5.85,0,9.27-.51,16.63-1.94C18.2,75,22.69,76.42,25.68,84.54c2.67-10.17,8.74-18.42,14.5-27.06,7.73-2.15,11.78-3.39,19.91-5.91-3.39,7.64-13.42,23.6-6.81,33,4.3-15.72,19-27.72,28.9-39.83C90.91,42,95.24,40.73,103.39,38.58Z" transform="translate(0 -22.77)"/><path class="cls-1" d="M119.93,77.84c.28,19.08-11.92,38.66-18.52,56-6.54,1.08-9.67,1.51-15.43,2,7-16.69,19.21-34.79,21.29-52.86.06-5.6-1.86-8-7.62-8a15.88,15.88,0,0,0-10.43,4.15c1.65,18.16-14.15,39.3-20.93,55.46A37.08,37.08,0,0,1,58,129.79c7.48-17.41,12.6-33,18.33-49.94,5-14.74,18.11-27.92,28.18-40.5a103.13,103.13,0,0,0-22.68,9.28,26.64,26.64,0,0,0,8.73,3.68c10.5-5.38,20.2-13.62,31.31-17.59q-5.4,7-10.81,13.9c7.76-6.37,16.66-15.55,27.12-15.35C156.26,33.62,121.41,72.61,119.93,77.84Z" transform="translate(0 -22.77)"/><path class="cls-1" d="M120.78,80.8C120.19,70.64,152.3,36.1,163,45.66c11.36,10.12-.25,27.53-1.44,37.52-2,17.1-5.64,39-29.28,45.22C103.2,136.08,121.51,93.36,120.78,80.8Zm28.85,1.65c1.41-6.14-1.83-7.27-7.22-7.53s-8.73,1-9.51,6.49,2.32,6.82,7.47,7.34S148.22,88.59,149.63,82.45Z" transform="translate(0 -22.77)"/><path class="cls-1" d="M189.17,62.78c9,2.34,18.27,5.44,16.49,17.5-4.8.22-7.19.26-12.47.27.1-3.86-3.45-4.06-8-4.08-5.69,0-8.13.35-10.4,7.35s1.09,8.07,6.61,8.27c4.43.16,7-.21,9.34-4.23,5.23,0,8,0,13.39-.27-4.93,12.56,8.63,27.4-11.66,29-15.78,1.22-34.93-15.45-29.84-33.32C165.44,73.28,177.73,59.82,189.17,62.78Z" transform="translate(0 -22.77)"/><path class="cls-1" d="M245.19,80.79c12.64,11.79,10.81,44.92,13.19,60.9-5.24-3.36-7.87-5.14-13.11-8.51-.41-2.76-1.45-7.25-3.44-15.89-.61,18.22-7.32,9.35-12.88,6.63-12.06-5.9-23.5-21.55-25.19-30.56-1.22-6.51,9.71-15.07,18.49-15.81a19,19,0,0,1,9.58,1.33c-2.26-5.64-4-4.51-7.46-4.16a51.23,51.23,0,0,0-12.28,2.85c-.78-4.14.22-6.09.06-10.3A63.84,63.84,0,0,1,232,63.71C245.28,63.51,229.76,61.72,245.19,80.79ZM235.58,88a33,33,0,0,0-9.33-.31c-6.28.5-9.54,1.84-9.18,3.65.31,1.58,2.88,4.1,6.43,4.14,4.7,0,8.72-4.19,12.29-5.93A5.73,5.73,0,0,0,235.58,88Z" transform="translate(0 -22.77)"/><path class="cls-1" d="M288.29,64.75c-1.75,3.87-19.07,2.32-17.67,6.85a21.45,21.45,0,0,0-6.84-.73c-4,.21-11,.07-7.55,6.48,19,15.41,14.55,50.87,16.88,73.13-5.22-2.79-7.84-4.41-13.09-7.74q-4.09-26.68-8.12-53.37a21.81,21.81,0,0,0-5.35-9,11.54,11.54,0,0,1-4.05-8.1,49.37,49.37,0,0,0,12-8.11l12.9,0c-.48,3.35-2.84,2.72-7.18,4.08,11.17-2.78,14.66-5.2,19.92-5.19C283.86,63.07,286.35,64.27,288.29,64.75Z" transform="translate(0 -22.77)"/><path class="cls-1" d="M318.3,84.12l12.9.06c1.67,18.47,4.23,60.21-15.32,71.34-11.73,6.67-14.59-10.24-16.74-18.13-5-18.36-4.25-48.51-20-59.16-2.41-1.63-5-4.33-7.48-6.49,10.07-6.17,27.71-7.67,39.41-8.67a16.16,16.16,0,0,1,12.34,4q-10.53,7.29,6.08,14.71c-10.7-.16-21.39-.31-32.09-.34,8.42,5.07,9.43,6.27,13,6.27C315.06,87.74,318,86.74,318.3,84.12Zm-32.92-11.9c7.08.13,10.88.25,18.7.55-3.67-3.4-3.76-3-7.68-3.13S284.85,68.87,285.38,72.22Z" transform="translate(0 -22.77)"/><path class="cls-1" d="M346,85.33c.52,1.94,2,4.21,9.71,3.54,7.14-.62,8.27-2,8.34-2.73s-1.29-1.51-9.27-1.82c-11.09-.43-33.05-9.65-32.34-12.39.82-3.1,22.12-8.44,33.18-8.24,11.82.21,18.41,1.17,18.93,10.57-5.94-.17-9-.29-15.36-.55.06-1.7-2.18-1.72-9.19-2-8-.33-10.59-.48-11.1.64s1.78,1.59,11.82,2.23c7.68.49,26,1.42,26.28,11,.34,12.38-9.91,21.08-19,30.35-22.26,22.59-22.45-12.59-25-30.68Z" transform="translate(0 -22.77)"/><path class="cls-1" d="M391.41,86.8v9.67c-5.14.14-7.65.9-12.58,3.25.1-2.81-.41-10.15-.33-13.16C383.66,86.59,386.24,86.63,391.41,86.8Z" transform="translate(0 -22.77)"/><path class="cls-1" d="M100.39,41.58C88.55,55.17,74.24,67.63,65.54,83.36c-7.47,13.49-13.8,28-20.81,41.74-4.25-3.64-6.28-5.64-10.48-9.38,1.61-7.4,8-24.84,2.23-33.06-3.37,8.7-7.54,17.08-11.51,25.52a41.37,41.37,0,0,0-12.06-6.49C10.35,89.28,5.22,79,.72,67.23c5.85,0,9.27-.51,16.63-1.94C15.2,78,19.69,79.42,22.68,87.54c2.67-10.17,8.74-18.42,14.5-27.06,7.73-2.15,11.78-3.39,19.91-5.91-3.39,7.64-13.42,23.6-6.81,33,4.3-15.72,19-27.72,28.9-39.83C87.91,45,92.24,43.73,100.39,41.58Z" transform="translate(0 -22.77)"/><path class="cls-1" d="M116.93,80.84c.28,19.08-11.92,38.66-18.52,56-6.54,1.08-9.67,1.51-15.43,2,7-16.69,19.21-34.79,21.29-52.86.06-5.6-1.86-8-7.62-8a15.88,15.88,0,0,0-10.43,4.15c1.65,18.16-14.15,39.3-20.93,55.46A37.08,37.08,0,0,1,55,132.79c7.48-17.41,12.6-33,18.33-49.94,5-14.74,18.11-27.92,28.18-40.5a103.13,103.13,0,0,0-22.68,9.28,26.64,26.64,0,0,0,8.73,3.68c10.5-5.38,20.2-13.62,31.31-17.59q-5.4,7-10.81,13.9c7.76-6.37,16.66-15.55,27.12-15.35C153.26,36.62,118.41,75.61,116.93,80.84Z" transform="translate(0 -22.77)"/><path class="cls-1" d="M117.78,83.8C117.19,73.64,149.3,39.1,160,48.66c11.36,10.12-.25,27.53-1.44,37.52-2,17.1-5.64,39-29.28,45.22C100.2,139.08,118.51,96.36,117.78,83.8Zm28.85,1.65c1.41-6.14-1.83-7.27-7.22-7.53s-8.73,1-9.51,6.49,2.32,6.82,7.47,7.34S145.22,91.59,146.63,85.45Z" transform="translate(0 -22.77)"/><path class="cls-1" d="M186.17,65.78c9,2.34,18.27,5.44,16.49,17.5-4.8.22-7.19.26-12.47.27.1-3.86-3.45-4.06-8-4.08-5.69,0-8.13.35-10.4,7.35s1.09,8.07,6.61,8.27c4.43.16,7-.21,9.34-4.23,5.23,0,8,0,13.39-.27-4.93,12.56,8.63,27.4-11.66,29-15.78,1.22-34.93-15.45-29.84-33.32C162.44,76.28,174.73,62.82,186.17,65.78Z" transform="translate(0 -22.77)"/><path class="cls-1" d="M242.19,83.79c12.64,11.79,10.81,44.92,13.19,60.9-5.24-3.36-7.87-5.14-13.11-8.51-.41-2.76-1.45-7.25-3.44-15.89-.61,18.22-7.32,9.35-12.88,6.63-12.06-5.9-23.5-21.55-25.19-30.56-1.22-6.51,9.71-15.07,18.49-15.81a19,19,0,0,1,9.58,1.33c-2.26-5.64-4-4.51-7.46-4.16a51.23,51.23,0,0,0-12.28,2.85c-.78-4.14.22-6.09.06-10.3A63.84,63.84,0,0,1,229,66.71C242.28,66.51,226.76,64.72,242.19,83.79ZM232.58,91a33,33,0,0,0-9.33-.31c-6.28.5-9.54,1.84-9.18,3.65.31,1.58,2.88,4.1,6.43,4.14,4.7,0,8.72-4.19,12.29-5.93A5.73,5.73,0,0,0,232.58,91Z" transform="translate(0 -22.77)"/><path class="cls-1" d="M285.29,67.75c-1.75,3.87-19.07,2.32-17.67,6.85a21.45,21.45,0,0,0-6.84-.73c-4,.21-11,.07-7.55,6.48,19,15.41,14.55,50.87,16.88,73.13-5.22-2.79-7.84-4.41-13.09-7.74q-4.09-26.68-8.12-53.37a21.81,21.81,0,0,0-5.35-9,11.54,11.54,0,0,1-4.05-8.1,49.37,49.37,0,0,0,12-8.11l12.9,0c-.48,3.35-2.84,2.72-7.18,4.08,11.17-2.78,14.66-5.2,19.92-5.19C280.86,66.07,283.35,67.27,285.29,67.75Z" transform="translate(0 -22.77)"/><path class="cls-1" d="M315.3,87.12l12.9.06c1.67,18.47,4.23,60.21-15.32,71.34-11.73,6.67-14.59-10.24-16.74-18.13-5-18.36-4.25-48.51-20-59.16-2.41-1.63-5-4.33-7.48-6.49,10.07-6.17,27.71-7.67,39.41-8.67a16.16,16.16,0,0,1,12.34,4q-10.53,7.29,6.08,14.71c-10.7-.16-21.39-.31-32.09-.34,8.42,5.07,9.43,6.27,13,6.27C312.06,90.74,315,89.74,315.3,87.12Zm-32.92-11.9c7.08.13,10.88.25,18.7.55-3.67-3.4-3.76-3-7.68-3.13S281.85,71.87,282.38,75.22Z" transform="translate(0 -22.77)"/><path class="cls-1" d="M343,88.33c.52,1.94,2,4.21,9.71,3.54,7.14-.62,8.27-2,8.34-2.73s-1.29-1.51-9.27-1.82c-11.09-.43-33.05-9.65-32.34-12.39.82-3.1,22.12-8.44,33.18-8.24,11.82.21,18.41,1.17,18.93,10.57-5.94-.17-9-.29-15.36-.55.06-1.7-2.18-1.72-9.19-2-8-.33-10.59-.48-11.1.64s1.78,1.59,11.82,2.23c7.68.49,26,1.42,26.28,11,.34,12.38-9.91,21.08-19,30.35-22.26,22.59-22.45-12.59-25-30.68Z" transform="translate(0 -22.77)"/><path class="cls-1" d="M388.41,89.8v9.67c-5.14.14-7.65.9-12.58,3.25.1-2.81-.41-10.15-.33-13.16C380.66,89.59,383.24,89.63,388.41,89.8Z" transform="translate(0 -22.77)"/><path d="M113.82,28.08C102,41.67,87.66,54.13,79,69.86c-7.47,13.49-13.79,28-20.81,41.74C53.9,108,51.88,106,47.68,102.22c1.6-7.4,8-24.84,2.22-33.06-3.36,8.7-7.53,17.08-11.5,25.52a41.5,41.5,0,0,0-12.06-6.49c-2.56-12.41-7.7-22.69-12.19-34.46,5.85,0,9.26-.51,16.63-1.94C28.63,64.49,33.11,65.92,36.1,74,38.77,63.87,44.84,55.62,50.6,47c7.73-2.15,11.79-3.39,19.92-5.91-3.39,7.64-13.43,23.6-6.81,33C68,58.32,82.65,46.32,92.6,34.21,101.33,31.53,105.66,30.23,113.82,28.08Z" transform="translate(0 -22.77)"/><path d="M130.35,67.34c.28,19.08-11.91,38.66-18.52,56-6.54,1.08-9.67,1.51-15.43,2,7-16.69,19.22-34.79,21.29-52.86.07-5.6-1.85-8-7.61-8a15.9,15.9,0,0,0-10.44,4.15C101.3,86.73,85.5,107.87,78.71,124a37,37,0,0,1-10.28-4.74c7.47-17.41,12.59-33,18.32-49.94,5-14.74,18.12-27.92,28.19-40.5a103.21,103.21,0,0,0-22.69,9.28A26.73,26.73,0,0,0,101,41.81c10.5-5.38,20.2-13.62,31.32-17.59q-5.4,7-10.81,13.9c7.75-6.37,16.65-15.55,27.11-15.35C166.69,23.12,131.83,62.11,130.35,67.34Z" transform="translate(0 -22.77)"/><path d="M131.2,70.3c-.59-10.16,31.53-44.7,42.27-35.14,11.36,10.12-.26,27.53-1.44,37.52-2,17.1-5.65,39-29.28,45.22C113.63,125.58,131.93,82.86,131.2,70.3ZM160.06,72c1.41-6.14-1.84-7.27-7.23-7.53s-8.73,1-9.51,6.49,2.33,6.82,7.47,7.34S158.64,78.09,160.06,72Z" transform="translate(0 -22.77)"/><path d="M199.59,52.28c9,2.34,18.27,5.44,16.49,17.5-4.8.22-7.19.26-12.46.27.1-3.86-3.45-4.06-8-4.08-5.69,0-8.13.35-10.4,7.35s1.09,8.07,6.61,8.27c4.44.16,7-.21,9.34-4.23,5.23,0,8,0,13.4-.27-4.93,12.56,8.62,27.4-11.67,29C187.1,107.28,168,90.61,173,72.74,175.87,62.78,188.16,49.32,199.59,52.28Z" transform="translate(0 -22.77)"/><path d="M255.62,70.29c12.63,11.79,10.81,44.92,13.19,60.9-5.25-3.36-7.87-5.14-13.12-8.51-.4-2.76-1.44-7.25-3.43-15.89-.61,18.22-7.32,9.35-12.88,6.63-12.06-5.9-23.51-21.55-25.2-30.56-1.22-6.51,9.71-15.07,18.49-15.81a19,19,0,0,1,9.58,1.33c-2.25-5.64-4-4.51-7.46-4.16a51.17,51.17,0,0,0-12.27,2.85c-.78-4.14.21-6.09.06-10.3a63.73,63.73,0,0,1,19.83-3.56C255.7,53,240.18,51.22,255.62,70.29ZM246,77.45a33,33,0,0,0-9.33-.31c-6.28.5-9.54,1.84-9.18,3.65.31,1.58,2.89,4.1,6.43,4.14,4.71,0,8.72-4.19,12.29-5.93A5,5,0,0,0,246,77.45Z" transform="translate(0 -22.77)"/><path d="M298.71,54.25C297,58.12,279.64,56.57,281,61.1a21.42,21.42,0,0,0-6.84-.73c-4,.21-11,.07-7.54,6.48,19,15.41,14.54,50.87,16.88,73.13-5.23-2.79-7.85-4.41-13.09-7.74q-4.09-26.68-8.13-53.37a21.71,21.71,0,0,0-5.35-9,11.53,11.53,0,0,1-4-8.1,49.51,49.51,0,0,0,11.95-8.11l12.9,0c-.47,3.35-2.83,2.72-7.18,4.08,11.18-2.78,14.66-5.2,19.92-5.19C294.28,52.57,296.78,53.77,298.71,54.25Z" transform="translate(0 -22.77)"/><path d="M328.72,73.62l12.9.06c1.67,18.47,4.24,60.21-15.32,71.34-11.73,6.67-14.59-10.24-16.74-18.13-5-18.36-4.25-48.51-20-59.16-2.41-1.63-5-4.33-7.48-6.49,10.08-6.17,27.72-7.67,39.42-8.67a16.16,16.16,0,0,1,12.34,4q-10.55,7.29,6.08,14.71c-10.7-.16-21.4-.31-32.1-.34,8.43,5.07,9.43,6.27,13,6.27C325.49,77.24,328.45,76.24,328.72,73.62Zm-32.91-11.9c7.07.13,10.88.25,18.7.55-3.68-3.4-3.77-3-7.68-3.13S295.27,58.37,295.81,61.72Z" transform="translate(0 -22.77)"/><path d="M356.4,74.83c.51,1.94,2,4.21,9.7,3.54,7.14-.62,8.27-2,8.34-2.73s-1.29-1.51-9.27-1.82c-11.09-.43-33.05-9.65-32.33-12.39C333.65,58.33,355,53,366,53.19c11.83.21,18.41,1.17,18.93,10.57-5.93-.17-9-.29-15.36-.55.06-1.7-2.17-1.72-9.19-2-8-.33-10.59-.48-11.1.64s1.79,1.59,11.82,2.23c7.69.49,26,1.42,26.28,11,.34,12.38-9.91,21.08-19,30.35-22.26,22.59-22.44-12.59-25-30.68Z" transform="translate(0 -22.77)"/><path d="M401.83,76.3V86c-5.14.14-7.64.9-12.58,3.25.1-2.81-.41-10.15-.33-13.16C394.08,76.09,396.66,76.13,401.83,76.3Z" transform="translate(0 -22.77)"/></g></g></svg>