<svg xmlns="http://www.w3.org/2000/svg" viewBox="0 0 227.11 69.96"><defs><style>.cls-1{opacity:0.9;}.cls-2{opacity:0.8;}.cls-3{opacity:0.7;}.cls-4{opacity:0.5;}.cls-5{opacity:0.3;}.cls-6{opacity:0.1;}.cls-7{opacity:0.05;}.cls-8{opacity:0.01;}.cls-9{opacity:0.01;}.cls-10{fill:#ea5c5c;}</style></defs><title>whocares-wavey</title><g id="Layer_2" data-name="Layer 2"><g id="Layer_1-2" data-name="Layer 1"><path d="M48.13,5.85c-3.51,6.55-.89,8.71-.39,15.77,1,14.52-2.12,24.48-6.87,38.61H32.36c2.94-17,5.91-24.87-1.19-40.6,7.38,12.9-2,28.39-6.12,40.6h-8.5C21.14,35.16,18.26,28,9.19,5.85h7.89C18.71,10.27,22.21,18.26,27.74,31,25.38,18.26,23.46,10.27,25,5.85h7.31c1.55,4.42,5,12.41,10.46,25.19-2.28-12.78-4.16-20.77-2.53-25.19Z"/><path d="M73.47,14.94c6.76,18.63,4.16,25.92-.8,45.29h-7c2.16-8.47,8.9-23.39,5.45-32.45-4.48-12.61-6.58-16.09-9.74-16.09-2.08,0-4.42.6-3.67,6.46C63.77,34.86,60.16,43,55.78,60.23h-7c7.57-29.19,3.81-23.64,0-48.54-.57-3.7,0-8,0-11.69h7V8.19a14.26,14.26,0,0,1,8.48-2.64C68.15,5.55,65.82-7.81,73.47,14.94Z"/><path d="M76.38,21.43C72.61,13,75.64,5.61,85.13,5.55c9.73,0,11.58,9.19,15.11,15.88,4.83,9.14-1.63,39.15-15.11,39.25-6.74,0-5.21-3.42-6.74-8.42C74.85,40.72,81.63,33.18,76.38,21.43Zm16.84,0c-4.54-12.32-5-10-8.09-10s-6.28-2.29-1.73,10S89,32.84,92.13,32.84,97.77,33.74,93.22,21.43Z"/><path d="M109.57,5.55c6.62.3,5.07-11.11,12.94,10.05h-7.16c-2.52-5.71-3.26-4.2-5.78-4.2-3.12,0-6.28-2.29-1.73,10s5.6,11.41,8.73,11.41c2.51,0,4.82,1,3.12-5.31h7.16c2.35,8.4-5.34,33.39-17.28,33.15-6.91-.14-5.21-3.42-6.74-8.42-3.54-11.54,3.24-19.08-2-30.83C97.05,13,99.56,5.11,109.57,5.55Z"/><path d="M148.1,21.85c7.8,11.41-.36,26.83-3.28,38.38h-7c.28-1.74,1-4.57,2.51-10C134.19,62.9,132,60.68,129,60.68c-4,0-3.55-13.91-.78-26.41,3.32-15-1.09-20.75,4-20.75,2.46,0,4.55.81,7,3.25-3.12-8.78-3.71-5.37-6.05-5.37s-5.06-.3-7.91,1.18c-1.94-4.19-1.49-3.25-2.41-5.24a42.85,42.85,0,0,1,10.56-1.79C143.47,5,145.24,13.91,148.1,21.85Zm-3.72,9.27a9.74,9.74,0,0,0-5.1-1.41c-3.25,0-3.66,1.56-3.83,3.21-.15,1.44,0,3.58,1.82,3.58,2.36,0,5.82-2.9,7.48-3.86A8.29,8.29,0,0,0,144.38,31.12Z"/><path d="M164.12,6.14c0,2.34-.38,2.68,0,5.87a12.48,12.48,0,0,0-4.26-.61c-2.48,0-6.81-3.16-5.24,6.75,6.07,16.71,2.46,24.84-1.93,42.08h-7c3.74-14.43,6.4-24.13,3.22-38.61-1.36-6.15-3.57-9.49-3.27-15.77h7V8.77c1.55-2.31,4-3.22,6.81-3.22A18.13,18.13,0,0,1,164.12,6.14Z"/><path d="M187.57,30.78h6.87c-1.12,8.77-6.91,30.31-18.39,29.9-6.61-.23-4.91-3.51-6.38-8.42-3.53-11.76,3.26-18.91-2.08-30.83-3.78-8.45-.78-15.86,8.75-15.88,11.3,0,13.73,12.56,17.06,21.35H176.76c3.54,8.19,4.28,6.47,6.21,6.47C185.52,33.37,187.22,34.25,187.57,30.78ZM172,12.51h8.83c-1.56-3.22-2.66-2-4.53-2S172,9.29,172,12.51Z"/><path d="M202.42,32.12c.46,2,.55,3.11,4.79,3.11,3.92,0,5.06-1.65,5.07-2.45s-1-1.48-5.36-2c-8.35-1-18.13-14.9-18.13-19.38,0-5,5.41-5.85,11.9-5.85s11,.85,11,5.91h-7c0-.94-1.17-.94-4.3-.94-3.57,0-4.59,0-4.59.68s.85.81,5.23,1c10.41.55,18.19,13.31,18.22,20.15,0,6.62-5.84,28.76-18.27,28.29-14.1-.54-7-20-5.59-28.56Z"/><path d="M227.11,33.37c-.86,4.82-6.17,22.56-6.87,26.86h-7c.7-4.3,6-22,6.88-26.86Z"/><g class="cls-1"><path d="M40,61.36H31.21l0-.15C31.62,59,32,57,32.37,55c1.94-10.44,3.26-17.52.42-27.09,1.23,8.43-2.39,17.44-5.66,25.6-1.09,2.73-2.13,5.31-3,7.78l0,.09H15.4l0-.15C20,36.05,17,28.7,8.07,6.89L8,6.72h8.17l0,.08c1.38,3.77,4.16,10.18,8.36,19.87L26.42,31c-.28-1.47-.54-2.87-.8-4.21-1.84-9.72-3.06-16.15-1.73-20l0-.09H31.4l0,.09c1.32,3.77,4,10.17,8.19,19.87L41.45,31c-.26-1.46-.52-2.86-.76-4.2-1.79-9.73-3-16.16-1.57-20l0-.08h8.19l-.1.19c-2.41,4.49-1.9,6.92-1.2,10.28a38.6,38.6,0,0,1,.83,5.42c1,14.3-1.95,24-6.88,38.66Zm-8.45-.25h8.27c4.9-14.58,7.85-24.26,6.84-38.48a38.1,38.1,0,0,0-.83-5.39c-.7-3.37-1.2-5.81,1.13-10.27h-7.6c-1.33,3.76-.15,10.14,1.61,19.75.31,1.67.63,3.43,1,5.3l.19,1.08-.43-1c-.79-1.88-1.55-3.64-2.26-5.31-4.11-9.63-6.84-16-8.17-19.81H24.09C22.83,10.73,24,17.1,25.87,26.71q.48,2.5,1,5.3l.2,1.09-.44-1-2.3-5.32C20.16,17.14,17.39,10.76,16,7H8.37c8.89,21.69,11.89,29.09,7.33,54.14H24c.83-2.46,1.85-5,2.94-7.71,3.53-8.81,7.45-18.59,5.24-27.54-.57-1.64-1.26-3.36-2.08-5.18l.22-.11a20.47,20.47,0,0,1,2.1,5.22c3.69,10.68,2.32,18,.24,29.23C32.26,57,31.89,58.94,31.51,61.11Z"/><path d="M71.77,61.36H64.5l0-.16c.5-2,1.25-4.3,2-6.78,2.69-8.32,6-18.68,3.4-25.6-4.46-12.56-6.53-16-9.62-16a3.47,3.47,0,0,0-2.77.95c-.86,1-1.11,2.73-.77,5.37C62.17,33.84,60,42,56.44,55.38c-.5,1.87-1,3.8-1.54,5.88l0,.1H47.6l0-.16c5.59-21.53,5-24.18,2.76-34-.81-3.54-1.8-7.94-2.81-14.46a40.1,40.1,0,0,1-.13-7.92c.06-1.32.12-2.58.12-3.79V.88h7.27V9a14.47,14.47,0,0,1,8.36-2.52C64.38,6.43,65,5.1,65.48,4c.38-.83.68-1.5,1.18-1.5h0c.9.05,2.16,2.25,5.9,13.37C79,33.48,77,41.17,72.63,58c-.27,1.05-.55,2.13-.83,3.25Zm-7-.25h6.76L72.39,58c4.34-16.79,6.32-24.46,0-42h0c-3.14-9.33-4.78-13.15-5.67-13.2h0c-.35,0-.65.66-1,1.36-.51,1.13-1.16,2.54-2.49,2.54A14.25,14.25,0,0,0,54.8,9.29l-.2.14V1.12H47.83c0,1.19-.06,2.4-.12,3.68a40.35,40.35,0,0,0,.12,7.87c1,6.51,2,10.91,2.81,14.44,2.24,9.88,2.84,12.55-2.72,34h6.76c.52-2,1-4,1.52-5.79,3.56-13.39,5.71-21.47.39-36.12-.36-2.74-.08-4.56.82-5.59a3.75,3.75,0,0,1,3-1c3.23,0,5.35,3.47,9.86,16.16,2.66,7-.7,17.41-3.4,25.77C66.05,56.9,65.32,59.18,64.82,61.11Z"/><path d="M84,61.81c-5.1,0-5.46-2.09-6-5.22a27.11,27.11,0,0,0-.73-3.3c-1.64-5.36-1.06-9.91-.5-14.31.67-5.25,1.31-10.22-1.5-16.5h0c-2-4.58-2.11-8.93-.18-11.92,1.73-2.68,4.85-4.11,9-4.13h.09c7.89,0,10.61,6.06,13.23,11.93.6,1.35,1.23,2.74,1.9,4,3.37,6.38,1.18,22.3-4.34,31.55-3.07,5.13-6.83,7.86-10.87,7.89ZM75.5,22.38C78.33,28.73,77.66,34,77,39c-.56,4.37-1.14,8.89.49,14.2a26,26,0,0,1,.73,3.32c.54,3.12.87,5,5.75,5h.14c4,0,7.65-2.72,10.66-7.77,5.49-9.18,7.68-25,4.34-31.3-.68-1.28-1.3-2.68-1.91-4C94.63,12.67,92,6.68,84.22,6.68h-.08c-4.11,0-7.16,1.41-8.84,4-1.88,2.93-1.81,7.19.2,11.69ZM90,34c-2.39,0-3.74-.69-7.74-11.51-2.16-5.86-2.74-8.8-1.93-9.84.51-.65,1.42-.55,2.48-.44.43,0,.87.09,1.3.09a8.47,8.47,0,0,0,1.22-.1c2.18-.27,3.08-.38,7,10.2h0c2.35,6.38,3,9.63,2.1,10.87-.54.77-1.55.75-2.71.73H90Zm1.11-.26h.6c1.1,0,2,0,2.51-.62.81-1.15.16-4.43-2.13-10.64h0c-3.84-10.4-4.68-10.29-6.73-10a8.79,8.79,0,0,1-1.25.1c-.45,0-.89,0-1.32-.09-1-.11-1.84-.19-2.26.34-.74,1-.13,3.92,2,9.6,4.21,11.42,5.4,11.39,8,11.35Z"/><path d="M108.74,61.81h-.17c-5.33-.11-5.65-2.13-6.15-5.19a24.49,24.49,0,0,0-.71-3.33c-1.64-5.36-1.06-9.91-.5-14.31.67-5.25,1.31-10.22-1.5-16.5-2.18-4.88-2.25-9.4-.2-12.42,1.75-2.56,4.87-3.81,9.07-3.63h.25a6,6,0,0,0,4-1.8c.75-.63,1.41-1.18,2.17-1,1.26.34,2.75,2.56,6.6,12.89l.06.17h-7.42l0-.07c-2-4.54-2.85-4.43-4.39-4.23a9.13,9.13,0,0,1-1.28.11c-.45,0-.89,0-1.32-.09-1-.11-1.84-.19-2.26.34-.74,1-.13,3.92,2,9.6,4.21,11.42,5.42,11.39,8,11.35.48,0,1,0,1.53,0,1,0,1.85.09,2.29-.45s.46-2.17-.23-4.74l0-.15H126l0,.09c1.63,5.83-1.59,19.69-7.66,27.53C115.39,59.81,112.08,61.81,108.74,61.81Zm-1-55.15c-3.7,0-6.48,1.22-8.06,3.54-2,2.94-1.93,7.38.22,12.18C102.77,28.73,102.1,34,101.46,39c-.56,4.37-1.14,8.89.49,14.2a23.53,23.53,0,0,1,.72,3.36c.49,3,.79,4.87,5.91,5h.16c3.26,0,6.5-2,9.38-5.68,6-7.75,9.2-21.39,7.64-27.22h-6.9c.68,2.59.72,4.07.14,4.79s-1.45.6-2.5.55c-.5,0-1,0-1.52,0-2.74,0-4,.07-8.26-11.51-2.16-5.86-2.74-8.8-1.93-9.84.5-.65,1.42-.55,2.48-.44.43,0,.87.09,1.3.09a8.81,8.81,0,0,0,1.25-.11c1.65-.21,2.55-.33,4.61,4.3h6.9c-3.28-8.79-5-12.2-6.37-12.57-.63-.16-1.21.32-1.94.94a6.29,6.29,0,0,1-4.19,1.85h-.26Z"/><path d="M130.24,62a10.92,10.92,0,0,1-1.14-.08,10.57,10.57,0,0,0-1.14-.07,1.89,1.89,0,0,1-1.5-.79c-2.6-3.24-1.63-15.7.6-25.78a58.91,58.91,0,0,0,1.35-15.06c0-2.68-.08-4.3.75-5.14a2.71,2.71,0,0,1,2.05-.64,9.3,9.3,0,0,1,6.73,2.91c-1.21-3.34-2.12-5-2.93-5.35a1.59,1.59,0,0,0-1.33.19,3.84,3.84,0,0,1-1.49.38l-1,0a13.49,13.49,0,0,0-6.86,1.18l-.12.06,0-.12c-1.29-2.78-1.53-3.3-1.81-3.92-.14-.31-.29-.65-.6-1.32l-.06-.13.13,0a43.75,43.75,0,0,1,10.59-1.79l.82,0c8.36,0,10.75,7,13.06,13.75.3.87.6,1.76.92,2.63,6.15,9,2.4,20.5-.9,30.62-.9,2.77-1.75,5.39-2.38,7.85l0,.1h-7.26l0-.15c.26-1.61.91-4.07,2.18-8.8C134.66,60.83,132.34,62,130.24,62Zm1-47.31a2.5,2.5,0,0,0-1.88.57c-.75.76-.72,2.34-.67,5A59.11,59.11,0,0,1,127.3,35.3c-2.61,11.78-2.89,22.77-.64,25.56a1.63,1.63,0,0,0,1.3.7,11.14,11.14,0,0,1,1.17.07c2.46.25,4.79.48,10.08-10.48l.23.08-.11.41c-1.33,5-2.08,7.76-2.38,9.47h6.77c.63-2.45,1.47-5,2.36-7.77,3.29-10.08,7-21.5.92-30.42v0c-.32-.88-.63-1.78-.92-2.65-2.47-7.21-4.8-14-13.63-13.56a43.42,43.42,0,0,0-10.39,1.73l.54,1.2c.28.6.51,1.12,1.75,3.8a13.79,13.79,0,0,1,6.86-1.15l1,0a3.56,3.56,0,0,0,1.39-.36,1.81,1.81,0,0,1,1.53-.19c.94.41,1.88,2.15,3.24,6l.19.52-.39-.39C135.84,15.58,133.83,14.65,131.21,14.65Zm5,23a1.7,1.7,0,0,1-1.3-.55,4.51,4.51,0,0,1-.64-3.17c.18-1.68.63-3.32,4-3.32A9.91,9.91,0,0,1,143.44,32l0,0,0,0a7.34,7.34,0,0,1,.37,1.55v.08l-.07,0c-.41.24-.93.59-1.53,1C140.51,36,138.08,37.63,136.26,37.63Zm2-6.79c-3.13,0-3.54,1.46-3.71,3.1a4.27,4.27,0,0,0,.58,3,1.41,1.41,0,0,0,1.11.47c1.74,0,4.13-1.64,5.88-2.83.57-.39,1.07-.73,1.48-1a8.19,8.19,0,0,0-.35-1.38A9.69,9.69,0,0,0,138.28,30.84Z"/><path d="M151.81,61.36h-7.27l.25-1c3.69-14.18,6.12-23.55,3-37.71-.45-2.07-1-3.8-1.53-5.47-1-3.3-1.94-6.15-1.74-10.34V6.72h7.26V9.38c1.46-2,3.71-3,6.68-3a18.26,18.26,0,0,1,4.68.59l.1,0v.1c0,.82-.05,1.39-.09,1.94a15.28,15.28,0,0,0,.1,3.92l0,.19-.18-.06a12.35,12.35,0,0,0-4.22-.6,8,8,0,0,1-1.58-.24c-1.13-.23-2.3-.48-3.05.22-.9.86-1.06,3-.49,6.63,5.34,14.7,3.19,22.81-.39,36.24-.49,1.87-1,3.8-1.54,5.88Zm-6.95-.25h6.76c.52-2,1-4,1.51-5.79,3.56-13.39,5.71-21.47.39-36.12-.6-3.77-.42-5.94.56-6.87s2.07-.53,3.27-.28a7.68,7.68,0,0,0,1.53.23,12.73,12.73,0,0,1,4.11.55,15.3,15.3,0,0,1-.08-3.77c0-.52.08-1.06.09-1.82a17.47,17.47,0,0,0-4.53-.56c-3.08,0-5.28,1-6.7,3.16l-.23.34V7h-6.77c-.18,4.08.71,6.89,1.73,10.14.53,1.68,1.08,3.41,1.54,5.49,3.13,14.21.69,23.61-3,37.82Z"/><path d="M175.36,61.81H175c-5-.19-5.35-2.17-5.81-5.18a22.77,22.77,0,0,0-.68-3.34c-1.64-5.45-1.06-9.95-.51-14.3.67-5.2,1.3-10.12-1.56-16.51-2.06-4.6-2.13-9-.19-12,1.73-2.67,4.86-4.09,9.05-4.09h0c9.76,0,12.94,9.28,15.75,17.47.48,1.39.93,2.7,1.4,4l.07.17H176c2.89,6.66,3.85,6.51,5.17,6.31a4.52,4.52,0,0,1,.85-.09c.46,0,.89,0,1.3.06,1.82.12,2.9.19,3.17-2.54v-.11h7.13l0,.14a67.19,67.19,0,0,1-5.32,18.43C184.67,57.81,180.23,61.81,175.36,61.81Zm0-55.13h0c-4.1,0-7.16,1.38-8.84,4-1.89,2.93-1.82,7.2.2,11.72,2.9,6.45,2.23,11.63,1.59,16.64-.55,4.33-1.12,8.8.5,14.2a23.35,23.35,0,0,1,.69,3.38c.45,3,.72,4.78,5.57,5h.32c6,0,10.18-6.19,12.64-11.44a67,67,0,0,0,5.28-18.22h-6.61c-.32,2.85-1.62,2.76-3.42,2.65-.41,0-.83-.06-1.29-.06a5.17,5.17,0,0,0-.81.08c-1.44.22-2.49.39-5.51-6.62l-.08-.18h16.65c-.46-1.2-.89-2.46-1.34-3.79C188.09,15.87,184.94,6.68,175.36,6.68Zm4.68,7h-9.16v-.13a2.51,2.51,0,0,1,.64-1.95,3.2,3.2,0,0,1,2.53-.28,9.24,9.24,0,0,0,1.26.12,7,7,0,0,0,1.17-.13c1.24-.21,2.23-.38,3.47,2.19Zm-8.91-.25h8.5c-1.11-2.21-1.95-2.06-3.11-1.87a7.12,7.12,0,0,1-1.21.13,9.52,9.52,0,0,1-1.29-.12c-.93-.13-1.8-.24-2.33.22A2.19,2.19,0,0,0,171.13,13.39Z"/><path d="M200.38,61.81H200c-3-.12-5.29-1.13-6.73-3-3.59-4.66-1.51-14,0-20.73.41-1.84.8-3.58,1-5V33h7.22l.08.33c.43,1.85.65,2.78,4.62,2.78s4.94-1.72,4.95-2.33c0-.78-.84-1.34-5.26-1.87-3.68-.44-8.15-3.51-12.27-8.43-3.45-4.12-6-8.77-6-11.07,0-5.25,5.78-6,12-6,6.89,0,11.15,1,11.15,6v.12h-7.27v-.12c0-.81-1.13-.81-4.17-.81-3.34,0-4.46,0-4.46.55s.77.69,5.1.91c4.69.25,9.34,3,13.1,7.77,3.17,4,5.23,8.92,5.24,12.51,0,5.3-3.36,18.49-9.9,24.8A11.52,11.52,0,0,1,200.38,61.81Zm-5.87-28.57c-.23,1.4-.61,3.1-1,4.9-1.51,6.73-3.57,16-.05,20.52,1.39,1.81,3.59,2.78,6.54,2.9A11.2,11.2,0,0,0,208.31,58c6.48-6.26,9.84-19.36,9.82-24.62,0-3.54-2-8.39-5.19-12.36-2.15-2.72-6.69-7.34-12.91-7.67-4.5-.23-5.34-.3-5.34-1.16s1-.8,4.71-.8c3.09,0,4.32,0,4.42.93h6.77c-.07-4.7-4.23-5.65-10.9-5.65-6.11,0-11.77.69-11.77,5.72,0,4.7,10,18.29,18,19.25,4.17.5,5.5,1,5.48,2.13,0,.71-1,2.57-5.2,2.57s-4.43-1.12-4.86-3l0-.13Z"/><path d="M219.35,61.36h-7.27l0-.15c.36-2.18,1.92-7.91,3.44-13.45s3-11,3.43-13.42l0-.1h7.27l0,.15c-.43,2.39-2,8-3.45,13.43s-3.07,11.26-3.43,13.43Zm-7-.25h6.77c.38-2.26,1.92-7.9,3.41-13.35S225.5,37,226,34.49H219.2c-.45,2.45-2,8-3.42,13.33S212.77,58.83,212.37,61.11Z"/></g><g class="cls-2"><path d="M39,62.36H30.21l0-.15C30.62,60,31,58,31.37,56c1.94-10.44,3.26-17.52.42-27.09,1.23,8.43-2.39,17.44-5.66,25.6-1.09,2.73-2.13,5.31-3,7.78l0,.09H14.4l0-.15C19,37.05,16,29.7,7.07,7.89L7,7.72h8.17l0,.08c1.38,3.77,4.16,10.18,8.36,19.87L25.42,32c-.28-1.47-.54-2.87-.8-4.21-1.84-9.72-3.06-16.15-1.73-20l0-.09H30.4l0,.09c1.32,3.77,4,10.17,8.19,19.87L40.45,32c-.26-1.46-.52-2.86-.76-4.2-1.79-9.73-3-16.16-1.57-20l0-.08h8.19l-.1.19c-2.41,4.49-1.9,6.92-1.2,10.28a38.6,38.6,0,0,1,.83,5.42c1,14.3-1.95,24-6.88,38.66Zm-8.45-.25h8.27c4.9-14.58,7.85-24.26,6.84-38.48a38.1,38.1,0,0,0-.83-5.39c-.7-3.37-1.2-5.81,1.13-10.27h-7.6c-1.33,3.76-.15,10.14,1.61,19.75.31,1.67.63,3.43,1,5.3l.19,1.08-.43-1c-.79-1.88-1.55-3.64-2.26-5.31-4.11-9.63-6.84-16-8.17-19.81H23.09C21.83,11.73,23,18.1,24.87,27.71q.48,2.5,1,5.3l.2,1.09-.44-1-2.3-5.32C19.16,18.14,16.39,11.76,15,8H7.37c8.89,21.69,11.89,29.09,7.33,54.14H23c.83-2.46,1.85-5,2.94-7.71,3.53-8.81,7.45-18.59,5.24-27.54-.57-1.64-1.26-3.36-2.08-5.18l.22-.11a20.47,20.47,0,0,1,2.1,5.22c3.69,10.68,2.32,18,.24,29.23C31.26,58,30.89,59.94,30.51,62.11Z"/><path d="M70.77,62.36H63.5l0-.16c.5-2,1.25-4.3,2.05-6.78,2.69-8.32,6-18.68,3.4-25.6-4.46-12.56-6.53-16-9.62-16a3.47,3.47,0,0,0-2.77.95c-.86,1-1.11,2.73-.77,5.37C61.17,34.84,59,43,55.44,56.38c-.5,1.87-1,3.8-1.54,5.88l0,.1H46.6l0-.16c5.59-21.53,5-24.18,2.76-34-.81-3.54-1.8-7.94-2.81-14.46a40.1,40.1,0,0,1-.13-7.92c.06-1.32.12-2.58.12-3.79V1.88h7.27V10a14.47,14.47,0,0,1,8.36-2.52C63.38,7.43,64,6.1,64.48,5c.38-.83.68-1.5,1.18-1.5h0c.9.05,2.16,2.25,5.9,13.37C78,34.48,76,42.17,71.63,59c-.27,1.05-.55,2.13-.83,3.25Zm-6.95-.25h6.76L71.39,59c4.34-16.79,6.32-24.46,0-42h0c-3.14-9.33-4.78-13.15-5.67-13.2h0c-.35,0-.65.66-1,1.36-.51,1.13-1.16,2.54-2.49,2.54a14.25,14.25,0,0,0-8.41,2.61l-.2.14V2.12H46.83c0,1.19-.06,2.4-.12,3.68a40.35,40.35,0,0,0,.12,7.87c1,6.51,2,10.91,2.81,14.44,2.24,9.88,2.84,12.55-2.72,34h6.76c.52-2,1-4,1.52-5.79,3.56-13.39,5.71-21.47.39-36.12-.36-2.74-.08-4.56.82-5.59a3.75,3.75,0,0,1,3-1c3.23,0,5.35,3.47,9.86,16.16,2.66,7-.7,17.41-3.4,25.77C65.05,57.9,64.32,60.18,63.82,62.11Z"/><path d="M83,62.81c-5.1,0-5.46-2.09-6-5.22a27.11,27.11,0,0,0-.73-3.3c-1.64-5.36-1.06-9.91-.5-14.31.67-5.25,1.31-10.22-1.5-16.5h0c-2-4.58-2.11-8.93-.18-11.92,1.73-2.68,4.85-4.11,9-4.13,8,0,10.69,6,13.32,11.93.6,1.35,1.23,2.74,1.9,4,3.37,6.38,1.18,22.3-4.34,31.55-3.07,5.13-6.83,7.86-10.87,7.89ZM74.5,23.38C77.33,29.73,76.66,35,76,40c-.56,4.37-1.14,8.89.49,14.2a26,26,0,0,1,.73,3.32c.54,3.12.87,5,5.75,5h.14c4,0,7.65-2.72,10.66-7.77,5.49-9.18,7.68-25,4.34-31.3-.68-1.28-1.3-2.68-1.91-4C93.63,13.67,91,7.68,83.22,7.68h-.08c-4.11,0-7.16,1.41-8.84,4-1.88,2.93-1.81,7.19.2,11.69ZM89,35c-2.39,0-3.74-.69-7.74-11.51-2.16-5.86-2.74-8.8-1.93-9.84.51-.65,1.42-.55,2.48-.44.43,0,.87.09,1.3.09a8.47,8.47,0,0,0,1.22-.1c2.18-.27,3.08-.38,7,10.2h0c2.35,6.38,3,9.63,2.1,10.87-.54.77-1.55.75-2.71.73H89Zm1.11-.26h.6c1.1,0,2,0,2.51-.62.81-1.15.16-4.43-2.13-10.64h0c-3.84-10.4-4.68-10.29-6.73-10a8.79,8.79,0,0,1-1.25.1c-.45,0-.89,0-1.32-.09-1-.11-1.84-.19-2.26.34-.74,1-.13,3.92,2,9.6,4.21,11.42,5.4,11.39,8,11.35Z"/><path d="M107.74,62.81h-.17c-5.33-.11-5.65-2.13-6.15-5.19a24.49,24.49,0,0,0-.71-3.33c-1.64-5.36-1.06-9.91-.5-14.31.67-5.25,1.31-10.22-1.5-16.5-2.18-4.88-2.25-9.4-.2-12.42,1.75-2.56,4.87-3.81,9.07-3.63h0a5.85,5.85,0,0,0,4.28-1.79c.75-.63,1.41-1.18,2.17-1,1.26.34,2.75,2.56,6.6,12.89l.06.17h-7.42l0-.07c-2-4.54-2.85-4.43-4.39-4.23a9.13,9.13,0,0,1-1.28.11c-.45,0-.89,0-1.32-.09-1-.11-1.84-.19-2.26.34-.74,1-.13,3.92,2,9.6,4.21,11.42,5.42,11.39,8,11.35.48,0,1,0,1.53,0,1,0,1.85.09,2.29-.45s.46-2.17-.23-4.74l0-.15H125l0,.09c1.63,5.83-1.59,19.69-7.66,27.53C114.39,60.81,111.08,62.81,107.74,62.81Zm-1-55.15c-3.7,0-6.48,1.22-8.06,3.54-2,2.94-1.93,7.38.22,12.18C101.77,29.73,101.1,35,100.46,40c-.56,4.37-1.14,8.89.49,14.2a23.53,23.53,0,0,1,.72,3.36c.49,3,.79,4.87,5.91,5h.16c3.26,0,6.5-2,9.38-5.68,6-7.75,9.2-21.39,7.64-27.22h-6.9c.68,2.59.72,4.07.14,4.79s-1.45.6-2.5.55c-.5,0-1,0-1.52,0-2.73.05-4,.08-8.26-11.51-2.16-5.86-2.74-8.8-1.93-9.84.51-.65,1.42-.55,2.48-.44.43,0,.87.09,1.3.09a8.81,8.81,0,0,0,1.25-.11c1.65-.21,2.55-.33,4.61,4.3h6.9c-3.28-8.79-5-12.2-6.37-12.57-.63-.16-1.21.32-1.94.94a6.29,6.29,0,0,1-4.19,1.85h-.26Z"/><path d="M129.24,63a10.92,10.92,0,0,1-1.14-.08,10.57,10.57,0,0,0-1.14-.07,1.89,1.89,0,0,1-1.5-.79c-2.6-3.24-1.63-15.7.6-25.78a58.91,58.91,0,0,0,1.35-15.06c0-2.68-.08-4.3.75-5.14a2.71,2.71,0,0,1,2.05-.64,9.3,9.3,0,0,1,6.73,2.91c-1.21-3.34-2.12-5-2.93-5.35a1.59,1.59,0,0,0-1.33.19,3.84,3.84,0,0,1-1.49.38l-1,0a13.38,13.38,0,0,0-6.86,1.18l-.12.06,0-.12c-1.29-2.78-1.53-3.3-1.81-3.92-.14-.31-.29-.65-.6-1.32l-.06-.13.13,0a43.75,43.75,0,0,1,10.59-1.79l.82,0c8.36,0,10.75,7,13.06,13.75.3.87.6,1.76.92,2.63,6.15,9,2.4,20.5-.9,30.62-.9,2.77-1.75,5.39-2.38,7.85l0,.1h-7.26l0-.15c.26-1.61.91-4.07,2.18-8.8C133.66,61.83,131.34,63,129.24,63Zm1-47.31a2.5,2.5,0,0,0-1.88.57c-.75.76-.72,2.34-.67,5A59.11,59.11,0,0,1,126.3,36.3c-2.61,11.78-2.89,22.77-.64,25.56a1.63,1.63,0,0,0,1.3.7,11.14,11.14,0,0,1,1.17.07c2.46.25,4.79.48,10.08-10.48l.23.08-.11.41c-1.33,5-2.08,7.76-2.38,9.47h6.77c.63-2.45,1.47-5,2.36-7.77,3.29-10.08,7-21.5.92-30.42v0c-.32-.88-.63-1.78-.92-2.65-2.47-7.21-4.81-14-13.63-13.56a43.42,43.42,0,0,0-10.39,1.73l.54,1.2c.28.6.51,1.12,1.75,3.8a13.8,13.8,0,0,1,6.86-1.15l1,0a3.56,3.56,0,0,0,1.39-.36,1.81,1.81,0,0,1,1.53-.19c.94.41,1.88,2.15,3.24,6l.19.52-.39-.39C134.84,16.58,132.83,15.65,130.21,15.65Zm5,23a1.7,1.7,0,0,1-1.3-.55,4.51,4.51,0,0,1-.64-3.17c.18-1.68.63-3.32,4-3.32A9.91,9.91,0,0,1,142.44,33l0,0,0,0a7.34,7.34,0,0,1,.37,1.55v.08l-.07,0c-.41.24-.93.59-1.53,1C139.51,37,137.08,38.63,135.26,38.63Zm2-6.79c-3.13,0-3.54,1.46-3.71,3.1a4.27,4.27,0,0,0,.58,3,1.41,1.41,0,0,0,1.11.47c1.74,0,4.13-1.64,5.88-2.83.57-.39,1.07-.73,1.48-1a8.19,8.19,0,0,0-.35-1.38A9.69,9.69,0,0,0,137.28,31.84Z"/><path d="M150.81,62.36h-7.27l.25-1c3.69-14.18,6.12-23.55,3-37.71-.45-2.07-1-3.8-1.53-5.47-1-3.3-1.94-6.15-1.74-10.34V7.72h7.26v2.66c1.46-2,3.71-3,6.68-3a18.26,18.26,0,0,1,4.68.59l.1,0v.1c0,.82-.05,1.39-.09,1.94a15.28,15.28,0,0,0,.1,3.92l0,.19-.18-.06a12.35,12.35,0,0,0-4.22-.6,8,8,0,0,1-1.58-.24c-1.13-.23-2.3-.48-3.05.22-.9.86-1.06,3-.49,6.63,5.34,14.7,3.19,22.81-.39,36.24-.49,1.87-1,3.8-1.54,5.88Zm-6.95-.25h6.76c.52-2,1-4,1.51-5.79,3.56-13.39,5.71-21.47.39-36.12-.6-3.77-.42-5.94.56-6.87s2.07-.53,3.27-.28a7.68,7.68,0,0,0,1.53.23,12.73,12.73,0,0,1,4.11.55,15.3,15.3,0,0,1-.08-3.77c0-.52.08-1.06.09-1.82a17.47,17.47,0,0,0-4.53-.56c-3.08,0-5.28,1-6.7,3.16l-.23.34V8h-6.77c-.18,4.08.71,6.89,1.73,10.14.53,1.68,1.08,3.41,1.54,5.49,3.13,14.21.69,23.61-3,37.82Z"/><path d="M174.36,62.81H174c-5-.19-5.35-2.17-5.81-5.18a22.77,22.77,0,0,0-.68-3.34c-1.64-5.45-1.06-9.95-.51-14.3.67-5.2,1.3-10.12-1.56-16.51-2.06-4.6-2.13-9-.19-12,1.73-2.67,4.86-4.09,9.05-4.09h0c9.76,0,12.94,9.28,15.75,17.47.48,1.39.93,2.7,1.4,4l.07.17H175c2.89,6.66,3.85,6.5,5.17,6.31a4.52,4.52,0,0,1,.85-.09c.46,0,.89,0,1.3.06,1.81.12,2.9.19,3.17-2.54v-.11h7.13l0,.14a67.19,67.19,0,0,1-5.32,18.43C183.67,58.81,179.23,62.81,174.36,62.81Zm0-55.13h0c-4.1,0-7.16,1.38-8.84,4-1.89,2.93-1.82,7.2.2,11.72,2.9,6.45,2.23,11.63,1.59,16.64-.55,4.33-1.12,8.8.5,14.2a23.35,23.35,0,0,1,.69,3.38c.45,3,.72,4.78,5.57,5h.32c6,0,10.18-6.19,12.64-11.44a67,67,0,0,0,5.28-18.22h-6.61c-.32,2.86-1.62,2.76-3.42,2.65-.41,0-.83-.06-1.29-.06a5.17,5.17,0,0,0-.81.08c-1.44.22-2.49.39-5.51-6.62l-.08-.18h16.65c-.46-1.2-.89-2.46-1.34-3.79C187.09,16.87,183.94,7.68,174.36,7.68Zm4.68,7h-9.16v-.13a2.51,2.51,0,0,1,.64-1.95,3.24,3.24,0,0,1,2.53-.28,9.24,9.24,0,0,0,1.26.12,7,7,0,0,0,1.17-.13c1.25-.21,2.23-.38,3.47,2.19Zm-8.91-.25h8.5c-1.11-2.21-1.95-2.07-3.11-1.87a7.12,7.12,0,0,1-1.21.13,9.52,9.52,0,0,1-1.29-.12c-.93-.13-1.8-.25-2.33.22A2.19,2.19,0,0,0,170.13,14.39Z"/><path d="M199.38,62.81H199c-3-.12-5.29-1.13-6.73-3-3.59-4.66-1.51-14,0-20.73.41-1.84.8-3.58,1-5V34h7.22l.08.33c.43,1.85.65,2.78,4.62,2.78s4.94-1.72,4.95-2.33c0-.78-.84-1.34-5.26-1.87-3.68-.44-8.15-3.51-12.27-8.43-3.45-4.12-6-8.77-6-11.07,0-5.25,5.78-6,12-6,6.89,0,11.15,1,11.15,6v.12h-7.27v-.12c0-.81-1.13-.81-4.17-.81-3.34,0-4.46,0-4.46.55s.77.69,5.1.91c4.69.25,9.34,3,13.1,7.77,3.17,4,5.23,8.92,5.24,12.51,0,5.3-3.36,18.49-9.9,24.8A11.52,11.52,0,0,1,199.38,62.81Zm-5.87-28.57c-.23,1.4-.61,3.1-1,4.9-1.51,6.73-3.57,16-.05,20.52,1.39,1.81,3.59,2.78,6.54,2.9A11.2,11.2,0,0,0,207.31,59c6.48-6.26,9.84-19.36,9.82-24.62,0-3.54-2-8.39-5.19-12.36-2.15-2.72-6.69-7.34-12.91-7.67-4.5-.23-5.34-.3-5.34-1.16s1-.8,4.71-.8c3.09,0,4.32,0,4.42.93h6.77c-.07-4.7-4.23-5.65-10.9-5.65-6.11,0-11.77.69-11.77,5.72,0,4.7,10,18.29,18,19.25,4.17.5,5.5,1,5.48,2.13,0,.71-1,2.57-5.2,2.57s-4.43-1.12-4.86-3l0-.13Z"/><path d="M218.35,62.36h-7.27l0-.15c.36-2.18,1.92-7.91,3.44-13.45s3-11,3.43-13.42l0-.1h7.27l0,.15c-.43,2.39-2,8-3.45,13.43s-3.07,11.26-3.43,13.43Zm-7-.25h6.77c.38-2.26,1.92-7.9,3.41-13.35S224.5,38,225,35.49H218.2c-.45,2.45-2,8-3.42,13.33S211.77,59.83,211.37,62.11Z"/></g><g class="cls-3"><path d="M38,63.36H29.21l0-.15C29.62,61,30,59,30.37,57c1.94-10.44,3.26-17.52.42-27.09,1.23,8.43-2.39,17.44-5.66,25.6-1.09,2.73-2.13,5.31-3,7.78l0,.09H13.4l0-.15C18,38.05,15,30.7,6.07,8.89L6,8.72h8.17l0,.08c1.38,3.77,4.16,10.18,8.36,19.87L24.42,33c-.28-1.47-.54-2.87-.8-4.21-1.84-9.72-3.06-16.15-1.73-20l0-.09H29.4l0,.09c1.32,3.77,4,10.17,8.19,19.87L39.45,33c-.26-1.46-.52-2.86-.76-4.2-1.79-9.73-3-16.16-1.57-20l0-.08h8.19l-.1.19c-2.41,4.49-1.9,6.92-1.2,10.28a38.6,38.6,0,0,1,.83,5.42c1,14.3-1.95,24-6.88,38.66Zm-8.45-.25h8.27c4.9-14.58,7.85-24.26,6.84-38.48a38.1,38.1,0,0,0-.83-5.39c-.7-3.37-1.2-5.81,1.13-10.27h-7.6c-1.33,3.76-.15,10.14,1.61,19.75.31,1.67.63,3.43,1,5.3l.19,1.08-.43-1c-.79-1.88-1.55-3.64-2.26-5.31-4.11-9.63-6.84-16-8.17-19.81H22.09C20.83,12.73,22,19.1,23.87,28.71q.48,2.5,1,5.3l.2,1.09-.44-1-2.3-5.32C18.16,19.14,15.39,12.76,14,9H6.37c8.89,21.69,11.89,29.09,7.33,54.14H22c.83-2.46,1.85-5,2.94-7.71,3.53-8.81,7.45-18.59,5.24-27.54-.57-1.64-1.26-3.36-2.08-5.18l.22-.11a20.47,20.47,0,0,1,2.1,5.22c3.69,10.68,2.32,18,.24,29.23C30.26,59,29.89,60.94,29.51,63.11Z"/><path d="M69.77,63.36H62.5l0-.16c.5-2,1.25-4.3,2.05-6.78,2.69-8.32,6-18.68,3.4-25.6-4.46-12.56-6.53-16-9.62-16a3.47,3.47,0,0,0-2.77.95c-.86,1-1.11,2.73-.77,5.37C60.17,35.84,58,44,54.44,57.38c-.5,1.87-1,3.8-1.54,5.88l0,.1H45.6l0-.16c5.59-21.53,5-24.18,2.76-34-.81-3.54-1.8-7.94-2.81-14.46a40.1,40.1,0,0,1-.13-7.92c.06-1.32.12-2.58.12-3.79V2.88h7.27V11a14.47,14.47,0,0,1,8.36-2.52C62.38,8.43,63,7.1,63.48,6c.38-.83.68-1.5,1.18-1.5h0c.9,0,2.16,2.25,5.9,13.37C77,35.48,75,43.17,70.63,60c-.27,1.05-.55,2.13-.83,3.25Zm-6.95-.25h6.76L70.39,60c4.34-16.79,6.32-24.46,0-42h0c-3.14-9.33-4.78-13.15-5.67-13.2h0c-.35,0-.65.66-1,1.36-.51,1.13-1.16,2.54-2.49,2.54a14.25,14.25,0,0,0-8.41,2.61l-.2.14V3.12H45.83c0,1.19-.06,2.4-.12,3.68a40.35,40.35,0,0,0,.12,7.87c1,6.51,2,10.91,2.81,14.44,2.24,9.88,2.84,12.55-2.72,34h6.76c.52-2,1-4,1.52-5.79,3.56-13.39,5.71-21.47.39-36.12-.36-2.74-.08-4.56.82-5.59a3.75,3.75,0,0,1,3-1c3.23,0,5.35,3.47,9.86,16.16,2.66,7-.7,17.41-3.4,25.77C64.05,58.9,63.32,61.18,62.82,63.11Z"/><path d="M82,63.81c-5.1,0-5.46-2.09-6-5.22a27.11,27.11,0,0,0-.73-3.3c-1.64-5.36-1.06-9.91-.5-14.31.67-5.25,1.31-10.22-1.5-16.5h0c-2-4.58-2.11-8.93-.18-11.92,1.73-2.68,4.85-4.11,9-4.13h.09c7.89,0,10.61,6.06,13.23,11.93.6,1.35,1.23,2.74,1.9,4,3.37,6.38,1.18,22.3-4.34,31.55-3.07,5.13-6.83,7.86-10.87,7.89ZM73.5,24.38C76.33,30.73,75.66,36,75,41c-.56,4.37-1.14,8.89.49,14.2a26,26,0,0,1,.73,3.32c.54,3.12.87,5,5.75,5h.14c4,0,7.65-2.72,10.66-7.77,5.49-9.18,7.68-25,4.34-31.3-.68-1.28-1.3-2.68-1.91-4C92.63,14.67,90,8.68,82.22,8.68h-.08c-4.11,0-7.16,1.41-8.84,4-1.88,2.93-1.81,7.19.2,11.69ZM88,36c-2.39,0-3.74-.69-7.74-11.51-2.16-5.86-2.74-8.8-1.93-9.84.51-.65,1.42-.55,2.48-.44.43,0,.87.09,1.3.09a8.47,8.47,0,0,0,1.22-.1c2.17-.27,3.08-.38,7,10.2h0c2.35,6.38,3,9.63,2.1,10.87-.54.77-1.55.75-2.71.73H88Zm1.11-.26h.6c1.1,0,2,0,2.51-.62.81-1.15.16-4.43-2.13-10.64h0c-3.84-10.4-4.68-10.29-6.73-10a8.79,8.79,0,0,1-1.25.1c-.45,0-.89,0-1.32-.09-1-.11-1.84-.19-2.26.34-.74,1-.13,3.92,2,9.6,4.21,11.42,5.4,11.39,8,11.35Z"/><path d="M106.74,63.81h-.17c-5.33-.11-5.65-2.13-6.15-5.19a24.49,24.49,0,0,0-.71-3.33c-1.64-5.36-1.06-9.91-.5-14.31.67-5.25,1.31-10.22-1.5-16.5-2.18-4.88-2.25-9.4-.2-12.42,1.75-2.56,4.87-3.81,9.07-3.63h0a5.88,5.88,0,0,0,4.28-1.79c.75-.63,1.41-1.18,2.17-1,1.26.34,2.75,2.56,6.6,12.89l.06.17h-7.42l0-.07c-2-4.54-2.85-4.43-4.39-4.23a9.13,9.13,0,0,1-1.28.11c-.45,0-.89,0-1.32-.09-1-.11-1.84-.19-2.26.34-.74,1-.13,3.92,2,9.6,4.21,11.42,5.42,11.39,8,11.35.48,0,1,0,1.53,0,1,0,1.85.09,2.29-.45s.46-2.17-.23-4.74l0-.15H124l0,.09c1.63,5.83-1.59,19.69-7.66,27.53C113.39,61.81,110.08,63.81,106.74,63.81Zm-1-55.15c-3.7,0-6.48,1.22-8.06,3.54-2,2.94-1.93,7.38.22,12.18C100.77,30.73,100.1,36,99.46,41c-.56,4.37-1.14,8.89.49,14.2a23.53,23.53,0,0,1,.72,3.36c.49,3,.79,4.87,5.91,5h.16c3.26,0,6.5-2,9.38-5.68,6-7.75,9.2-21.39,7.64-27.22h-6.9c.68,2.59.72,4.07.14,4.79s-1.45.6-2.5.55c-.5,0-1,0-1.52,0-2.73,0-4,.08-8.26-11.51-2.16-5.86-2.74-8.8-1.93-9.84.51-.65,1.42-.55,2.48-.44.43,0,.87.09,1.3.09a8.81,8.81,0,0,0,1.25-.11c1.65-.21,2.56-.33,4.61,4.3h6.9c-3.28-8.79-5-12.2-6.37-12.57-.62-.16-1.21.32-1.94.94a6.29,6.29,0,0,1-4.19,1.85h-.26Z"/><path d="M128.24,64a10.92,10.92,0,0,1-1.14-.08,10.57,10.57,0,0,0-1.14-.07,1.89,1.89,0,0,1-1.5-.79c-2.6-3.24-1.63-15.7.6-25.78a58.91,58.91,0,0,0,1.35-15.06c0-2.68-.08-4.3.75-5.14a2.71,2.71,0,0,1,2.05-.64,9.3,9.3,0,0,1,6.73,2.91c-1.21-3.34-2.12-5-2.93-5.35a1.59,1.59,0,0,0-1.33.19,3.84,3.84,0,0,1-1.49.38l-1,0a13.49,13.49,0,0,0-6.86,1.18l-.12.06,0-.12c-1.29-2.78-1.53-3.3-1.81-3.92-.14-.31-.29-.65-.6-1.32l-.06-.13.13,0a43.75,43.75,0,0,1,10.59-1.79l.82,0c8.36,0,10.75,7,13.06,13.75.3.87.6,1.76.92,2.63,6.15,9,2.4,20.5-.9,30.62-.9,2.77-1.75,5.39-2.38,7.85l0,.1h-7.26l0-.15c.26-1.61.91-4.07,2.18-8.8C132.66,62.83,130.34,64,128.24,64Zm1-47.31a2.5,2.5,0,0,0-1.88.57c-.75.76-.72,2.34-.67,5A59.11,59.11,0,0,1,125.3,37.3c-2.61,11.78-2.89,22.77-.64,25.56a1.63,1.63,0,0,0,1.3.7,11.14,11.14,0,0,1,1.17.07c2.46.25,4.79.48,10.08-10.48l.23.08-.11.41c-1.33,5-2.08,7.76-2.38,9.47h6.77c.63-2.45,1.47-5,2.36-7.77,3.29-10.08,7-21.5.92-30.42v0c-.32-.88-.63-1.78-.92-2.65-2.47-7.21-4.79-14-13.63-13.56a43.42,43.42,0,0,0-10.39,1.73l.54,1.2c.28.6.51,1.12,1.75,3.8a13.8,13.8,0,0,1,6.86-1.15l1,0a3.56,3.56,0,0,0,1.39-.36,1.81,1.81,0,0,1,1.53-.19c.94.41,1.88,2.15,3.24,6l.19.52-.39-.39C133.84,17.58,131.83,16.65,129.21,16.65Zm5,23a1.7,1.7,0,0,1-1.3-.55,4.51,4.51,0,0,1-.64-3.17c.18-1.68.63-3.32,4-3.32A9.91,9.91,0,0,1,141.44,34l0,0,0,0a7.34,7.34,0,0,1,.37,1.55v.08l-.07,0c-.41.24-.93.59-1.53,1C138.51,38,136.08,39.63,134.26,39.63Zm2-6.79c-3.13,0-3.54,1.46-3.71,3.1a4.27,4.27,0,0,0,.58,3,1.41,1.41,0,0,0,1.11.47c1.74,0,4.13-1.64,5.88-2.83.57-.39,1.07-.73,1.48-1a8.19,8.19,0,0,0-.35-1.38A9.69,9.69,0,0,0,136.28,32.84Z"/><path d="M149.81,63.36h-7.27l.25-1c3.69-14.18,6.12-23.55,3-37.71-.45-2.07-1-3.8-1.53-5.47-1-3.3-1.94-6.15-1.74-10.34V8.72h7.26v2.66c1.46-2,3.71-3,6.68-3a18.26,18.26,0,0,1,4.68.59l.1,0v.1c0,.82-.05,1.39-.09,1.94a15.28,15.28,0,0,0,.1,3.92l0,.19-.18-.06a12.35,12.35,0,0,0-4.22-.6,8,8,0,0,1-1.58-.24c-1.13-.23-2.3-.48-3.05.22-.9.86-1.06,3-.49,6.63,5.34,14.7,3.19,22.81-.39,36.24-.49,1.87-1,3.8-1.54,5.88Zm-6.95-.25h6.76c.52-2,1-4,1.51-5.79,3.56-13.39,5.71-21.47.39-36.12-.6-3.77-.42-5.94.56-6.87s2.07-.53,3.27-.28a7.68,7.68,0,0,0,1.53.23,12.73,12.73,0,0,1,4.11.55,15.3,15.3,0,0,1-.08-3.77c0-.52.08-1.06.09-1.82a17.47,17.47,0,0,0-4.53-.56c-3.08,0-5.28,1-6.7,3.16l-.23.34V9h-6.77c-.18,4.08.71,6.89,1.73,10.14.53,1.68,1.08,3.41,1.54,5.49,3.13,14.21.69,23.61-3,37.82Z"/><path d="M173.36,63.81H173c-5-.19-5.35-2.17-5.81-5.18a22.77,22.77,0,0,0-.68-3.34c-1.64-5.45-1.06-9.95-.51-14.3.67-5.2,1.3-10.12-1.56-16.51-2.06-4.6-2.13-9-.19-12,1.73-2.67,4.86-4.09,9.05-4.09h0c9.76,0,12.94,9.28,15.75,17.47.48,1.39.93,2.7,1.4,4l.07.17H174c2.89,6.66,3.85,6.51,5.17,6.31a4.52,4.52,0,0,1,.85-.09c.46,0,.89,0,1.3.06,1.81.12,2.9.19,3.17-2.54v-.11h7.13l0,.14a67.19,67.19,0,0,1-5.32,18.43C182.67,59.81,178.23,63.81,173.36,63.81Zm0-55.13h0c-4.1,0-7.16,1.38-8.84,4-1.89,2.93-1.82,7.2.2,11.72,2.9,6.45,2.23,11.63,1.59,16.64-.55,4.33-1.12,8.8.5,14.2a23.35,23.35,0,0,1,.69,3.38c.45,3,.72,4.78,5.57,5h.32c6,0,10.18-6.19,12.64-11.44a67,67,0,0,0,5.28-18.22h-6.61c-.32,2.86-1.62,2.77-3.42,2.65-.41,0-.83-.06-1.29-.06a5.17,5.17,0,0,0-.81.08c-1.44.22-2.49.39-5.51-6.62l-.08-.18h16.65c-.46-1.2-.89-2.46-1.34-3.79C186.09,17.87,182.94,8.68,173.36,8.68Zm4.68,7h-9.16v-.13a2.51,2.51,0,0,1,.64-1.95,3.2,3.2,0,0,1,2.53-.28,9.24,9.24,0,0,0,1.26.12,7,7,0,0,0,1.17-.13c1.24-.21,2.23-.38,3.47,2.19Zm-8.91-.25h8.5c-1.11-2.21-1.95-2.07-3.11-1.87a7.12,7.12,0,0,1-1.21.13,9.52,9.52,0,0,1-1.29-.12c-.93-.13-1.8-.25-2.33.22A2.19,2.19,0,0,0,169.13,15.39Z"/><path d="M198.38,63.81H198c-3-.12-5.29-1.13-6.73-3-3.59-4.66-1.51-14,0-20.73.41-1.84.8-3.58,1-5V35h7.22l.08.33c.43,1.85.65,2.78,4.62,2.78s4.94-1.72,4.95-2.33c0-.78-.84-1.34-5.26-1.87-3.68-.44-8.15-3.51-12.27-8.43-3.45-4.12-6-8.77-6-11.07,0-5.25,5.78-6,12-6,6.89,0,11.15,1,11.15,6v.12h-7.27v-.12c0-.81-1.13-.81-4.17-.81-3.34,0-4.46,0-4.46.55s.77.69,5.1.91c4.69.25,9.34,3,13.1,7.77,3.17,4,5.23,8.92,5.24,12.51,0,5.3-3.36,18.49-9.9,24.8A11.52,11.52,0,0,1,198.38,63.81Zm-5.87-28.57c-.23,1.4-.61,3.1-1,4.9-1.51,6.73-3.57,16-.05,20.52,1.39,1.81,3.59,2.78,6.54,2.9A11.2,11.2,0,0,0,206.31,60c6.48-6.26,9.84-19.36,9.82-24.62,0-3.54-2-8.39-5.19-12.36-2.15-2.72-6.69-7.34-12.91-7.67-4.5-.23-5.34-.3-5.34-1.16s1-.8,4.71-.8c3.09,0,4.32,0,4.42.93h6.77c-.07-4.7-4.23-5.65-10.9-5.65-6.11,0-11.77.69-11.77,5.72,0,4.7,10,18.29,18,19.25,4.17.5,5.5,1,5.48,2.13,0,.71-1,2.57-5.2,2.57s-4.43-1.12-4.86-3l0-.13Z"/><path d="M217.35,63.36h-7.27l0-.15c.36-2.18,1.92-7.91,3.44-13.45s3-11,3.43-13.42l0-.1h7.27l0,.15c-.43,2.39-2,8-3.45,13.43s-3.07,11.26-3.43,13.43Zm-7-.25h6.77c.38-2.26,1.92-7.9,3.41-13.35S223.5,39,224,36.49H217.2c-.45,2.45-2,8-3.42,13.33S210.77,60.83,210.37,63.11Z"/></g><g class="cls-4"><path d="M37,64.36H28.21l0-.15C28.62,62,29,60,29.37,58c1.94-10.44,3.26-17.52.42-27.09,1.23,8.43-2.39,17.44-5.66,25.6-1.09,2.73-2.13,5.31-3,7.78l0,.09H12.4l0-.15C17,39.05,14,31.7,5.07,9.89L5,9.72h8.17l0,.08c1.38,3.77,4.16,10.18,8.36,19.87L23.42,34c-.28-1.47-.54-2.87-.8-4.21-1.84-9.72-3.06-16.15-1.73-20l0-.09H28.4l0,.09c1.32,3.77,4,10.17,8.19,19.87L38.45,34c-.26-1.46-.52-2.86-.76-4.2-1.79-9.73-3-16.16-1.57-20l0-.08h8.19l-.1.19c-2.41,4.49-1.9,6.92-1.2,10.28a38.6,38.6,0,0,1,.83,5.42c1,14.3-1.95,24-6.88,38.66Zm-8.45-.25h8.27c4.9-14.58,7.85-24.26,6.84-38.48a38.1,38.1,0,0,0-.83-5.39c-.7-3.37-1.2-5.81,1.13-10.27h-7.6c-1.33,3.76-.15,10.14,1.61,19.75.31,1.67.63,3.43,1,5.3l.19,1.08-.43-1c-.79-1.88-1.55-3.64-2.26-5.31-4.11-9.63-6.84-16-8.17-19.81H21.09C19.83,13.73,21,20.1,22.87,29.71q.48,2.5,1,5.3l.2,1.09-.44-1-2.3-5.32c-4.17-9.63-6.94-16-8.34-19.8H5.37c8.89,21.69,11.89,29.09,7.33,54.14H21c.83-2.46,1.85-5,2.94-7.71,3.53-8.81,7.45-18.59,5.24-27.54-.57-1.64-1.26-3.36-2.08-5.18l.22-.11a20.47,20.47,0,0,1,2.1,5.22c3.69,10.68,2.32,18,.24,29.23C29.26,60,28.89,61.94,28.51,64.11Z"/><path d="M68.77,64.36H61.5l0-.16c.5-2,1.25-4.3,2.05-6.78,2.69-8.32,6-18.68,3.4-25.6-4.46-12.56-6.53-16-9.62-16a3.47,3.47,0,0,0-2.77.95c-.86,1-1.11,2.73-.77,5.37C59.17,36.84,57,45,53.44,58.38c-.5,1.87-1,3.8-1.54,5.88l0,.1H44.6l0-.16c5.59-21.53,5-24.18,2.76-34-.81-3.54-1.8-7.94-2.81-14.46a40.1,40.1,0,0,1-.13-7.92c.06-1.32.12-2.58.12-3.79V3.88h7.27V12a14.47,14.47,0,0,1,8.36-2.52C61.38,9.43,62,8.1,62.48,7c.38-.83.68-1.5,1.18-1.5h0c.9,0,2.16,2.25,5.9,13.37C76,36.48,74,44.17,69.63,61c-.27,1.05-.55,2.13-.83,3.25Zm-6.95-.25h6.76L69.39,61c4.34-16.79,6.32-24.46,0-42h0c-3.14-9.33-4.78-13.15-5.67-13.2h0c-.35,0-.65.66-1,1.36-.51,1.13-1.16,2.54-2.49,2.54a14.25,14.25,0,0,0-8.41,2.61l-.2.14V4.12H44.83c0,1.19-.06,2.4-.12,3.68a40.35,40.35,0,0,0,.12,7.87c1,6.51,2,10.91,2.81,14.44,2.24,9.88,2.84,12.55-2.72,34h6.76c.52-2,1-4,1.52-5.79,3.56-13.39,5.71-21.47.39-36.12-.36-2.74-.08-4.56.82-5.59a3.75,3.75,0,0,1,3-1c3.23,0,5.35,3.47,9.86,16.16,2.66,7-.7,17.41-3.4,25.77C63.05,59.9,62.32,62.18,61.82,64.11Z"/><path d="M81,64.81c-5.1,0-5.46-2.09-6-5.22a27.11,27.11,0,0,0-.73-3.3c-1.64-5.36-1.06-9.91-.5-14.31.67-5.25,1.31-10.22-1.5-16.5h0c-2-4.58-2.11-8.93-.18-11.92,1.73-2.68,4.85-4.11,9-4.13h.09c7.89,0,10.61,6.06,13.23,11.93.6,1.35,1.23,2.74,1.9,4,3.37,6.38,1.18,22.3-4.34,31.55-3.07,5.13-6.83,7.86-10.87,7.89ZM72.5,25.38C75.33,31.73,74.66,37,74,42c-.56,4.37-1.14,8.89.49,14.2a26,26,0,0,1,.73,3.32c.54,3.12.87,5,5.75,5h.14c4,0,7.65-2.72,10.66-7.77,5.49-9.18,7.68-25,4.34-31.3-.68-1.28-1.3-2.68-1.91-4C91.63,15.67,89,9.68,81.22,9.68h-.08c-4.11,0-7.16,1.41-8.84,4-1.88,2.93-1.81,7.19.2,11.69ZM87,37c-2.39,0-3.74-.69-7.74-11.51-2.16-5.86-2.74-8.8-1.93-9.84.51-.65,1.42-.55,2.48-.44.43,0,.87.09,1.3.09a8.47,8.47,0,0,0,1.22-.1c2.18-.27,3.08-.38,7,10.2h0c2.35,6.38,3,9.63,2.1,10.87-.54.77-1.55.75-2.71.73H87Zm1.11-.26h.6c1.1,0,2,0,2.51-.62.81-1.15.16-4.43-2.13-10.64h0c-3.84-10.4-4.68-10.29-6.73-10a8.79,8.79,0,0,1-1.25.1c-.45,0-.89,0-1.32-.09-1-.11-1.84-.19-2.26.34-.74,1-.13,3.92,2,9.6,4.21,11.42,5.4,11.39,8,11.35Z"/><path d="M105.74,64.81h-.17c-5.33-.11-5.65-2.13-6.15-5.19a24.49,24.49,0,0,0-.71-3.33c-1.64-5.36-1.06-9.91-.5-14.31.67-5.25,1.31-10.22-1.5-16.5-2.18-4.88-2.25-9.4-.2-12.42,1.75-2.56,4.87-3.81,9.07-3.63h.25a6,6,0,0,0,4-1.8c.75-.63,1.41-1.18,2.17-1,1.26.34,2.75,2.56,6.6,12.89l.06.17h-7.42l0-.07c-2-4.54-2.85-4.43-4.39-4.23a9.13,9.13,0,0,1-1.28.11c-.45,0-.89,0-1.32-.09-1-.11-1.84-.19-2.26.34-.74,1-.13,3.92,2,9.6,4.21,11.43,5.42,11.4,8,11.35.48,0,1,0,1.53,0,1,0,1.85.09,2.29-.45s.46-2.17-.23-4.74l0-.15H123l0,.09c1.63,5.83-1.59,19.69-7.66,27.53C112.39,62.81,109.08,64.81,105.74,64.81Zm-1-55.15c-3.7,0-6.48,1.22-8.06,3.54-2,2.94-1.93,7.38.22,12.18C99.77,31.73,99.1,37,98.46,42c-.56,4.37-1.14,8.89.49,14.2a23.53,23.53,0,0,1,.72,3.36c.49,3,.79,4.87,5.91,5h.16c3.26,0,6.5-2,9.38-5.68,6-7.75,9.2-21.39,7.64-27.22h-6.9c.68,2.59.72,4.07.14,4.79s-1.45.6-2.5.55c-.5,0-1,0-1.52,0-2.73.05-4,.08-8.26-11.51-2.16-5.86-2.74-8.8-1.93-9.84.51-.65,1.42-.55,2.48-.44.43,0,.87.09,1.3.09a8.81,8.81,0,0,0,1.25-.11c1.65-.21,2.55-.33,4.61,4.3h6.9c-3.28-8.79-5-12.2-6.37-12.57-.63-.16-1.21.32-1.94.94a6.29,6.29,0,0,1-4.19,1.85h-.26Z"/><path d="M127.24,65a10.92,10.92,0,0,1-1.14-.08,10.57,10.57,0,0,0-1.14-.07,1.89,1.89,0,0,1-1.5-.79c-2.6-3.24-1.63-15.7.6-25.78a58.91,58.91,0,0,0,1.35-15.06c0-2.68-.08-4.3.75-5.14a2.71,2.71,0,0,1,2.05-.64,9.3,9.3,0,0,1,6.73,2.91c-1.21-3.34-2.12-5-2.93-5.35a1.59,1.59,0,0,0-1.33.19,3.84,3.84,0,0,1-1.49.38l-1,0a13.38,13.38,0,0,0-6.86,1.18l-.12.06,0-.12c-1.29-2.78-1.53-3.3-1.81-3.92-.14-.31-.29-.65-.6-1.32l-.06-.13.13,0a43.75,43.75,0,0,1,10.59-1.79l.82,0c8.36,0,10.75,7,13.06,13.75.3.87.6,1.76.92,2.63,6.15,9,2.4,20.5-.9,30.62-.9,2.77-1.75,5.39-2.38,7.85l0,.1h-7.26l0-.15c.26-1.61.91-4.07,2.18-8.8C131.66,63.83,129.34,65,127.24,65Zm1-47.31a2.5,2.5,0,0,0-1.88.57c-.75.76-.72,2.34-.67,5A59.11,59.11,0,0,1,124.3,38.3c-2.61,11.78-2.89,22.77-.64,25.56a1.63,1.63,0,0,0,1.3.7,11.14,11.14,0,0,1,1.17.07c2.46.25,4.79.48,10.08-10.48l.23.08-.11.41c-1.33,5-2.08,7.76-2.38,9.47h6.77c.63-2.45,1.47-5,2.36-7.77,3.29-10.08,7-21.5.92-30.42v0c-.32-.88-.63-1.78-.92-2.65-2.47-7.21-4.8-14-13.63-13.56a43.42,43.42,0,0,0-10.39,1.73l.54,1.2c.28.6.51,1.12,1.75,3.8a13.79,13.79,0,0,1,6.86-1.15l1,0a3.56,3.56,0,0,0,1.39-.36,1.81,1.81,0,0,1,1.53-.19c.94.41,1.88,2.15,3.24,6l.19.52-.39-.39C132.84,18.58,130.83,17.65,128.21,17.65Zm5,23a1.7,1.7,0,0,1-1.3-.55,4.51,4.51,0,0,1-.64-3.17c.18-1.68.63-3.32,4-3.32A9.91,9.91,0,0,1,140.44,35l0,0,0,0a7.34,7.34,0,0,1,.37,1.55v.08l-.07,0c-.41.24-.93.59-1.53,1C137.51,39,135.08,40.63,133.26,40.63Zm2-6.79c-3.13,0-3.54,1.46-3.71,3.1a4.27,4.27,0,0,0,.58,3,1.41,1.41,0,0,0,1.11.47c1.74,0,4.13-1.64,5.88-2.83.57-.39,1.07-.73,1.48-1a8.19,8.19,0,0,0-.35-1.38A9.69,9.69,0,0,0,135.28,33.84Z"/><path d="M148.81,64.36h-7.27l.25-1c3.69-14.18,6.12-23.55,3-37.71-.45-2.07-1-3.8-1.53-5.47-1-3.3-1.94-6.15-1.74-10.34V9.72h7.26v2.66c1.46-2,3.71-3,6.68-3a18.26,18.26,0,0,1,4.68.59l.1,0v.1c0,.82-.05,1.39-.09,1.94a15.28,15.28,0,0,0,.1,3.92l0,.19-.18-.06a12.35,12.35,0,0,0-4.22-.6,8,8,0,0,1-1.58-.24c-1.13-.23-2.31-.48-3.05.22-.9.86-1.06,3-.49,6.63,5.34,14.7,3.19,22.81-.39,36.24-.49,1.87-1,3.8-1.54,5.88Zm-6.95-.25h6.76c.52-2,1-4,1.51-5.79,3.56-13.39,5.71-21.47.39-36.12-.6-3.77-.42-5.94.56-6.87s2.07-.53,3.27-.28a7.68,7.68,0,0,0,1.53.23,12.73,12.73,0,0,1,4.11.55,15.3,15.3,0,0,1-.08-3.77c0-.52.08-1.06.09-1.82a17.47,17.47,0,0,0-4.53-.56c-3.08,0-5.28,1-6.7,3.16l-.23.34V10h-6.77c-.18,4.08.71,6.89,1.73,10.14.53,1.68,1.08,3.41,1.54,5.49,3.13,14.21.69,23.61-3,37.82Z"/><path d="M172.36,64.81H172c-5-.19-5.35-2.17-5.81-5.18a22.77,22.77,0,0,0-.68-3.34c-1.64-5.45-1.06-9.95-.51-14.3.67-5.2,1.3-10.12-1.56-16.51-2.06-4.6-2.13-9-.19-12,1.73-2.67,4.86-4.09,9.05-4.09h0c9.76,0,12.94,9.28,15.75,17.47.48,1.39.93,2.7,1.4,4l.07.17H173c2.89,6.66,3.85,6.5,5.17,6.31a4.52,4.52,0,0,1,.85-.09c.46,0,.89,0,1.3.06,1.81.12,2.9.19,3.17-2.54v-.11h7.13l0,.14a67.19,67.19,0,0,1-5.32,18.43C181.67,60.81,177.23,64.81,172.36,64.81Zm0-55.13h0c-4.1,0-7.16,1.38-8.84,4-1.89,2.93-1.82,7.2.2,11.72,2.9,6.45,2.23,11.63,1.59,16.64-.55,4.33-1.12,8.8.5,14.2a23.35,23.35,0,0,1,.69,3.38c.45,3,.72,4.78,5.57,5h.32c6,0,10.18-6.19,12.64-11.44a67,67,0,0,0,5.28-18.22h-6.61c-.32,2.86-1.62,2.76-3.42,2.65-.41,0-.83-.06-1.29-.06a5.17,5.17,0,0,0-.81.08c-1.44.22-2.49.39-5.51-6.62l-.08-.18h16.65c-.46-1.2-.89-2.46-1.34-3.79C185.09,18.87,181.94,9.68,172.36,9.68Zm4.68,7h-9.16v-.13a2.51,2.51,0,0,1,.64-2,3.2,3.2,0,0,1,2.53-.28,9.24,9.24,0,0,0,1.26.12,7,7,0,0,0,1.17-.13c1.24-.21,2.23-.38,3.47,2.19Zm-8.91-.25h8.5c-1.11-2.21-1.95-2.06-3.11-1.87a7.12,7.12,0,0,1-1.21.13,9.52,9.52,0,0,1-1.29-.12c-.93-.13-1.8-.24-2.33.22A2.19,2.19,0,0,0,168.13,16.39Z"/><path d="M197.38,64.81H197c-3-.12-5.29-1.13-6.73-3-3.59-4.66-1.51-14,0-20.73.41-1.84.8-3.58,1-5V36h7.22l.08.33c.43,1.85.65,2.78,4.62,2.78s4.94-1.72,4.95-2.33c0-.78-.84-1.34-5.26-1.87-3.68-.44-8.15-3.51-12.27-8.43-3.45-4.12-6-8.77-6-11.07,0-5.25,5.78-6,12-6,6.89,0,11.15,1,11.15,6v.12h-7.27v-.12c0-.81-1.13-.81-4.17-.81-3.34,0-4.46,0-4.46.55s.77.69,5.1.91c4.69.25,9.34,3,13.1,7.77,3.17,4,5.23,8.92,5.24,12.51,0,5.3-3.36,18.49-9.9,24.8A11.52,11.52,0,0,1,197.38,64.81Zm-5.87-28.57c-.23,1.4-.61,3.1-1,4.9-1.51,6.73-3.57,16-.05,20.52,1.39,1.81,3.59,2.78,6.54,2.9A11.2,11.2,0,0,0,205.31,61c6.48-6.26,9.84-19.36,9.82-24.62,0-3.54-2-8.39-5.19-12.36-2.15-2.72-6.69-7.34-12.91-7.67-4.5-.23-5.34-.3-5.34-1.16s1-.8,4.71-.8c3.09,0,4.32,0,4.42.93h6.77c-.07-4.7-4.23-5.65-10.9-5.65-6.11,0-11.77.69-11.77,5.72,0,4.7,10,18.29,18,19.25,4.17.5,5.5,1,5.48,2.13,0,.71-1,2.57-5.2,2.57s-4.43-1.12-4.86-3l0-.13Z"/><path d="M216.35,64.36h-7.27l0-.15c.36-2.18,1.92-7.91,3.44-13.45s3-11,3.43-13.42l0-.1h7.27l0,.15c-.43,2.39-2,8-3.45,13.43s-3.07,11.26-3.43,13.43Zm-7-.25h6.77c.38-2.26,1.92-7.9,3.41-13.35S222.5,40,223,37.49H216.2c-.45,2.45-2,8-3.42,13.33S209.77,61.83,209.37,64.11Z"/></g><g class="cls-5"><path d="M36,65.36H27.21l0-.15C27.62,63,28,61,28.37,59c1.94-10.44,3.26-17.52.42-27.09,1.23,8.43-2.39,17.44-5.66,25.6-1.09,2.73-2.13,5.31-3,7.78l0,.09H11.4l0-.15C16,40.05,13,32.7,4.07,10.89L4,10.72h8.17l0,.08c1.38,3.77,4.16,10.18,8.36,19.87L22.42,35c-.28-1.47-.54-2.87-.8-4.21-1.84-9.72-3.06-16.15-1.73-20l0-.09H27.4l0,.09c1.32,3.77,4.05,10.17,8.19,19.87L37.45,35c-.26-1.46-.52-2.86-.76-4.2-1.79-9.73-3-16.16-1.57-20l0-.08h8.19l-.1.19c-2.41,4.49-1.9,6.92-1.2,10.28a38.6,38.6,0,0,1,.83,5.42c1,14.3-1.95,24-6.88,38.66Zm-8.45-.25h8.27c4.9-14.58,7.85-24.26,6.84-38.48a38.1,38.1,0,0,0-.83-5.39c-.7-3.37-1.2-5.81,1.13-10.27h-7.6c-1.33,3.76-.15,10.14,1.61,19.75.31,1.67.63,3.43,1,5.3l.19,1.08-.43-1c-.79-1.88-1.55-3.64-2.26-5.31-4.11-9.63-6.84-16-8.17-19.81H20.09C18.83,14.73,20,21.1,21.87,30.71q.48,2.51,1,5.3l.2,1.09-.44-1-2.3-5.32c-4.17-9.63-6.94-16-8.34-19.8H4.37c8.89,21.69,11.89,29.09,7.33,54.14H20c.83-2.46,1.85-5,2.94-7.71,3.53-8.81,7.45-18.59,5.24-27.54-.57-1.64-1.26-3.36-2.08-5.18l.22-.11a20.47,20.47,0,0,1,2.1,5.22c3.69,10.68,2.32,18,.24,29.23C28.26,61,27.89,62.94,27.51,65.11Z"/><path d="M67.77,65.36H60.5l0-.16c.5-2,1.25-4.3,2.05-6.78,2.69-8.32,6-18.68,3.4-25.6-4.46-12.56-6.53-16-9.62-16a3.47,3.47,0,0,0-2.77.95c-.86,1-1.11,2.73-.77,5.37C58.17,37.84,56,46,52.44,59.38c-.5,1.87-1,3.8-1.54,5.88l0,.1H43.6l0-.16c5.59-21.53,5-24.18,2.76-34-.81-3.54-1.8-7.94-2.81-14.46a40.1,40.1,0,0,1-.13-7.92c.06-1.32.12-2.58.12-3.79V4.88h7.27V13a14.47,14.47,0,0,1,8.36-2.52c1.17,0,1.78-1.33,2.27-2.4.38-.83.68-1.5,1.18-1.5h0c.9,0,2.16,2.25,5.9,13.37C75,37.48,73,45.17,68.63,62c-.27,1.05-.55,2.13-.83,3.25Zm-6.95-.25h6.76L68.39,62c4.34-16.79,6.32-24.46,0-42h0c-3.14-9.33-4.78-13.15-5.67-13.2h0c-.35,0-.65.66-1,1.36-.51,1.13-1.16,2.54-2.49,2.54a14.25,14.25,0,0,0-8.41,2.61l-.2.14V5.12H43.83c0,1.19-.06,2.4-.12,3.68a40.35,40.35,0,0,0,.12,7.87c1,6.51,2,10.91,2.81,14.44,2.24,9.88,2.84,12.55-2.72,34h6.76c.52-2,1-4,1.52-5.79,3.56-13.39,5.71-21.47.39-36.12-.36-2.74-.08-4.56.82-5.59a3.75,3.75,0,0,1,3-1c3.23,0,5.35,3.47,9.86,16.16,2.66,7-.7,17.41-3.4,25.77C62.05,60.9,61.32,63.18,60.82,65.11Z"/><path d="M80,65.81c-5.1,0-5.46-2.09-6-5.22a27.11,27.11,0,0,0-.73-3.3c-1.64-5.36-1.06-9.91-.5-14.31.67-5.25,1.31-10.22-1.5-16.5h0c-2-4.58-2.11-8.93-.18-11.92,1.73-2.68,4.85-4.11,9-4.13h.09c7.89,0,10.61,6.06,13.23,11.93.6,1.35,1.23,2.74,1.9,4,3.37,6.38,1.18,22.3-4.34,31.55-3.07,5.13-6.83,7.86-10.87,7.89ZM71.5,26.38C74.33,32.73,73.66,38,73,43c-.56,4.37-1.14,8.89.49,14.2a26,26,0,0,1,.73,3.32c.54,3.12.87,5,5.75,5h.14c4,0,7.65-2.72,10.66-7.77,5.49-9.18,7.68-25,4.34-31.3-.68-1.28-1.3-2.68-1.91-4-2.59-5.79-5.27-11.78-13-11.78h-.08c-4.11,0-7.16,1.41-8.84,4-1.88,2.93-1.81,7.19.2,11.69ZM86,38c-2.39,0-3.74-.69-7.74-11.51-2.16-5.86-2.74-8.8-1.93-9.84.51-.65,1.42-.55,2.48-.44.43,0,.87.09,1.3.09a8.47,8.47,0,0,0,1.22-.1c2.18-.27,3.08-.38,7,10.2h0c2.35,6.38,3,9.63,2.1,10.87-.54.77-1.55.75-2.71.73H86Zm1.11-.26h.6c1.1,0,2,0,2.51-.62.81-1.15.16-4.43-2.13-10.64h0c-3.84-10.4-4.68-10.29-6.73-10a8.79,8.79,0,0,1-1.25.1c-.45,0-.89-.05-1.32-.09-1-.11-1.84-.19-2.26.34-.74.95-.13,3.92,2,9.6,4.21,11.42,5.4,11.39,8,11.35Z"/><path d="M104.74,65.81h-.17c-5.33-.11-5.65-2.13-6.15-5.19a24.49,24.49,0,0,0-.71-3.33c-1.64-5.36-1.06-9.91-.5-14.31.67-5.25,1.31-10.22-1.5-16.5-2.18-4.88-2.25-9.4-.2-12.42,1.75-2.56,4.87-3.81,9.07-3.63h.25a6,6,0,0,0,4-1.8c.75-.63,1.41-1.18,2.17-1,1.26.34,2.75,2.56,6.6,12.89l.06.17h-7.42l0-.07c-2-4.54-2.85-4.43-4.39-4.23a9.13,9.13,0,0,1-1.28.11c-.45,0-.89-.05-1.32-.09-1-.11-1.84-.19-2.26.34-.74.95-.13,3.92,2,9.6,4.21,11.43,5.42,11.39,8,11.35.48,0,1,0,1.53,0,1,0,1.85.09,2.29-.45s.46-2.17-.23-4.74l0-.15H122l0,.09c1.63,5.83-1.59,19.69-7.66,27.53C111.39,63.81,108.08,65.81,104.74,65.81Zm-1-55.15c-3.7,0-6.48,1.22-8.06,3.54-2,2.94-1.93,7.38.22,12.18C98.77,32.73,98.1,38,97.46,43c-.56,4.37-1.14,8.89.49,14.2a23.53,23.53,0,0,1,.72,3.36c.49,3,.79,4.87,5.91,5h.16c3.26,0,6.5-2,9.38-5.68,6-7.75,9.2-21.39,7.64-27.22h-6.9c.68,2.59.72,4.07.14,4.79s-1.45.6-2.5.55c-.5,0-1,0-1.52,0-2.73,0-4,.08-8.26-11.51-2.16-5.86-2.74-8.8-1.93-9.84.51-.65,1.42-.55,2.48-.44.43,0,.87.09,1.3.09a8.81,8.81,0,0,0,1.25-.11c1.65-.21,2.56-.33,4.61,4.3h6.9c-3.28-8.79-5-12.2-6.37-12.57-.63-.16-1.21.32-1.94.94a6.29,6.29,0,0,1-4.19,1.85h-.26Z"/><path d="M126.24,66a10.92,10.92,0,0,1-1.14-.08,10.57,10.57,0,0,0-1.14-.07,1.89,1.89,0,0,1-1.5-.79c-2.6-3.24-1.63-15.7.6-25.78a58.91,58.91,0,0,0,1.35-15.06c0-2.68-.08-4.3.75-5.14a2.71,2.71,0,0,1,2-.64,9.3,9.3,0,0,1,6.73,2.91c-1.21-3.34-2.12-5-2.93-5.35a1.59,1.59,0,0,0-1.33.19,3.84,3.84,0,0,1-1.49.38l-1,0a13.49,13.49,0,0,0-6.86,1.18l-.12.06,0-.12c-1.29-2.78-1.53-3.3-1.81-3.92-.14-.31-.29-.65-.6-1.32l-.06-.13.13,0a43.75,43.75,0,0,1,10.59-1.79l.82,0c8.36,0,10.75,7,13.06,13.75.3.87.6,1.76.92,2.63,6.15,9,2.4,20.5-.9,30.62-.9,2.77-1.75,5.39-2.38,7.85l0,.1h-7.26l0-.15c.26-1.61.91-4.07,2.18-8.8C130.66,64.83,128.34,66,126.24,66Zm1-47.31a2.5,2.5,0,0,0-1.88.57c-.75.76-.72,2.34-.67,5A59.11,59.11,0,0,1,123.3,39.3c-2.61,11.78-2.89,22.77-.64,25.56a1.63,1.63,0,0,0,1.3.7,11.14,11.14,0,0,1,1.17.07c2.46.25,4.79.48,10.08-10.48l.23.08-.11.41c-1.33,5-2.08,7.76-2.38,9.47h6.77c.63-2.45,1.47-5,2.36-7.77,3.29-10.08,7-21.5.92-30.42v0c-.32-.88-.63-1.78-.92-2.65-2.39-7-4.65-13.58-12.81-13.58l-.82,0a43.42,43.42,0,0,0-10.39,1.73l.54,1.2c.28.6.51,1.12,1.75,3.8a13.8,13.8,0,0,1,6.86-1.15l1,0a3.56,3.56,0,0,0,1.39-.36,1.81,1.81,0,0,1,1.53-.19c.94.41,1.88,2.15,3.24,6l.19.52-.39-.39C131.84,19.58,129.83,18.65,127.21,18.65Zm5,23a1.7,1.7,0,0,1-1.3-.55,4.51,4.51,0,0,1-.64-3.17c.18-1.68.63-3.32,4-3.32A9.91,9.91,0,0,1,139.44,36l0,0,0,0a7.34,7.34,0,0,1,.37,1.55v.08l-.07,0c-.41.24-.93.59-1.53,1C136.51,40,134.08,41.63,132.26,41.63Zm2-6.79c-3.13,0-3.54,1.46-3.71,3.1a4.27,4.27,0,0,0,.58,3,1.41,1.41,0,0,0,1.11.47c1.74,0,4.13-1.64,5.88-2.83.57-.39,1.07-.73,1.48-1a8.19,8.19,0,0,0-.35-1.38A9.69,9.69,0,0,0,134.28,34.84Z"/><path d="M147.81,65.36h-7.27l.25-1c3.69-14.18,6.12-23.55,3-37.71-.45-2.07-1-3.8-1.53-5.47-1-3.3-1.94-6.15-1.74-10.34v-.12h7.26v2.66c1.46-2,3.71-3,6.68-3a18.26,18.26,0,0,1,4.68.59l.1,0v.1c0,.82-.05,1.39-.09,1.94a15.28,15.28,0,0,0,.1,3.92l0,.19-.18-.06a12.35,12.35,0,0,0-4.22-.6,8,8,0,0,1-1.58-.24c-1.13-.23-2.31-.48-3.05.22-.9.86-1.06,3-.49,6.63,5.34,14.7,3.19,22.81-.39,36.24-.49,1.87-1,3.8-1.54,5.88Zm-6.95-.25h6.76c.52-2,1-4,1.51-5.79,3.56-13.39,5.71-21.47.39-36.12-.6-3.77-.42-5.94.56-6.87s2.07-.53,3.27-.28a7.68,7.68,0,0,0,1.53.23,12.73,12.73,0,0,1,4.11.55,15.3,15.3,0,0,1-.08-3.77c0-.52.08-1.06.09-1.82a17.47,17.47,0,0,0-4.53-.56c-3.08,0-5.28,1-6.7,3.16l-.23.34V11h-6.77c-.18,4.08.71,6.89,1.73,10.14.53,1.68,1.08,3.41,1.54,5.49,3.13,14.21.69,23.61-3,37.82Z"/><path d="M171.36,65.81H171c-5-.19-5.35-2.17-5.81-5.18a22.77,22.77,0,0,0-.68-3.34c-1.64-5.45-1.06-9.95-.51-14.3.67-5.2,1.3-10.12-1.56-16.51-2.06-4.6-2.13-9-.19-12,1.73-2.67,4.86-4.09,9.05-4.09h0c9.76,0,12.94,9.28,15.75,17.47.48,1.39.93,2.7,1.4,4l.07.17H172c2.89,6.66,3.85,6.51,5.17,6.31a4.52,4.52,0,0,1,.85-.09c.46,0,.89,0,1.3.06,1.81.12,2.9.19,3.17-2.54v-.11h7.13l0,.14a67.19,67.19,0,0,1-5.32,18.43C180.67,61.81,176.23,65.81,171.36,65.81Zm0-55.13h0c-4.1,0-7.16,1.38-8.84,4-1.89,2.93-1.82,7.2.2,11.72,2.9,6.45,2.23,11.63,1.59,16.64-.55,4.33-1.12,8.8.5,14.2a23.35,23.35,0,0,1,.69,3.38c.45,3,.72,4.78,5.57,5h.32c6,0,10.18-6.19,12.64-11.44a67,67,0,0,0,5.28-18.22h-6.61c-.32,2.86-1.63,2.76-3.42,2.65-.41,0-.83-.06-1.29-.06a5.17,5.17,0,0,0-.81.08c-1.44.22-2.49.39-5.51-6.62l-.08-.18h16.65c-.46-1.2-.89-2.46-1.34-3.79C184.09,19.87,180.94,10.68,171.36,10.68Zm4.68,7h-9.16v-.13a2.51,2.51,0,0,1,.64-2,3.2,3.2,0,0,1,2.53-.28,9.24,9.24,0,0,0,1.26.12,7,7,0,0,0,1.17-.13c1.24-.21,2.23-.38,3.47,2.19Zm-8.91-.25h8.5c-1.11-2.21-1.95-2.06-3.11-1.87a7.12,7.12,0,0,1-1.21.13,9.52,9.52,0,0,1-1.29-.12c-.93-.13-1.8-.24-2.33.22A2.19,2.19,0,0,0,167.13,17.39Z"/><path d="M196.38,65.81H196c-3-.12-5.29-1.13-6.73-3-3.59-4.66-1.51-14,0-20.73.41-1.84.8-3.58,1-5V37h7.22l.08.33c.43,1.85.65,2.78,4.62,2.78s4.94-1.72,4.95-2.33c0-.78-.84-1.34-5.26-1.87-3.68-.44-8.15-3.51-12.27-8.43-3.45-4.12-6-8.77-6-11.07,0-5.25,5.78-6,12-6,6.89,0,11.15,1,11.15,6v.12h-7.27v-.12c0-.81-1.13-.81-4.17-.81-3.34,0-4.46,0-4.46.55s.77.69,5.1.91c4.69.25,9.34,3,13.1,7.77,3.17,4,5.23,8.92,5.24,12.51,0,5.3-3.36,18.49-9.9,24.8A11.52,11.52,0,0,1,196.38,65.81Zm-5.87-28.57c-.23,1.4-.61,3.1-1,4.9-1.51,6.73-3.57,16-.05,20.52,1.39,1.81,3.59,2.78,6.54,2.9A11.2,11.2,0,0,0,204.31,62c6.48-6.26,9.84-19.36,9.82-24.62,0-3.54-2-8.39-5.19-12.36-2.15-2.72-6.69-7.34-12.91-7.67-4.5-.23-5.34-.3-5.34-1.16s1-.8,4.71-.8c3.09,0,4.32,0,4.42.93h6.77c-.07-4.7-4.23-5.65-10.9-5.65-6.11,0-11.77.69-11.77,5.72,0,4.7,10,18.29,18,19.25,4.17.5,5.5,1,5.48,2.13,0,.71-1,2.57-5.2,2.57s-4.43-1.12-4.86-3l0-.13Z"/><path d="M215.35,65.36h-7.27l0-.15c.36-2.18,1.92-7.91,3.44-13.45s3-11,3.43-13.42l0-.1h7.27l0,.15c-.43,2.39-2,8-3.45,13.43s-3.07,11.26-3.43,13.43Zm-7-.25h6.77c.38-2.26,1.92-7.9,3.41-13.35S221.5,41,222,38.49H215.2c-.45,2.45-2,8-3.42,13.33S208.77,62.83,208.37,65.11Z"/></g><g class="cls-6"><path d="M35,66.36H26.21l0-.15C26.62,64,27,62,27.37,60c1.94-10.44,3.26-17.52.42-27.09,1.23,8.43-2.39,17.44-5.66,25.6-1.09,2.73-2.13,5.31-3,7.78l0,.09H10.4l0-.15C15,41.05,12,33.7,3.07,11.89L3,11.72h8.17l0,.08c1.38,3.77,4.16,10.18,8.36,19.87L21.42,36c-.28-1.47-.54-2.87-.8-4.21-1.84-9.72-3.06-16.15-1.73-20l0-.09H26.4l0,.09c1.32,3.77,4.05,10.17,8.19,19.87L36.45,36c-.26-1.46-.52-2.86-.76-4.2-1.79-9.73-3-16.16-1.57-20l0-.08h8.19l-.1.19c-2.41,4.49-1.9,6.92-1.2,10.28a38.6,38.6,0,0,1,.83,5.42c1,14.3-1.95,24-6.88,38.66Zm-8.45-.25h8.27c4.9-14.58,7.85-24.26,6.84-38.48a38.1,38.1,0,0,0-.83-5.39c-.7-3.37-1.2-5.81,1.13-10.27h-7.6c-1.33,3.76-.15,10.14,1.61,19.75.31,1.67.63,3.43,1,5.3l.19,1.08-.43-1c-.79-1.88-1.55-3.64-2.26-5.31-4.11-9.63-6.84-16-8.17-19.81H19.09C17.83,15.73,19,22.1,20.87,31.71q.48,2.51,1,5.3l.2,1.09-.44-1-2.3-5.32c-4.17-9.63-6.94-16-8.34-19.8H3.37c8.89,21.69,11.89,29.09,7.33,54.14H19c.83-2.46,1.85-5,2.94-7.71,3.53-8.81,7.45-18.59,5.24-27.54-.57-1.64-1.26-3.36-2.08-5.18l.22-.11a20.47,20.47,0,0,1,2.1,5.22c3.69,10.68,2.32,18,.24,29.23C27.26,62,26.89,63.94,26.51,66.11Z"/><path d="M66.77,66.36H59.5l0-.16c.5-2,1.25-4.3,2.05-6.78,2.69-8.32,6-18.68,3.4-25.6-4.46-12.56-6.53-16-9.62-16a3.47,3.47,0,0,0-2.77.95c-.86,1-1.11,2.73-.77,5.37C57.17,38.84,55,47,51.44,60.38c-.5,1.87-1,3.8-1.54,5.88l0,.1H42.6l0-.16c5.59-21.53,5-24.18,2.76-34-.81-3.54-1.8-7.94-2.81-14.46a40.1,40.1,0,0,1-.13-7.92c.06-1.32.12-2.58.12-3.79V5.88h7.27V14a14.47,14.47,0,0,1,8.36-2.52c1.17,0,1.78-1.33,2.27-2.4.38-.83.68-1.5,1.18-1.5h0c.9,0,2.16,2.25,5.9,13.37C74,38.48,72,46.17,67.63,63c-.27,1.05-.55,2.13-.83,3.25Zm-6.95-.25h6.76L67.39,63c4.34-16.79,6.32-24.46,0-42h0c-3.14-9.33-4.78-13.15-5.67-13.2h0c-.35,0-.65.66-1,1.36-.51,1.13-1.16,2.54-2.49,2.54a14.25,14.25,0,0,0-8.41,2.61l-.2.14V6.12H42.83c0,1.19-.06,2.4-.12,3.68a40.35,40.35,0,0,0,.12,7.87c1,6.51,2,10.91,2.81,14.44,2.24,9.88,2.84,12.55-2.72,34h6.76c.52-2,1-4,1.52-5.79,3.56-13.39,5.71-21.47.39-36.12-.36-2.74-.08-4.56.82-5.59a3.75,3.75,0,0,1,3-1c3.23,0,5.35,3.47,9.86,16.16,2.66,7-.7,17.41-3.4,25.77C61.05,61.9,60.32,64.18,59.82,66.11Z"/><path d="M79,66.81c-5.1,0-5.46-2.09-6-5.22a27.11,27.11,0,0,0-.73-3.3c-1.64-5.36-1.06-9.91-.5-14.31.67-5.25,1.31-10.22-1.5-16.5h0c-2-4.58-2.11-8.93-.18-11.92,1.73-2.68,4.85-4.11,9-4.13h.09c7.89,0,10.61,6.06,13.23,11.93.6,1.35,1.23,2.74,1.9,4,3.37,6.38,1.18,22.3-4.34,31.55-3.07,5.13-6.83,7.86-10.87,7.89ZM70.5,27.38C73.33,33.73,72.66,39,72,44c-.56,4.37-1.14,8.89.49,14.2a26,26,0,0,1,.73,3.32c.54,3.12.87,5,5.75,5h.14c4,0,7.65-2.72,10.66-7.77,5.49-9.18,7.68-25,4.34-31.3-.68-1.28-1.3-2.68-1.91-4-2.59-5.79-5.27-11.78-13-11.78h-.08c-4.11,0-7.16,1.41-8.84,4-1.88,2.93-1.81,7.19.2,11.69ZM85,39c-2.39,0-3.74-.69-7.74-11.51-2.16-5.86-2.74-8.8-1.93-9.84.51-.65,1.42-.55,2.48-.44.43,0,.87.09,1.3.09a8.47,8.47,0,0,0,1.22-.1c2.17-.27,3.08-.38,7,10.2h0c2.35,6.38,3,9.63,2.1,10.87-.54.77-1.55.75-2.71.73H85Zm1.11-.26h.6c1.1,0,2,0,2.51-.62.81-1.15.16-4.43-2.13-10.64h0c-3.84-10.4-4.68-10.29-6.73-10a8.79,8.79,0,0,1-1.25.1c-.45,0-.89-.05-1.32-.09-1-.11-1.84-.19-2.26.34-.74.95-.13,3.92,2,9.6,4.21,11.42,5.4,11.39,8,11.35Z"/><path d="M103.74,66.81h-.17c-5.33-.11-5.65-2.13-6.15-5.19a24.49,24.49,0,0,0-.71-3.33c-1.64-5.36-1.06-9.91-.5-14.31.67-5.25,1.31-10.22-1.5-16.5-2.18-4.88-2.25-9.4-.2-12.42,1.75-2.56,4.87-3.81,9.07-3.63h0a5.85,5.85,0,0,0,4.28-1.79c.75-.63,1.41-1.18,2.17-1,1.26.34,2.75,2.56,6.6,12.89l.06.17h-7.42l0-.07c-2-4.54-2.85-4.43-4.39-4.23a9.13,9.13,0,0,1-1.28.11c-.45,0-.89-.05-1.32-.09-1-.11-1.84-.19-2.26.34-.74.95-.13,3.92,2,9.6,4.21,11.43,5.42,11.39,8,11.35.48,0,1,0,1.53,0,1,0,1.85.09,2.29-.45s.46-2.17-.23-4.74l0-.15H121l0,.09c1.63,5.83-1.59,19.69-7.66,27.53C110.39,64.81,107.08,66.81,103.74,66.81Zm-1-55.15c-3.7,0-6.48,1.22-8.06,3.54-2,2.94-1.93,7.38.22,12.18C97.77,33.73,97.1,39,96.46,44c-.56,4.37-1.14,8.89.49,14.2a23.53,23.53,0,0,1,.72,3.36c.49,3,.79,4.87,5.91,5h.16c3.26,0,6.5-2,9.38-5.68,6-7.75,9.2-21.39,7.64-27.22h-6.9c.68,2.59.72,4.07.14,4.79s-1.45.6-2.5.55c-.5,0-1,0-1.52,0-2.74,0-4,.07-8.26-11.51-2.16-5.86-2.74-8.8-1.93-9.84.5-.65,1.42-.55,2.48-.44.43,0,.87.09,1.3.09a8.81,8.81,0,0,0,1.25-.11c1.65-.21,2.55-.33,4.61,4.3h6.9c-3.28-8.79-5-12.2-6.37-12.57-.63-.16-1.21.32-1.94.94a6.29,6.29,0,0,1-4.19,1.85h-.26Z"/><path d="M125.24,67a10.92,10.92,0,0,1-1.14-.08,10.57,10.57,0,0,0-1.14-.07,1.89,1.89,0,0,1-1.5-.79c-2.6-3.24-1.63-15.7.6-25.78a58.91,58.91,0,0,0,1.35-15.06c0-2.68-.08-4.3.75-5.14a2.71,2.71,0,0,1,2-.64,9.3,9.3,0,0,1,6.73,2.91c-1.21-3.34-2.12-5-2.93-5.35a1.59,1.59,0,0,0-1.33.19,3.84,3.84,0,0,1-1.49.38l-1,0a13.38,13.38,0,0,0-6.86,1.18l-.12.06,0-.12c-1.29-2.78-1.53-3.3-1.81-3.92-.14-.31-.29-.65-.6-1.32l-.06-.13.13,0a43.75,43.75,0,0,1,10.59-1.79l.82,0c8.36,0,10.75,7,13.06,13.75.3.87.6,1.76.92,2.63,6.15,9,2.4,20.5-.9,30.62-.9,2.77-1.75,5.39-2.38,7.85l0,.1h-7.26l0-.15c.26-1.61.91-4.07,2.18-8.8C129.66,65.83,127.34,67,125.24,67Zm1-47.31a2.5,2.5,0,0,0-1.88.57c-.75.76-.72,2.34-.67,5A59.11,59.11,0,0,1,122.3,40.3c-2.61,11.78-2.89,22.77-.64,25.56a1.63,1.63,0,0,0,1.3.7,11.14,11.14,0,0,1,1.17.07c2.46.25,4.79.48,10.08-10.48l.23.08-.11.41c-1.33,5-2.08,7.76-2.38,9.47h6.77c.63-2.45,1.47-5,2.36-7.77,3.29-10.08,7-21.5.92-30.42v0c-.32-.88-.63-1.78-.92-2.65-2.47-7.21-4.8-14-13.63-13.56a43.42,43.42,0,0,0-10.39,1.73l.54,1.2c.28.6.51,1.12,1.75,3.8a13.8,13.8,0,0,1,6.86-1.15l1,0a3.56,3.56,0,0,0,1.39-.36,1.81,1.81,0,0,1,1.53-.19c.94.41,1.88,2.15,3.24,6l.19.52-.39-.39C130.84,20.58,128.83,19.65,126.21,19.65Zm5,23a1.7,1.7,0,0,1-1.3-.55,4.51,4.51,0,0,1-.64-3.17c.18-1.68.63-3.32,4-3.32A9.91,9.91,0,0,1,138.44,37l0,0,0,0a7.34,7.34,0,0,1,.37,1.55v.08l-.07,0c-.41.24-.93.59-1.53,1C135.51,41,133.08,42.63,131.26,42.63Zm2-6.79c-3.13,0-3.54,1.46-3.71,3.1a4.27,4.27,0,0,0,.58,3,1.41,1.41,0,0,0,1.11.47c1.74,0,4.13-1.64,5.88-2.83.57-.39,1.07-.73,1.48-1a8.19,8.19,0,0,0-.35-1.38A9.69,9.69,0,0,0,133.28,35.84Z"/><path d="M146.81,66.36h-7.27l.25-1c3.69-14.18,6.12-23.55,3-37.71-.45-2.07-1-3.8-1.53-5.47-1-3.3-1.94-6.15-1.74-10.34v-.12h7.26v2.66c1.46-2,3.71-3,6.68-3a18.26,18.26,0,0,1,4.68.59l.1,0v.1c0,.82-.05,1.39-.09,1.94a15.28,15.28,0,0,0,.1,3.92l0,.19-.18-.06a12.35,12.35,0,0,0-4.22-.6,8,8,0,0,1-1.58-.24c-1.13-.23-2.31-.48-3.05.22-.9.86-1.06,3-.49,6.63,5.34,14.7,3.19,22.81-.39,36.24-.49,1.87-1,3.8-1.54,5.88Zm-6.95-.25h6.76c.52-2,1-4,1.51-5.79,3.56-13.39,5.71-21.47.39-36.12-.6-3.77-.42-5.94.56-6.87s2.07-.53,3.27-.28a7.68,7.68,0,0,0,1.53.23,12.73,12.73,0,0,1,4.11.55,15.3,15.3,0,0,1-.08-3.77c0-.52.08-1.06.09-1.82a17.47,17.47,0,0,0-4.53-.56c-3.08,0-5.28,1-6.7,3.16l-.23.34V12h-6.77c-.18,4.08.71,6.89,1.73,10.14.53,1.68,1.08,3.41,1.54,5.49,3.13,14.21.69,23.61-3,37.82Z"/><path d="M170.36,66.81H170c-5-.19-5.35-2.17-5.81-5.18a22.77,22.77,0,0,0-.68-3.34c-1.64-5.45-1.06-9.95-.51-14.3.67-5.2,1.3-10.12-1.56-16.51-2.06-4.6-2.13-9-.19-12,1.73-2.67,4.86-4.09,9.05-4.09h0c9.76,0,12.94,9.28,15.75,17.47.48,1.39.93,2.7,1.4,4l.07.17H171c2.89,6.66,3.85,6.5,5.17,6.31a4.52,4.52,0,0,1,.85-.09c.46,0,.89,0,1.3.06,1.81.12,2.9.19,3.17-2.54v-.11h7.13l0,.14a67.19,67.19,0,0,1-5.32,18.43C179.67,62.81,175.23,66.81,170.36,66.81Zm0-55.13h0c-4.1,0-7.16,1.38-8.84,4-1.89,2.93-1.82,7.2.2,11.72,2.9,6.45,2.23,11.63,1.59,16.64-.55,4.33-1.12,8.8.5,14.2a23.35,23.35,0,0,1,.69,3.38c.45,3,.72,4.78,5.57,5h.32c6,0,10.18-6.19,12.64-11.44a67,67,0,0,0,5.28-18.22h-6.61c-.32,2.86-1.62,2.77-3.42,2.65-.41,0-.83-.06-1.29-.06a5.17,5.17,0,0,0-.81.08c-1.44.22-2.49.39-5.51-6.62l-.08-.18h16.65c-.46-1.2-.89-2.46-1.34-3.79C183.09,20.87,179.94,11.68,170.36,11.68Zm4.68,7h-9.16v-.13a2.51,2.51,0,0,1,.64-2,3.2,3.2,0,0,1,2.53-.28,9.24,9.24,0,0,0,1.26.12,7,7,0,0,0,1.17-.13c1.24-.21,2.23-.38,3.47,2.19Zm-8.91-.25h8.5c-1.11-2.21-1.95-2.07-3.11-1.87a7.12,7.12,0,0,1-1.21.13,9.52,9.52,0,0,1-1.29-.12c-.93-.13-1.8-.24-2.33.22A2.19,2.19,0,0,0,166.13,18.39Z"/><path d="M195.38,66.81H195c-3-.12-5.29-1.13-6.73-3-3.59-4.66-1.51-14,0-20.73.41-1.84.8-3.58,1-5V38h7.22l.08.33c.43,1.85.65,2.78,4.62,2.78s4.94-1.72,4.95-2.33c0-.78-.84-1.34-5.26-1.87-3.68-.44-8.15-3.51-12.27-8.43-3.45-4.12-6-8.77-6-11.07,0-5.25,5.78-6,12-6,6.89,0,11.15,1,11.15,6v.12h-7.27v-.12c0-.81-1.13-.81-4.17-.81-3.34,0-4.46,0-4.46.55s.77.69,5.1.91c4.69.25,9.34,3,13.1,7.77,3.17,4,5.23,8.92,5.24,12.51,0,5.3-3.36,18.49-9.9,24.8A11.52,11.52,0,0,1,195.38,66.81Zm-5.87-28.57c-.23,1.4-.61,3.1-1,4.9-1.51,6.73-3.57,16-.05,20.52,1.39,1.81,3.59,2.78,6.54,2.9A11.2,11.2,0,0,0,203.31,63c6.48-6.26,9.84-19.36,9.82-24.62,0-3.54-2-8.39-5.19-12.36-2.15-2.72-6.69-7.34-12.91-7.67-4.5-.23-5.34-.3-5.34-1.16s1-.8,4.71-.8c3.09,0,4.32,0,4.42.93h6.77c-.07-4.7-4.23-5.65-10.9-5.65-6.11,0-11.77.69-11.77,5.72,0,4.7,10,18.29,18,19.25,4.17.5,5.5,1,5.48,2.13,0,.71-1,2.57-5.2,2.57s-4.43-1.12-4.86-3l0-.13Z"/><path d="M214.35,66.36h-7.27l0-.15c.36-2.18,1.92-7.91,3.44-13.45s3-11,3.43-13.42l0-.1h7.27l0,.15c-.43,2.39-2,8-3.45,13.43s-3.07,11.26-3.43,13.43Zm-7-.25h6.77c.38-2.26,1.92-7.9,3.41-13.35S220.5,42,221,39.49H214.2c-.45,2.45-2,8-3.42,13.33S207.77,63.83,207.37,66.11Z"/></g><g class="cls-7"><path d="M34,67.36H25.21l0-.15C25.62,65,26,63,26.37,61c1.94-10.44,3.26-17.52.42-27.09,1.23,8.43-2.39,17.44-5.66,25.6-1.09,2.73-2.13,5.31-3,7.78l0,.09H9.4l0-.15C14,42.05,11,34.7,2.07,12.89L2,12.72h8.17l0,.08c1.38,3.77,4.16,10.18,8.36,19.87L20.42,37c-.28-1.47-.54-2.87-.8-4.21C17.78,23,16.56,16.61,17.89,12.81l0-.09H25.4l0,.09c1.32,3.77,4.05,10.17,8.19,19.87L35.45,37c-.26-1.46-.52-2.86-.76-4.2-1.79-9.73-3-16.16-1.57-20l0-.08h8.19l-.1.19c-2.41,4.49-1.9,6.92-1.2,10.28a38.6,38.6,0,0,1,.83,5.42c1,14.3-1.95,24-6.88,38.66Zm-8.45-.25h8.27c4.9-14.58,7.85-24.26,6.84-38.48a38.1,38.1,0,0,0-.83-5.39c-.7-3.37-1.2-5.81,1.13-10.27h-7.6c-1.33,3.76-.15,10.14,1.61,19.75.31,1.67.63,3.43,1,5.3l.19,1.08-.43-1c-.79-1.88-1.55-3.64-2.26-5.31-4.11-9.63-6.84-16-8.17-19.81H18.09C16.83,16.73,18,23.1,19.87,32.71q.48,2.51,1,5.3l.2,1.09-.44-1-2.3-5.32c-4.17-9.63-6.94-16-8.34-19.8H2.37C11.26,34.66,14.26,42.06,9.7,67.11H18c.83-2.46,1.85-5,2.94-7.71,3.53-8.81,7.45-18.59,5.24-27.54-.57-1.64-1.26-3.36-2.08-5.18l.22-.11a20.47,20.47,0,0,1,2.1,5.22c3.69,10.68,2.32,18,.24,29.23C26.26,63,25.89,64.94,25.51,67.11Z"/><path d="M65.77,67.36H58.5l0-.16c.5-2,1.25-4.3,2.05-6.78,2.69-8.32,6-18.68,3.4-25.6-4.46-12.56-6.53-16-9.62-16a3.47,3.47,0,0,0-2.77.95c-.86,1-1.11,2.73-.77,5.37C56.17,39.84,54,48,50.44,61.38c-.5,1.87-1,3.8-1.54,5.88l0,.1H41.6l0-.16c5.59-21.53,5-24.18,2.76-34-.81-3.54-1.8-7.94-2.81-14.46a40.1,40.1,0,0,1-.13-7.92c.06-1.32.12-2.58.12-3.79V6.88h7.27V15a14.47,14.47,0,0,1,8.36-2.52c1.17,0,1.78-1.33,2.27-2.4.38-.83.68-1.5,1.18-1.5h0c.9.05,2.16,2.25,5.9,13.37C73,39.48,71,47.17,66.63,64c-.27,1-.55,2.13-.83,3.25Zm-6.95-.25h6.76L66.39,64c4.34-16.79,6.32-24.46,0-42h0c-3.14-9.33-4.78-13.15-5.67-13.2h0c-.35,0-.65.66-1,1.36-.51,1.13-1.16,2.54-2.49,2.54a14.25,14.25,0,0,0-8.41,2.61l-.2.14V7.12H41.83c0,1.19-.06,2.4-.12,3.68a40.35,40.35,0,0,0,.12,7.87c1,6.51,2,10.91,2.81,14.44,2.24,9.88,2.84,12.55-2.72,34h6.76c.52-2,1-4,1.52-5.79,3.56-13.39,5.71-21.47.39-36.12-.36-2.74-.08-4.56.82-5.59a3.75,3.75,0,0,1,3-1c3.23,0,5.35,3.47,9.86,16.16,2.66,7-.7,17.41-3.4,25.77C60.05,62.9,59.32,65.18,58.82,67.11Z"/><path d="M78,67.81c-5.1,0-5.46-2.09-6-5.22a27.11,27.11,0,0,0-.73-3.3c-1.64-5.36-1.06-9.91-.5-14.31.67-5.25,1.31-10.22-1.5-16.5h0c-2-4.58-2.11-8.93-.18-11.92,1.73-2.68,4.85-4.11,9-4.13h.09c7.89,0,10.61,6.06,13.23,11.93.6,1.35,1.23,2.74,1.9,4,3.37,6.38,1.18,22.3-4.34,31.55-3.07,5.13-6.83,7.86-10.87,7.89ZM69.5,28.38C72.33,34.73,71.66,40,71,45c-.56,4.37-1.14,8.89.49,14.2a26,26,0,0,1,.73,3.32c.54,3.12.87,5,5.75,5h.14c4,0,7.65-2.72,10.66-7.77,5.49-9.18,7.68-25,4.34-31.3-.68-1.28-1.3-2.68-1.91-4-2.59-5.79-5.27-11.78-13-11.78h-.08c-4.11,0-7.16,1.41-8.84,4-1.88,2.93-1.81,7.19.2,11.69ZM84,40c-2.39,0-3.74-.69-7.74-11.51-2.16-5.86-2.74-8.8-1.93-9.84.51-.65,1.42-.55,2.48-.44.43,0,.87.09,1.3.09a8.47,8.47,0,0,0,1.22-.1c2.18-.27,3.08-.38,7,10.2h0c2.35,6.38,3,9.63,2.1,10.87-.54.77-1.55.75-2.71.73H84Zm1.11-.26h.6c1.1,0,2,0,2.51-.62.81-1.15.16-4.43-2.13-10.64h0c-3.84-10.4-4.68-10.29-6.73-10a8.79,8.79,0,0,1-1.25.1c-.45,0-.89-.05-1.32-.09-1-.11-1.84-.2-2.26.34-.74.95-.13,3.92,2,9.6,4.21,11.42,5.4,11.39,8,11.35Z"/><path d="M102.74,67.81h-.17c-5.33-.11-5.65-2.13-6.15-5.19a24.49,24.49,0,0,0-.71-3.33c-1.64-5.36-1.06-9.91-.5-14.31.67-5.25,1.31-10.22-1.5-16.5-2.18-4.88-2.25-9.4-.2-12.42,1.75-2.56,4.87-3.81,9.07-3.63h.25a6,6,0,0,0,4-1.8c.75-.63,1.41-1.18,2.17-1,1.26.34,2.75,2.56,6.6,12.89l.06.17h-7.42l0-.07c-2-4.54-2.85-4.43-4.39-4.23a9.13,9.13,0,0,1-1.28.11c-.45,0-.89-.05-1.32-.09-1-.11-1.84-.2-2.26.34-.74.95-.13,3.92,2,9.6,4.21,11.43,5.42,11.39,8,11.35.48,0,1,0,1.53,0,1,0,1.85.09,2.29-.45s.46-2.17-.23-4.74l0-.15H120l0,.09c1.63,5.83-1.59,19.69-7.66,27.53C109.39,65.81,106.08,67.81,102.74,67.81Zm-1-55.15c-3.7,0-6.48,1.22-8.06,3.54-2,2.94-1.93,7.38.22,12.18C96.77,34.73,96.1,40,95.46,45c-.56,4.37-1.14,8.89.49,14.2a23.53,23.53,0,0,1,.72,3.36c.49,3,.79,4.87,5.91,5h.16c3.26,0,6.5-2,9.38-5.68,6-7.75,9.2-21.39,7.64-27.22h-6.9c.68,2.59.72,4.07.14,4.79s-1.45.6-2.5.55c-.5,0-1,0-1.52,0-2.73.05-4,.08-8.26-11.51-2.16-5.86-2.74-8.8-1.93-9.84.51-.65,1.42-.55,2.48-.44.43,0,.87.09,1.3.09a8.81,8.81,0,0,0,1.25-.11c1.65-.22,2.55-.33,4.61,4.3h6.9c-3.28-8.79-5-12.2-6.37-12.57-.63-.16-1.21.32-1.94.94a6.29,6.29,0,0,1-4.19,1.85h-.26Z"/><path d="M124.24,68a10.92,10.92,0,0,1-1.14-.08,10.57,10.57,0,0,0-1.14-.07,1.89,1.89,0,0,1-1.5-.79c-2.6-3.24-1.63-15.7.6-25.78a58.91,58.91,0,0,0,1.35-15.06c0-2.68-.08-4.3.75-5.14a2.71,2.71,0,0,1,2-.64,9.3,9.3,0,0,1,6.73,2.91c-1.21-3.34-2.12-5-2.93-5.35a1.59,1.59,0,0,0-1.33.19,3.84,3.84,0,0,1-1.49.38l-1,0a13.49,13.49,0,0,0-6.86,1.18l-.12.06,0-.12c-1.29-2.78-1.53-3.3-1.81-3.92-.14-.31-.29-.65-.6-1.32l-.06-.13.13,0a43.75,43.75,0,0,1,10.59-1.79l.82,0c8.36,0,10.75,7,13.06,13.75.3.87.6,1.76.92,2.63,6.15,9,2.4,20.5-.9,30.62-.9,2.77-1.75,5.39-2.38,7.85l0,.1h-7.26l0-.15c.26-1.61.91-4.07,2.18-8.8C128.66,66.83,126.34,68,124.24,68Zm1-47.31a2.5,2.5,0,0,0-1.88.57c-.75.76-.72,2.34-.67,5A59.11,59.11,0,0,1,121.3,41.3c-2.61,11.78-2.89,22.77-.64,25.56a1.63,1.63,0,0,0,1.3.7,11.14,11.14,0,0,1,1.17.07c2.46.25,4.79.48,10.08-10.48l.23.08-.11.41c-1.33,5-2.08,7.76-2.38,9.47h6.77c.63-2.45,1.47-5,2.36-7.77,3.29-10.08,7-21.5.92-30.42v0c-.32-.88-.63-1.78-.92-2.65-2.47-7.21-4.81-14-13.63-13.56a43.42,43.42,0,0,0-10.39,1.73l.54,1.2c.28.6.51,1.12,1.75,3.8a13.79,13.79,0,0,1,6.86-1.15l1,0a3.56,3.56,0,0,0,1.39-.36,1.81,1.81,0,0,1,1.53-.19c.94.41,1.88,2.15,3.24,6l.19.52-.39-.39C129.84,21.58,127.83,20.65,125.21,20.65Zm5,23a1.7,1.7,0,0,1-1.3-.55,4.51,4.51,0,0,1-.64-3.17c.18-1.68.63-3.32,4-3.32A9.91,9.91,0,0,1,137.44,38l0,0,0,0a7.34,7.34,0,0,1,.37,1.55v.08l-.07,0c-.41.24-.93.59-1.53,1C134.51,42,132.08,43.63,130.26,43.63Zm2-6.79c-3.13,0-3.54,1.46-3.71,3.1a4.27,4.27,0,0,0,.58,3,1.41,1.41,0,0,0,1.11.47c1.74,0,4.13-1.64,5.88-2.83.57-.39,1.07-.73,1.48-1a8.19,8.19,0,0,0-.35-1.38A9.69,9.69,0,0,0,132.28,36.84Z"/><path d="M145.81,67.36h-7.27l.25-1c3.69-14.18,6.12-23.55,3-37.71-.45-2.07-1-3.8-1.53-5.47-1-3.3-1.94-6.15-1.74-10.34v-.12h7.26v2.66c1.46-2,3.71-3,6.68-3a18.26,18.26,0,0,1,4.68.59l.1,0v.1c0,.82-.05,1.39-.09,1.94a15.28,15.28,0,0,0,.1,3.92l0,.19-.18-.06a12.35,12.35,0,0,0-4.22-.6,8,8,0,0,1-1.58-.24c-1.13-.23-2.31-.48-3.05.22-.9.86-1.06,3-.49,6.63,5.34,14.7,3.19,22.81-.39,36.24-.49,1.87-1,3.8-1.54,5.88Zm-6.95-.25h6.76c.52-2,1-4,1.51-5.79,3.56-13.39,5.71-21.47.39-36.12-.6-3.77-.42-5.94.56-6.87s2.07-.53,3.27-.28a7.68,7.68,0,0,0,1.53.23,12.73,12.73,0,0,1,4.11.55,15.3,15.3,0,0,1-.08-3.77c0-.52.08-1.06.09-1.82a17.47,17.47,0,0,0-4.53-.56c-3.08,0-5.28,1-6.7,3.16l-.23.34V13h-6.77c-.18,4.08.71,6.89,1.73,10.14.53,1.68,1.08,3.41,1.54,5.49,3.13,14.21.69,23.61-3,37.82Z"/><path d="M169.36,67.81H169c-5-.19-5.35-2.17-5.81-5.18a22.77,22.77,0,0,0-.68-3.34c-1.64-5.45-1.06-9.95-.51-14.3.67-5.2,1.3-10.12-1.56-16.51-2.06-4.6-2.13-9-.19-12,1.73-2.67,4.86-4.09,9.05-4.09h0c9.76,0,12.94,9.28,15.75,17.47.48,1.39.93,2.7,1.4,4l.07.17H170c2.89,6.66,3.85,6.51,5.17,6.31a4.52,4.52,0,0,1,.85-.09c.46,0,.89,0,1.3.06,1.81.12,2.9.19,3.17-2.54v-.11h7.13l0,.14a67.19,67.19,0,0,1-5.32,18.43C178.67,63.81,174.23,67.81,169.36,67.81Zm0-55.13h0c-4.1,0-7.16,1.38-8.84,4-1.89,2.93-1.82,7.2.2,11.72,2.9,6.45,2.23,11.63,1.59,16.64-.55,4.33-1.12,8.8.5,14.2a23.35,23.35,0,0,1,.69,3.38c.45,3,.72,4.78,5.57,5h.32c6,0,10.18-6.19,12.64-11.44a67,67,0,0,0,5.28-18.22h-6.61c-.32,2.86-1.62,2.76-3.42,2.65-.41,0-.83-.06-1.29-.06a5.17,5.17,0,0,0-.81.08c-1.44.22-2.49.39-5.51-6.62l-.08-.18h16.65c-.46-1.2-.89-2.46-1.34-3.79C182.09,21.87,178.94,12.68,169.36,12.68Zm4.68,7h-9.16v-.13a2.51,2.51,0,0,1,.64-2,3.2,3.2,0,0,1,2.53-.28,9.24,9.24,0,0,0,1.26.12,7,7,0,0,0,1.17-.13c1.24-.21,2.23-.38,3.47,2.19Zm-8.91-.25h8.5c-1.11-2.21-1.95-2.07-3.11-1.87a7.12,7.12,0,0,1-1.21.13,9.52,9.52,0,0,1-1.29-.12c-.93-.13-1.8-.25-2.33.22A2.19,2.19,0,0,0,165.13,19.39Z"/><path d="M194.38,67.81H194c-3-.12-5.29-1.13-6.73-3-3.59-4.66-1.51-13.95,0-20.73.41-1.84.8-3.58,1-5V39h7.22l.08.33c.43,1.85.65,2.78,4.62,2.78s4.94-1.72,4.95-2.33c0-.78-.84-1.34-5.26-1.87-3.68-.44-8.15-3.51-12.27-8.43-3.45-4.12-6-8.77-6-11.07,0-5.25,5.78-6,12-6,6.89,0,11.15,1,11.15,6v.12h-7.27v-.12c0-.81-1.13-.81-4.17-.81-3.34,0-4.46,0-4.46.55s.77.69,5.1.91c4.69.25,9.34,3,13.1,7.77,3.17,4,5.23,8.92,5.24,12.51,0,5.3-3.36,18.49-9.9,24.8A11.52,11.52,0,0,1,194.38,67.81Zm-5.87-28.57c-.23,1.4-.61,3.1-1,4.9-1.51,6.73-3.57,16-.05,20.52,1.39,1.81,3.59,2.78,6.54,2.9A11.23,11.23,0,0,0,202.31,64c6.48-6.26,9.84-19.36,9.82-24.62,0-3.54-2-8.39-5.19-12.36-2.15-2.72-6.69-7.34-12.91-7.67-4.5-.23-5.34-.3-5.34-1.16s1-.8,4.71-.8c3.09,0,4.32,0,4.42.93h6.77c-.07-4.7-4.23-5.65-10.9-5.65-6.11,0-11.77.69-11.77,5.72,0,4.7,10,18.29,18,19.25,4.17.5,5.5,1,5.48,2.13,0,.71-1,2.57-5.2,2.57s-4.43-1.12-4.86-3l0-.13Z"/><path d="M213.35,67.36h-7.27l0-.15c.36-2.18,1.92-7.91,3.44-13.45s3-11,3.43-13.42l0-.1h7.27l0,.15c-.43,2.39-2,8-3.45,13.43s-3.07,11.26-3.43,13.43Zm-7-.25h6.77c.38-2.26,1.92-7.9,3.41-13.35S219.5,43,220,40.49H213.2c-.45,2.45-2,8-3.42,13.33S206.77,64.83,206.37,67.11Z"/></g><g class="cls-8"><path d="M33,68.36H24.21l0-.15C24.62,66,25,64,25.37,62c1.94-10.44,3.26-17.52.42-27.09,1.23,8.43-2.39,17.44-5.66,25.6-1.09,2.73-2.13,5.31-3,7.78l0,.09H8.4l0-.15C13,43.05,10,35.7,1.07,13.89L1,13.72H9.17l0,.08c1.38,3.77,4.16,10.18,8.36,19.87L19.42,38c-.28-1.47-.54-2.87-.8-4.21C16.78,24,15.56,17.61,16.89,13.81l0-.09H24.4l0,.09c1.32,3.77,4.05,10.17,8.19,19.87L34.45,38c-.26-1.46-.52-2.86-.76-4.2-1.79-9.73-3-16.16-1.57-20l0-.08h8.19l-.1.19c-2.41,4.49-1.9,6.92-1.2,10.28a38.6,38.6,0,0,1,.83,5.42c1,14.3-1.95,24-6.88,38.66Zm-8.45-.25h8.27c4.9-14.58,7.85-24.26,6.84-38.48a38.1,38.1,0,0,0-.83-5.39c-.7-3.37-1.2-5.81,1.13-10.27h-7.6c-1.33,3.76-.15,10.14,1.61,19.75.31,1.67.63,3.43,1,5.3l.19,1.08-.43-1c-.79-1.88-1.55-3.64-2.26-5.31-4.11-9.63-6.84-16-8.17-19.81H17.09C15.83,17.73,17,24.1,18.87,33.71q.48,2.51,1,5.3l.2,1.09-.44-1-2.3-5.32C13.16,24.14,10.39,17.76,9,14H1.37C10.26,35.66,13.26,43.06,8.7,68.11H17c.83-2.46,1.85-5,2.94-7.71,3.53-8.81,7.45-18.59,5.24-27.54-.57-1.64-1.26-3.36-2.08-5.18l.22-.11a20.47,20.47,0,0,1,2.1,5.22c3.69,10.68,2.32,18,.24,29.23C25.26,64,24.89,65.94,24.51,68.11Z"/><path d="M64.77,68.36H57.5l0-.16c.5-2,1.25-4.3,2.05-6.78,2.69-8.32,6-18.68,3.4-25.6-4.46-12.56-6.53-16-9.62-16a3.47,3.47,0,0,0-2.77.95c-.86,1-1.11,2.73-.77,5.37C55.17,40.84,53,49,49.44,62.38c-.5,1.87-1,3.8-1.54,5.88l0,.1H40.6l0-.16c5.59-21.53,5-24.18,2.76-34-.81-3.54-1.8-7.94-2.81-14.46a40.1,40.1,0,0,1-.13-7.92c.06-1.32.12-2.58.12-3.79V7.88h7.27V16a14.47,14.47,0,0,1,8.36-2.52c1.17,0,1.78-1.33,2.27-2.4.38-.83.68-1.5,1.18-1.5h0c.9.05,2.16,2.25,5.9,13.37C72,40.48,70,48.17,65.63,65c-.27,1-.55,2.13-.83,3.25Zm-6.95-.25h6.76L65.39,65c4.34-16.79,6.32-24.46,0-42h0c-3.14-9.33-4.78-13.15-5.67-13.2h0c-.35,0-.65.66-1,1.36-.51,1.13-1.16,2.54-2.49,2.54a14.25,14.25,0,0,0-8.41,2.61l-.2.14V8.12H40.83c0,1.19-.06,2.4-.12,3.68a40.35,40.35,0,0,0,.12,7.87c1,6.51,2,10.91,2.81,14.44,2.24,9.88,2.84,12.55-2.72,34h6.76c.52-2,1-4,1.52-5.79,3.56-13.39,5.71-21.47.39-36.12-.36-2.74-.08-4.56.82-5.59a3.75,3.75,0,0,1,3-1c3.23,0,5.35,3.47,9.86,16.16,2.66,7-.7,17.41-3.4,25.77C59.05,63.9,58.32,66.18,57.82,68.11Z"/><path d="M77,68.81c-5.1,0-5.46-2.09-6-5.22a27.11,27.11,0,0,0-.73-3.3c-1.64-5.36-1.06-9.91-.5-14.31.67-5.25,1.31-10.22-1.5-16.5h0c-2-4.58-2.11-8.93-.18-11.92,1.73-2.68,4.85-4.11,9-4.13h.09c7.89,0,10.61,6.06,13.23,11.93.6,1.35,1.23,2.74,1.9,4,3.37,6.38,1.18,22.3-4.34,31.55-3.07,5.13-6.83,7.86-10.87,7.89ZM68.5,29.38C71.33,35.73,70.66,41,70,46c-.56,4.37-1.14,8.89.49,14.2a26,26,0,0,1,.73,3.32c.54,3.12.87,5,5.75,5h.14c4,0,7.65-2.72,10.66-7.77,5.49-9.18,7.68-25,4.34-31.3-.68-1.28-1.3-2.68-1.91-4-2.59-5.79-5.27-11.78-13-11.78h-.08c-4.11,0-7.16,1.41-8.84,4-1.88,2.93-1.81,7.19.2,11.69ZM83,41c-2.39,0-3.74-.69-7.74-11.51-2.16-5.86-2.74-8.8-1.93-9.84.51-.65,1.42-.55,2.48-.44.43,0,.87.09,1.3.09a8.47,8.47,0,0,0,1.22-.1c2.18-.27,3.08-.38,7,10.2h0c2.35,6.38,3,9.63,2.1,10.87-.54.77-1.55.75-2.71.73H83Zm1.11-.26h.6c1.1,0,2,0,2.51-.62.81-1.15.16-4.43-2.13-10.64h0c-3.84-10.4-4.68-10.29-6.73-10a8.79,8.79,0,0,1-1.25.1c-.45,0-.89-.05-1.32-.09-1-.11-1.84-.19-2.26.34-.74.95-.13,3.92,2,9.6,4.21,11.42,5.4,11.39,8,11.35Z"/><path d="M101.74,68.81h-.17c-5.33-.11-5.65-2.13-6.15-5.19a24.49,24.49,0,0,0-.71-3.33c-1.64-5.36-1.06-9.91-.5-14.31.67-5.25,1.31-10.22-1.5-16.5-2.18-4.88-2.25-9.4-.2-12.42,1.75-2.56,4.87-3.81,9.07-3.63h.25a6,6,0,0,0,4-1.8c.75-.63,1.41-1.18,2.17-1,1.26.34,2.75,2.56,6.6,12.89l.06.17h-7.42l0-.07c-2-4.54-2.85-4.43-4.39-4.23a9.13,9.13,0,0,1-1.28.11c-.45,0-.89-.05-1.32-.09-1-.11-1.84-.19-2.26.34-.74.95-.13,3.92,2,9.6,4.21,11.42,5.42,11.39,8,11.35.48,0,1,0,1.53,0,1,0,1.85.09,2.29-.45s.46-2.17-.23-4.74l0-.15H119l0,.09c1.63,5.83-1.59,19.69-7.66,27.53C108.39,66.81,105.08,68.81,101.74,68.81Zm-1-55.15c-3.7,0-6.48,1.22-8.06,3.54-2,2.94-1.93,7.38.22,12.18C95.77,35.73,95.1,41,94.46,46c-.56,4.37-1.14,8.89.49,14.2a23.53,23.53,0,0,1,.72,3.36c.49,3,.79,4.87,5.91,5h.16c3.26,0,6.5-2,9.38-5.68,6-7.75,9.2-21.39,7.64-27.22h-6.9c.68,2.59.72,4.07.14,4.79s-1.45.6-2.5.55c-.5,0-1,0-1.52,0-2.73,0-4,.08-8.26-11.51-2.16-5.86-2.74-8.8-1.93-9.84.51-.65,1.42-.55,2.48-.44.43,0,.87.09,1.3.09a8.81,8.81,0,0,0,1.25-.11c1.65-.22,2.55-.33,4.61,4.3h6.9c-3.28-8.79-5-12.2-6.37-12.57-.62-.16-1.21.32-1.94.94a6.29,6.29,0,0,1-4.19,1.85h-.26Z"/><path d="M123.24,69a10.92,10.92,0,0,1-1.14-.08,10.57,10.57,0,0,0-1.14-.07,1.89,1.89,0,0,1-1.5-.79c-2.6-3.24-1.63-15.7.6-25.78a58.91,58.91,0,0,0,1.35-15.06c0-2.68-.08-4.3.75-5.14a2.71,2.71,0,0,1,2-.64,9.3,9.3,0,0,1,6.73,2.91c-1.21-3.34-2.12-5-2.93-5.35a1.59,1.59,0,0,0-1.33.19,3.84,3.84,0,0,1-1.49.38l-1,0a13.38,13.38,0,0,0-6.86,1.18l-.12.06,0-.12c-1.29-2.78-1.53-3.3-1.81-3.92-.14-.31-.29-.65-.6-1.32l-.06-.13.13,0a43.75,43.75,0,0,1,10.59-1.79l.82,0c8.36,0,10.75,7,13.06,13.75.3.87.6,1.76.92,2.63,6.15,9,2.4,20.5-.9,30.62-.9,2.77-1.75,5.39-2.38,7.85l0,.1h-7.26l0-.15c.26-1.61.91-4.07,2.18-8.8C127.66,67.83,125.34,69,123.24,69Zm1-47.31a2.5,2.5,0,0,0-1.88.57c-.75.76-.72,2.34-.67,5A59.11,59.11,0,0,1,120.3,42.3c-2.61,11.78-2.89,22.77-.64,25.56a1.63,1.63,0,0,0,1.3.7,11.14,11.14,0,0,1,1.17.07c2.46.25,4.79.48,10.08-10.48l.23.08-.11.41c-1.33,5-2.08,7.76-2.38,9.47h6.77c.63-2.45,1.47-5,2.36-7.77,3.29-10.08,7-21.5.92-30.42v0c-.32-.88-.63-1.78-.92-2.65-2.47-7.21-4.79-14-13.63-13.56a43.42,43.42,0,0,0-10.39,1.73l.54,1.2c.28.6.51,1.12,1.75,3.8a13.8,13.8,0,0,1,6.86-1.15l1,0a3.56,3.56,0,0,0,1.39-.36,1.81,1.81,0,0,1,1.53-.19c.94.41,1.88,2.15,3.24,6l.19.52-.39-.39C128.84,22.58,126.83,21.65,124.21,21.65Zm5,23a1.7,1.7,0,0,1-1.3-.55,4.51,4.51,0,0,1-.64-3.17c.18-1.68.63-3.32,4-3.32A9.91,9.91,0,0,1,136.44,39l0,0,0,0a7.34,7.34,0,0,1,.37,1.55v.08l-.07,0c-.41.24-.93.59-1.53,1C133.51,43,131.08,44.63,129.26,44.63Zm2-6.79c-3.13,0-3.54,1.46-3.71,3.1a4.27,4.27,0,0,0,.58,3,1.41,1.41,0,0,0,1.11.47c1.74,0,4.13-1.64,5.88-2.83.57-.39,1.07-.73,1.48-1a8.19,8.19,0,0,0-.35-1.38A9.69,9.69,0,0,0,131.28,37.84Z"/><path d="M144.81,68.36h-7.27l.25-1c3.69-14.18,6.12-23.55,3-37.71-.45-2.07-1-3.8-1.53-5.47-1-3.3-1.94-6.15-1.74-10.34v-.12h7.26v2.66c1.46-2,3.71-2.95,6.68-2.95a18.26,18.26,0,0,1,4.68.59l.1,0v.1c0,.82-.05,1.39-.09,1.94a15.28,15.28,0,0,0,.1,3.92l0,.19-.18-.06a12.35,12.35,0,0,0-4.22-.6,8,8,0,0,1-1.58-.24c-1.13-.23-2.31-.48-3.05.22-.9.86-1.06,3-.49,6.63,5.34,14.7,3.19,22.81-.39,36.24-.49,1.87-1,3.8-1.54,5.88Zm-6.95-.25h6.76c.52-2,1-4,1.51-5.79,3.56-13.39,5.71-21.47.39-36.12-.6-3.77-.42-5.94.56-6.87s2.07-.53,3.27-.28a7.68,7.68,0,0,0,1.53.23,12.73,12.73,0,0,1,4.11.55,15.3,15.3,0,0,1-.08-3.77c0-.52.08-1.06.09-1.82a17.47,17.47,0,0,0-4.53-.56c-3.08,0-5.28,1-6.7,3.16l-.23.34V14h-6.77c-.18,4.08.71,6.89,1.73,10.14.53,1.68,1.08,3.41,1.54,5.49,3.13,14.21.69,23.61-3,37.82Z"/><path d="M168.36,68.81H168c-5-.19-5.35-2.17-5.81-5.18a22.77,22.77,0,0,0-.68-3.34c-1.64-5.45-1.06-9.95-.51-14.3.67-5.2,1.3-10.12-1.56-16.51-2.06-4.6-2.13-9-.19-12,1.73-2.67,4.86-4.09,9.05-4.09h0c9.76,0,12.94,9.28,15.75,17.47.48,1.39.93,2.7,1.4,4l.07.17H169c2.89,6.66,3.85,6.5,5.17,6.31a4.52,4.52,0,0,1,.85-.09c.46,0,.89,0,1.3.06,1.82.12,2.9.19,3.17-2.54v-.11h7.13l0,.14a67.19,67.19,0,0,1-5.32,18.43C177.67,64.81,173.23,68.81,168.36,68.81Zm0-55.13h0c-4.1,0-7.16,1.38-8.84,4-1.89,2.93-1.82,7.2.2,11.72,2.9,6.45,2.23,11.63,1.59,16.64-.55,4.33-1.12,8.8.5,14.2a23.35,23.35,0,0,1,.69,3.38c.45,3,.72,4.78,5.57,5h.32c6,0,10.18-6.19,12.64-11.44a67,67,0,0,0,5.28-18.22h-6.61c-.32,2.85-1.62,2.76-3.42,2.65-.41,0-.83-.06-1.29-.06a5.17,5.17,0,0,0-.81.08c-1.44.22-2.49.39-5.51-6.62l-.08-.18h16.65c-.46-1.2-.89-2.46-1.34-3.79C181.09,22.87,177.94,13.68,168.36,13.68Zm4.68,7h-9.16v-.13a2.51,2.51,0,0,1,.64-2,3.2,3.2,0,0,1,2.53-.28,9.24,9.24,0,0,0,1.26.12,7,7,0,0,0,1.17-.13c1.25-.21,2.23-.38,3.47,2.19Zm-8.91-.25h8.5c-1.11-2.21-1.95-2.06-3.11-1.87a7.12,7.12,0,0,1-1.21.13,9.52,9.52,0,0,1-1.29-.12c-.93-.13-1.8-.24-2.33.22A2.19,2.19,0,0,0,164.13,20.39Z"/><path d="M193.38,68.81H193c-3-.12-5.29-1.13-6.73-3-3.59-4.66-1.51-13.95,0-20.73.41-1.84.8-3.58,1-5V40h7.22l.08.33c.43,1.85.65,2.78,4.62,2.78s4.94-1.72,4.95-2.33c0-.78-.84-1.34-5.26-1.87-3.68-.44-8.15-3.51-12.27-8.43-3.45-4.12-6-8.77-6-11.07,0-5.25,5.78-6,12-6,6.89,0,11.15,1,11.15,6v.12h-7.27v-.12c0-.81-1.13-.81-4.17-.81-3.34,0-4.46,0-4.46.55s.77.69,5.1.91c4.69.25,9.34,3,13.1,7.77,3.17,4,5.23,8.92,5.24,12.51,0,5.3-3.36,18.49-9.9,24.8A11.52,11.52,0,0,1,193.38,68.81Zm-5.87-28.57c-.23,1.4-.61,3.1-1,4.9-1.51,6.73-3.57,16-.05,20.52,1.39,1.81,3.59,2.78,6.54,2.9A11.23,11.23,0,0,0,201.31,65c6.48-6.26,9.84-19.36,9.82-24.62,0-3.54-2-8.39-5.19-12.36-2.15-2.72-6.69-7.34-12.91-7.67-4.5-.23-5.34-.3-5.34-1.16s1-.8,4.71-.8c3.09,0,4.32,0,4.42.93h6.77c-.07-4.7-4.23-5.65-10.9-5.65-6.11,0-11.77.69-11.77,5.72,0,4.7,10,18.29,18,19.25,4.17.5,5.5,1,5.48,2.13,0,.71-1,2.57-5.2,2.57s-4.43-1.12-4.86-3l0-.13Z"/><path d="M212.35,68.36h-7.27l0-.15c.36-2.18,1.92-7.91,3.44-13.45s3-11,3.43-13.42l0-.1h7.27l0,.15c-.43,2.39-2,8-3.45,13.43s-3.07,11.26-3.43,13.43Zm-7-.25h6.77c.38-2.26,1.92-7.9,3.41-13.35S218.5,44,219,41.49H212.2c-.45,2.45-2,8-3.42,13.33S205.77,65.83,205.37,68.11Z"/></g><g class="cls-9"><path d="M32,69.36H23.21l0-.15C23.62,67,24,65,24.37,63c1.94-10.44,3.26-17.52.42-27.09,1.23,8.43-2.39,17.44-5.66,25.6-1.09,2.73-2.13,5.31-3,7.78l0,.09H7.4l0-.15C12,44.05,9,36.7.07,14.89L0,14.72H8.17l0,.08C9.58,18.57,12.36,25,16.56,34.67L18.42,39c-.28-1.47-.54-2.87-.8-4.21C15.78,25,14.56,18.61,15.89,14.81l0-.09H23.4l0,.09c1.32,3.77,4.05,10.17,8.19,19.87L33.45,39c-.26-1.46-.52-2.86-.76-4.2-1.79-9.73-3-16.16-1.57-20l0-.08h8.19l-.1.19c-2.41,4.49-1.9,6.92-1.2,10.28a38.6,38.6,0,0,1,.83,5.42c1,14.3-1.95,24-6.88,38.66Zm-8.45-.25h8.27c4.9-14.58,7.85-24.26,6.84-38.48a38.1,38.1,0,0,0-.83-5.39c-.7-3.37-1.2-5.81,1.13-10.27h-7.6c-1.33,3.76-.15,10.14,1.61,19.75.31,1.67.63,3.43,1,5.3l.19,1.08-.43-1c-.79-1.88-1.55-3.64-2.26-5.31-4.11-9.63-6.84-16-8.17-19.81H16.09C14.83,18.73,16,25.1,17.87,34.71q.48,2.51,1,5.3l.2,1.09-.44-1-2.3-5.32C12.16,25.14,9.39,18.76,8,15H.37C9.26,36.66,12.26,44.06,7.7,69.11H16c.83-2.46,1.85-5,2.94-7.71,3.53-8.81,7.45-18.59,5.24-27.54-.57-1.64-1.26-3.36-2.08-5.18l.22-.11a20.47,20.47,0,0,1,2.1,5.22c3.69,10.68,2.32,18,.24,29.23C24.26,65,23.89,66.94,23.51,69.11Z"/><path d="M63.77,69.36H56.5l0-.16c.5-2,1.25-4.3,2.05-6.78,2.69-8.32,6-18.68,3.4-25.6-4.46-12.56-6.53-16-9.62-16a3.47,3.47,0,0,0-2.77.95c-.86,1-1.11,2.73-.77,5.37C54.17,41.84,52,50,48.44,63.38c-.5,1.87-1,3.8-1.54,5.88l0,.1H39.6l0-.16c5.59-21.53,5-24.18,2.76-34-.81-3.54-1.8-7.94-2.81-14.46a40.1,40.1,0,0,1-.13-7.92c.06-1.32.12-2.58.12-3.79V8.88h7.27V17a14.47,14.47,0,0,1,8.36-2.52c1.17,0,1.78-1.33,2.27-2.4.38-.83.68-1.5,1.18-1.5h0c.9.05,2.16,2.25,5.9,13.37C71,41.48,69,49.17,64.63,66c-.27,1-.55,2.13-.83,3.25Zm-7-.25h6.76L64.39,66c4.34-16.79,6.32-24.46,0-42h0c-3.14-9.33-4.78-13.15-5.67-13.2h0c-.35,0-.65.66-1,1.36-.51,1.13-1.16,2.54-2.49,2.54a14.25,14.25,0,0,0-8.41,2.61l-.2.14V9.12H39.83c0,1.19-.06,2.4-.12,3.68a40.35,40.35,0,0,0,.12,7.87c1,6.51,2,10.91,2.81,14.44,2.24,9.88,2.84,12.55-2.72,34h6.76c.52-2,1-4,1.52-5.79,3.56-13.39,5.71-21.47.39-36.12-.36-2.74-.08-4.56.82-5.59a3.75,3.75,0,0,1,3-1c3.23,0,5.35,3.47,9.86,16.16,2.66,7-.7,17.41-3.4,25.77C58.05,64.9,57.32,67.18,56.82,69.11Z"/><path d="M76,69.81c-5.1,0-5.46-2.09-6-5.22a27.11,27.11,0,0,0-.73-3.3c-1.64-5.36-1.06-9.91-.5-14.31.67-5.25,1.31-10.22-1.5-16.5h0c-2-4.58-2.11-8.93-.18-11.92,1.73-2.68,4.85-4.11,9-4.13h.09c7.89,0,10.61,6.06,13.23,11.93.6,1.35,1.23,2.74,1.9,4,3.37,6.38,1.18,22.3-4.34,31.55-3.07,5.13-6.83,7.86-10.87,7.89ZM67.5,30.38C70.33,36.73,69.66,42,69,47c-.56,4.37-1.14,8.89.49,14.2a26,26,0,0,1,.73,3.32c.54,3.12.87,5,5.75,5h.14c4,0,7.65-2.72,10.66-7.77,5.49-9.18,7.68-25,4.34-31.3-.68-1.28-1.3-2.68-1.91-4-2.59-5.79-5.27-11.78-13-11.78h-.08c-4.11,0-7.16,1.41-8.84,4-1.88,2.93-1.81,7.19.2,11.69ZM82,42c-2.39,0-3.74-.69-7.74-11.51-2.16-5.86-2.74-8.8-1.93-9.84.51-.65,1.42-.55,2.48-.44.43,0,.87.09,1.3.09a8.47,8.47,0,0,0,1.22-.1c2.17-.27,3.08-.38,7,10.2h0c2.35,6.38,3,9.63,2.1,10.87-.54.77-1.55.75-2.71.73H82Zm1.11-.26h.6c1.1,0,2,0,2.51-.62.81-1.15.16-4.43-2.13-10.64h0c-3.84-10.4-4.68-10.29-6.73-10a8.79,8.79,0,0,1-1.25.1c-.45,0-.89-.05-1.32-.09-1-.11-1.84-.19-2.26.34-.74.95-.13,3.92,2,9.6,4.21,11.42,5.4,11.39,8,11.35Z"/><path d="M100.74,69.81h-.17c-5.33-.11-5.65-2.13-6.15-5.19a24.49,24.49,0,0,0-.71-3.33c-1.64-5.36-1.06-9.91-.5-14.31.67-5.25,1.31-10.22-1.5-16.5-2.18-4.88-2.25-9.4-.2-12.42,1.75-2.56,4.87-3.81,9.07-3.63h0a5.85,5.85,0,0,0,4.28-1.79c.75-.63,1.41-1.18,2.17-1,1.26.34,2.75,2.56,6.6,12.89l.06.17h-7.42l0-.07c-2-4.54-2.85-4.43-4.39-4.23a9.13,9.13,0,0,1-1.28.11c-.45,0-.89-.05-1.32-.09-1-.11-1.84-.19-2.26.34-.74.95-.13,3.92,2,9.6,4.21,11.42,5.42,11.39,8,11.35.48,0,1,0,1.53,0,1,0,1.85.09,2.29-.45s.46-2.17-.23-4.74l0-.15H118l0,.09c1.63,5.83-1.59,19.69-7.66,27.53C107.39,67.81,104.08,69.81,100.74,69.81Zm-1-55.15c-3.7,0-6.48,1.22-8.06,3.54-2,2.94-1.93,7.38.22,12.18C94.77,36.73,94.1,42,93.46,47c-.56,4.37-1.14,8.89.49,14.2a23.53,23.53,0,0,1,.72,3.36c.49,3,.79,4.87,5.91,5h.16c3.26,0,6.5-2,9.38-5.68,6-7.75,9.2-21.39,7.64-27.22h-6.9c.68,2.59.72,4.07.14,4.79s-1.45.6-2.5.55c-.5,0-1,0-1.52,0-2.74.05-4,.08-8.26-11.51-2.16-5.86-2.74-8.8-1.93-9.84.51-.65,1.42-.55,2.48-.44.43,0,.87.09,1.3.09a8.81,8.81,0,0,0,1.25-.11c1.65-.22,2.55-.33,4.61,4.3h6.9c-3.28-8.79-5-12.2-6.37-12.57-.63-.16-1.21.32-1.94.94a6.29,6.29,0,0,1-4.19,1.85h-.26Z"/><path d="M122.24,70a10.92,10.92,0,0,1-1.14-.08,10.57,10.57,0,0,0-1.14-.07,1.89,1.89,0,0,1-1.5-.79c-2.6-3.24-1.63-15.7.6-25.78a58.91,58.91,0,0,0,1.35-15.06c0-2.68-.08-4.3.75-5.14a2.71,2.71,0,0,1,2-.64,9.3,9.3,0,0,1,6.73,2.91c-1.21-3.34-2.12-5-2.93-5.35a1.59,1.59,0,0,0-1.33.19,3.84,3.84,0,0,1-1.49.38l-1,0a13.49,13.49,0,0,0-6.86,1.18l-.12.06,0-.12c-1.29-2.78-1.53-3.3-1.81-3.92-.14-.31-.29-.65-.6-1.32l-.06-.13.13,0a43.75,43.75,0,0,1,10.59-1.79l.82,0c8.36,0,10.75,7,13.06,13.75.3.87.6,1.76.92,2.63,6.15,9,2.4,20.5-.9,30.62-.9,2.77-1.75,5.39-2.38,7.85l0,.1h-7.26l0-.15c.26-1.61.91-4.07,2.18-8.8C126.66,68.83,124.34,70,122.24,70Zm1-47.31a2.5,2.5,0,0,0-1.88.57c-.75.76-.72,2.34-.67,5A59.11,59.11,0,0,1,119.3,43.3c-2.61,11.78-2.89,22.77-.64,25.56a1.63,1.63,0,0,0,1.3.7,11.14,11.14,0,0,1,1.17.07c2.46.25,4.79.48,10.08-10.48l.23.08-.11.41c-1.33,5-2.08,7.76-2.38,9.47h6.77c.63-2.45,1.47-5,2.36-7.77,3.29-10.08,7-21.5.92-30.42v0c-.32-.88-.63-1.78-.92-2.65-2.47-7.21-4.8-14-13.63-13.56a43.42,43.42,0,0,0-10.39,1.73l.54,1.2c.28.6.51,1.12,1.75,3.8a13.8,13.8,0,0,1,6.86-1.15l1,0a3.56,3.56,0,0,0,1.39-.36,1.81,1.81,0,0,1,1.53-.19c.94.41,1.88,2.15,3.24,6l.19.52-.39-.39C127.84,23.58,125.83,22.65,123.21,22.65Zm5,23a1.7,1.7,0,0,1-1.3-.55,4.51,4.51,0,0,1-.64-3.17c.18-1.68.63-3.32,4-3.32A9.91,9.91,0,0,1,135.44,40l0,0,0,0a7.34,7.34,0,0,1,.37,1.55v.08l-.07,0c-.41.24-.93.59-1.53,1C132.51,44,130.08,45.63,128.26,45.63Zm2-6.79c-3.13,0-3.54,1.46-3.71,3.1a4.27,4.27,0,0,0,.58,3,1.41,1.41,0,0,0,1.11.47c1.74,0,4.13-1.64,5.88-2.83.57-.39,1.07-.73,1.48-1a8.19,8.19,0,0,0-.35-1.38A9.69,9.69,0,0,0,130.28,38.84Z"/><path class="cls-10" d="M143.81,69.36h-7.27l.25-1c3.69-14.18,6.12-23.55,3-37.71-.45-2.07-1-3.8-1.53-5.47-1-3.3-1.94-6.15-1.74-10.34v-.12h7.26v2.66c1.46-2,3.71-2.95,6.68-2.95a18.26,18.26,0,0,1,4.68.59l.1,0v.1c0,.82-.05,1.39-.09,1.94a15.28,15.28,0,0,0,.1,3.92l0,.19-.18-.06a12.35,12.35,0,0,0-4.22-.6,8,8,0,0,1-1.58-.24c-1.13-.23-2.31-.48-3.05.22-.9.86-1.06,3-.49,6.63,5.34,14.7,3.19,22.81-.39,36.24-.49,1.87-1,3.8-1.54,5.88Zm-6.95-.25h6.76c.52-2,1-4,1.51-5.79,3.56-13.39,5.71-21.47.39-36.12-.6-3.77-.42-5.94.56-6.87s2.07-.53,3.27-.28a7.68,7.68,0,0,0,1.53.23,12.73,12.73,0,0,1,4.11.55,15.3,15.3,0,0,1-.08-3.77c0-.52.08-1.06.09-1.82a17.47,17.47,0,0,0-4.53-.56c-3.08,0-5.28,1-6.7,3.16l-.23.34V15h-6.77c-.18,4.08.71,6.89,1.73,10.14.53,1.68,1.08,3.41,1.54,5.49,3.13,14.21.69,23.61-3,37.82Z"/><path d="M167.36,69.81H167c-5-.19-5.35-2.17-5.81-5.18a22.77,22.77,0,0,0-.68-3.34c-1.64-5.45-1.06-9.95-.51-14.3.67-5.2,1.3-10.12-1.56-16.51-2.06-4.6-2.13-9-.19-12,1.73-2.67,4.86-4.09,9.05-4.09h0c9.76,0,12.94,9.28,15.75,17.47.48,1.39.93,2.7,1.4,4l.07.17H168c2.89,6.66,3.85,6.5,5.17,6.31a4.52,4.52,0,0,1,.85-.09c.46,0,.89,0,1.3.06,1.82.12,2.9.19,3.17-2.54v-.11h7.13l0,.14a67.19,67.19,0,0,1-5.32,18.43C176.67,65.81,172.23,69.81,167.36,69.81Zm0-55.13h0c-4.1,0-7.16,1.38-8.84,4-1.89,2.93-1.82,7.2.2,11.72,2.9,6.45,2.23,11.63,1.59,16.64-.55,4.33-1.12,8.8.5,14.2a23.35,23.35,0,0,1,.69,3.38c.45,3,.72,4.78,5.57,5h.32c6,0,10.18-6.19,12.64-11.44a67,67,0,0,0,5.28-18.22h-6.61c-.32,2.86-1.63,2.76-3.42,2.65-.41,0-.83-.06-1.29-.06a5.17,5.17,0,0,0-.81.08c-1.44.22-2.49.39-5.51-6.62l-.08-.18h16.65c-.46-1.2-.89-2.46-1.34-3.79C180.09,23.87,176.94,14.68,167.36,14.68Zm4.68,7h-9.16v-.13a2.51,2.51,0,0,1,.64-2,3.2,3.2,0,0,1,2.53-.28,9.24,9.24,0,0,0,1.26.12,7,7,0,0,0,1.17-.13c1.24-.21,2.23-.38,3.47,2.19Zm-8.91-.25h8.5c-1.11-2.21-1.95-2.06-3.11-1.87a7.12,7.12,0,0,1-1.21.13,9.52,9.52,0,0,1-1.29-.12c-.93-.13-1.8-.25-2.33.22A2.19,2.19,0,0,0,163.13,21.39Z"/><path d="M192.38,69.81H192c-3-.12-5.29-1.13-6.73-3-3.59-4.66-1.51-13.95,0-20.73.41-1.84.8-3.58,1-5V41h7.22l.08.33c.43,1.85.65,2.78,4.62,2.78s4.94-1.72,4.95-2.33c0-.78-.84-1.34-5.26-1.87-3.68-.44-8.15-3.51-12.27-8.43-3.45-4.12-6-8.77-6-11.07,0-5.25,5.78-6,12-6,6.89,0,11.15,1,11.15,6v.12h-7.27v-.12c0-.81-1.13-.81-4.17-.81-3.34,0-4.46,0-4.46.55s.77.69,5.1.91c4.69.25,9.34,3,13.1,7.77,3.17,4,5.23,8.92,5.24,12.51,0,5.3-3.36,18.49-9.9,24.8A11.52,11.52,0,0,1,192.38,69.81Zm-5.87-28.57c-.23,1.4-.61,3.1-1,4.9-1.51,6.73-3.57,16-.05,20.52,1.39,1.81,3.59,2.78,6.54,2.9A11.23,11.23,0,0,0,200.31,66c6.48-6.26,9.84-19.36,9.82-24.62,0-3.54-2-8.39-5.19-12.36-2.15-2.72-6.69-7.34-12.91-7.67-4.5-.23-5.34-.3-5.34-1.16s1-.8,4.71-.8c3.09,0,4.32,0,4.42.93h6.77c-.07-4.7-4.23-5.65-10.9-5.65-6.11,0-11.77.69-11.77,5.72,0,4.7,10,18.29,18,19.25,4.17.5,5.5,1,5.48,2.13,0,.71-1,2.57-5.2,2.57s-4.43-1.12-4.86-3l0-.13Z"/><path d="M211.35,69.36h-7.27l0-.15c.36-2.18,1.92-7.91,3.44-13.45s3-11,3.43-13.42l0-.1h7.27l0,.15c-.43,2.39-2,8-3.45,13.43s-3.07,11.26-3.43,13.43Zm-7-.25h6.77c.38-2.26,1.92-7.9,3.41-13.35S217.5,45,218,42.49H211.2c-.45,2.45-2,8-3.42,13.33S204.77,66.83,204.37,69.11Z"/></g></g></g></svg>