<svg xmlns="http://www.w3.org/2000/svg" xmlns:xlink="http://www.w3.org/1999/xlink" viewBox="0 0 500 500"><defs><style>.cls-1,.cls-10,.cls-11,.cls-2,.cls-3,.cls-4,.cls-5,.cls-6,.cls-7,.cls-8,.cls-9{fill:none;}.cls-10,.cls-11,.cls-2,.cls-3,.cls-4,.cls-5,.cls-6,.cls-7,.cls-8,.cls-9{stroke:#231f20;stroke-linecap:round;stroke-dasharray:0 6.5;}.cls-2{stroke-width:5px;}.cls-3{stroke-width:4.69px;}.cls-4{stroke-width:4.39px;}.cls-5{stroke-width:4.08px;}.cls-6{stroke-width:3.78px;}.cls-7{stroke-width:3.47px;}.cls-8{stroke-width:3.17px;}.cls-9{stroke-width:2.86px;}.cls-10{stroke-width:2.56px;}.cls-11{stroke-width:2.25px;}.cls-12{fill:#fff;}.cls-13{fill:url(#Undulating_Coarse_Dots);}</style><pattern id="Undulating_Coarse_Dots" data-name="Undulating Coarse Dots" width="83" height="65" patternUnits="userSpaceOnUse" viewBox="0 0 83 65"><rect class="cls-1" width="83" height="65"/><line class="cls-2" x1="83" y1="65" x2="83" y2="130.5"/><line class="cls-2" y1="65" y2="130.5"/><line class="cls-3" x1="4.61" y1="61.75" x2="4.61" y2="130.5"/><line class="cls-4" x1="9.22" y1="65" x2="9.22" y2="130.5"/><line class="cls-5" x1="13.83" y1="61.75" x2="13.83" y2="130.5"/><line class="cls-6" x1="18.44" y1="65" x2="18.44" y2="130.5"/><line class="cls-7" x1="23.06" y1="61.75" x2="23.06" y2="130.5"/><line class="cls-8" x1="27.67" y1="65" x2="27.67" y2="130.5"/><line class="cls-9" x1="32.28" y1="61.75" x2="32.28" y2="130.5"/><line class="cls-10" x1="36.89" y1="65" x2="36.89" y2="130.5"/><line class="cls-11" x1="41.5" y1="61.75" x2="41.5" y2="130.5"/><line class="cls-2" x1="83" y1="65" x2="83" y2="130.5"/><line class="cls-3" x1="78.39" y1="61.75" x2="78.39" y2="130.5"/><line class="cls-4" x1="73.78" y1="65" x2="73.78" y2="130.5"/><line class="cls-5" x1="69.17" y1="61.75" x2="69.17" y2="130.5"/><line class="cls-6" x1="64.56" y1="65" x2="64.56" y2="130.5"/><line class="cls-7" x1="59.94" y1="61.75" x2="59.94" y2="130.5"/><line class="cls-8" x1="55.33" y1="65" x2="55.33" y2="130.5"/><line class="cls-9" x1="50.72" y1="61.75" x2="50.72" y2="130.5"/><line class="cls-10" x1="46.11" y1="65" x2="46.11" y2="130.5"/><line class="cls-2" y1="65" y2="130.5"/><line class="cls-2" x1="83" x2="83" y2="65.5"/><line class="cls-2" y2="65.5"/><line class="cls-3" x1="4.61" y1="-3.25" x2="4.61" y2="65.5"/><line class="cls-4" x1="9.22" x2="9.22" y2="65.5"/><line class="cls-5" x1="13.83" y1="-3.25" x2="13.83" y2="65.5"/><line class="cls-6" x1="18.44" x2="18.44" y2="65.5"/><line class="cls-7" x1="23.06" y1="-3.25" x2="23.06" y2="65.5"/><line class="cls-8" x1="27.67" x2="27.67" y2="65.5"/><line class="cls-9" x1="32.28" y1="-3.25" x2="32.28" y2="65.5"/><line class="cls-10" x1="36.89" x2="36.89" y2="65.5"/><line class="cls-11" x1="41.5" y1="-3.25" x2="41.5" y2="65.5"/><line class="cls-2" x1="83" x2="83" y2="65.5"/><line class="cls-3" x1="78.39" y1="-3.25" x2="78.39" y2="65.5"/><line class="cls-4" x1="73.78" x2="73.78" y2="65.5"/><line class="cls-5" x1="69.17" y1="-3.25" x2="69.17" y2="65.5"/><line class="cls-6" x1="64.56" x2="64.56" y2="65.5"/><line class="cls-7" x1="59.94" y1="-3.25" x2="59.94" y2="65.5"/><line class="cls-8" x1="55.33" x2="55.33" y2="65.5"/><line class="cls-9" x1="50.72" y1="-3.25" x2="50.72" y2="65.5"/><line class="cls-10" x1="46.11" x2="46.11" y2="65.5"/><line class="cls-2" y2="65.5"/><line class="cls-2" x1="83" y1="-65" x2="83" y2="0.5"/><line class="cls-2" y1="-65" y2="0.5"/><line class="cls-3" x1="4.61" y1="-68.25" x2="4.61" y2="0.5"/><line class="cls-4" x1="9.22" y1="-65" x2="9.22" y2="0.5"/><line class="cls-5" x1="13.83" y1="-68.25" x2="13.83" y2="0.5"/><line class="cls-6" x1="18.44" y1="-65" x2="18.44" y2="0.5"/><line class="cls-7" x1="23.06" y1="-68.25" x2="23.06" y2="0.5"/><line class="cls-8" x1="27.67" y1="-65" x2="27.67" y2="0.5"/><line class="cls-9" x1="32.28" y1="-68.25" x2="32.28" y2="0.5"/><line class="cls-10" x1="36.89" y1="-65" x2="36.89" y2="0.5"/><line class="cls-11" x1="41.5" y1="-68.25" x2="41.5" y2="0.5"/><line class="cls-2" x1="83" y1="-65" x2="83" y2="0.5"/><line class="cls-3" x1="78.39" y1="-68.25" x2="78.39" y2="0.5"/><line class="cls-4" x1="73.78" y1="-65" x2="73.78" y2="0.5"/><line class="cls-5" x1="69.17" y1="-68.25" x2="69.17" y2="0.5"/><line class="cls-6" x1="64.56" y1="-65" x2="64.56" y2="0.5"/><line class="cls-7" x1="59.94" y1="-68.25" x2="59.94" y2="0.5"/><line class="cls-8" x1="55.33" y1="-65" x2="55.33" y2="0.5"/><line class="cls-9" x1="50.72" y1="-68.25" x2="50.72" y2="0.5"/><line class="cls-10" x1="46.11" y1="-65" x2="46.11" y2="0.5"/><line class="cls-2" y1="-65" y2="0.5"/></pattern></defs><title>whocares_3</title><g id="Layer_2" data-name="Layer 2"><g id="Layer_1-2" data-name="Layer 1"><rect class="cls-12" width="500" height="500"/><path class="cls-13" d="M152.86,209.06c-11.84,13.58-26.15,26-34.85,41.77-7.47,13.5-13.8,28-20.81,41.75-4.25-3.64-6.28-5.65-10.48-9.38,1.61-7.41,8-24.84,2.23-33.07-3.37,8.71-7.54,17.09-11.5,25.53a41.31,41.31,0,0,0-12.07-6.49c-2.55-12.41-7.69-22.69-12.19-34.46,5.85-.05,9.27-.52,16.63-1.94-2.15,12.7,2.34,14.13,5.33,22.25,2.67-10.18,8.74-18.42,14.5-27.06,7.73-2.15,11.78-3.4,19.91-5.91-3.39,7.64-13.42,23.6-6.81,33,4.3-15.72,19-27.72,28.9-39.84C140.38,212.51,144.71,211.2,152.86,209.06Z"/><path class="cls-13" d="M169.4,248.32c.28,19.08-11.92,38.66-18.52,56-6.54,1.07-9.67,1.5-15.43,2,7-16.69,19.21-34.79,21.29-52.86.06-5.6-1.86-8-7.61-8a15.87,15.87,0,0,0-10.44,4.14c1.65,18.17-14.15,39.31-20.93,55.47a37.39,37.39,0,0,1-10.29-4.75c7.48-17.4,12.6-33,18.33-49.93,5-14.74,18.11-27.92,28.18-40.5a102.64,102.64,0,0,0-22.68,9.28,26.73,26.73,0,0,0,8.73,3.68c10.5-5.38,20.2-13.62,31.32-17.59q-5.41,6.95-10.81,13.9c7.75-6.37,16.65-15.56,27.11-15.35C205.73,204.09,170.88,243.09,169.4,248.32Z"/><path class="cls-13" d="M170.25,251.27c-.59-10.15,31.52-44.7,42.26-35.13,11.37,10.12-.25,27.52-1.44,37.52-2,17.1-5.64,39-29.28,45.21C152.67,306.55,171,263.84,170.25,251.27Zm28.85,1.66c1.42-6.14-1.83-7.27-7.22-7.54s-8.73,1-9.51,6.5,2.32,6.82,7.47,7.33S197.69,259.07,199.1,252.93Z"/><path class="cls-13" d="M238.64,233.26c9,2.33,18.27,5.44,16.49,17.5-4.8.22-7.19.26-12.47.27.1-3.86-3.45-4.06-8-4.08-5.69,0-8.13.35-10.4,7.34s1.09,8.08,6.61,8.28c4.43.15,7-.21,9.34-4.23,5.23,0,8,0,13.39-.27-4.93,12.56,8.63,27.4-11.66,29-15.78,1.22-34.93-15.46-29.84-33.33C214.91,243.75,227.2,230.3,238.64,233.26Z"/><path class="cls-13" d="M294.66,251.27c12.64,11.78,10.81,44.92,13.19,60.9-5.24-3.36-7.87-5.14-13.11-8.52-.41-2.76-1.45-7.24-3.44-15.88-.61,18.22-7.32,9.35-12.88,6.63-12.06-5.91-23.5-21.56-25.19-30.56-1.22-6.51,9.71-15.07,18.49-15.82a19,19,0,0,1,9.58,1.34c-2.26-5.65-4-4.51-7.46-4.16a51.23,51.23,0,0,0-12.28,2.85c-.78-4.14.22-6.09.06-10.31a64.1,64.1,0,0,1,19.84-3.55C294.75,234,279.23,232.2,294.66,251.27Zm-9.61,7.15a33.81,33.81,0,0,0-9.33-.31c-6.28.51-9.54,1.85-9.18,3.66.31,1.58,2.88,4.1,6.43,4.13,4.71.05,8.72-4.18,12.29-5.92A5.42,5.42,0,0,0,285.05,258.42Z"/><path class="cls-13" d="M337.76,235.23c-1.75,3.87-19.07,2.32-17.67,6.84a21.69,21.69,0,0,0-6.84-.72c-4,.21-11,.06-7.55,6.47,19,15.41,14.55,50.87,16.88,73.14-5.22-2.79-7.84-4.42-13.09-7.74q-4.1-26.69-8.12-53.38A21.84,21.84,0,0,0,296,250.9a11.56,11.56,0,0,1-4-8.1,49.66,49.66,0,0,0,12-8.11c5.16,0,7.74,0,12.9,0-.48,3.35-2.84,2.72-7.18,4.08,11.17-2.78,14.66-5.2,19.92-5.2C333.33,233.55,335.82,234.74,337.76,235.23Z"/><path class="cls-13" d="M367.77,254.6l12.9.06c1.67,18.47,4.23,60.21-15.32,71.34-11.73,6.67-14.59-10.24-16.74-18.13-5-18.36-4.25-48.51-20-59.17-2.41-1.63-5-4.32-7.48-6.48,10.07-6.17,27.71-7.68,39.41-8.68a16.19,16.19,0,0,1,12.34,4q-10.53,7.29,6.08,14.71c-10.69-.15-21.39-.31-32.09-.34,8.42,5.07,9.43,6.27,13,6.27C364.54,258.21,367.49,257.21,367.77,254.6Zm-32.92-11.91c7.08.13,10.88.26,18.7.55-3.67-3.39-3.76-3-7.68-3.12S334.32,239.35,334.85,242.69Z"/><path class="cls-13" d="M395.45,255.8c.51,1.95,2,4.22,9.7,3.54,7.14-.62,8.27-2,8.34-2.72s-1.29-1.52-9.27-1.83c-11.09-.43-33.05-9.64-32.34-12.38.82-3.11,22.12-8.44,33.18-8.24,11.82.21,18.41,1.16,18.93,10.57-5.94-.17-9-.29-15.36-.55.06-1.7-2.18-1.72-9.19-2-8-.32-10.59-.47-11.1.65s1.78,1.59,11.82,2.23c7.68.49,26,1.42,26.28,11.05.34,12.38-9.91,21.08-19,30.35-22.26,22.59-22.45-12.6-25-30.68Z"/><path class="cls-13" d="M440.88,257.28V267c-5.14.14-7.65.9-12.58,3.25.1-2.81-.41-10.15-.33-13.16C433.13,257.07,435.71,257.11,440.88,257.28Z"/><path d="M158.79,200.56c-11.84,13.58-26.16,26-34.86,41.77-7.46,13.5-13.79,28-20.81,41.75-4.25-3.64-6.27-5.65-10.47-9.38,1.6-7.41,7.95-24.84,2.22-33.07-3.36,8.71-7.53,17.09-11.5,25.53a41.26,41.26,0,0,0-12.06-6.49c-2.56-12.41-7.7-22.69-12.19-34.46,5.85-.05,9.26-.52,16.63-1.94-2.15,12.7,2.33,14.13,5.32,22.25,2.67-10.18,8.74-18.42,14.5-27.06,7.73-2.15,11.79-3.4,19.92-5.91-3.39,7.64-13.43,23.6-6.81,33,4.3-15.72,18.94-27.72,28.89-39.84C146.3,204,150.64,202.7,158.79,200.56Z"/><path d="M175.32,239.82c.28,19.08-11.91,38.66-18.52,56-6.54,1.07-9.67,1.5-15.43,2,7-16.69,19.22-34.79,21.29-52.86.07-5.6-1.85-8-7.61-8A15.89,15.89,0,0,0,144.61,241c1.66,18.17-14.14,39.31-20.93,55.47a37.33,37.33,0,0,1-10.28-4.75c7.47-17.4,12.59-33,18.32-49.93,5-14.74,18.12-27.92,28.19-40.5a102.72,102.72,0,0,0-22.69,9.28,26.7,26.7,0,0,0,8.74,3.68c10.49-5.38,20.2-13.62,31.31-17.59l-10.81,13.9c7.75-6.37,16.65-15.56,27.11-15.35C211.66,195.59,176.8,234.59,175.32,239.82Z"/><path d="M176.17,242.77c-.58-10.15,31.53-44.7,42.27-35.13,11.36,10.12-.26,27.52-1.44,37.52-2,17.1-5.65,39-29.28,45.21C158.6,298.05,176.9,255.34,176.17,242.77ZM205,244.43c1.41-6.14-1.83-7.27-7.22-7.54s-8.74,1-9.52,6.5,2.33,6.82,7.47,7.33S203.61,250.57,205,244.43Z"/><path d="M244.56,224.76c9,2.33,18.27,5.44,16.49,17.5-4.8.22-7.19.26-12.46.27.1-3.86-3.45-4.06-8-4.08-5.69,0-8.13.35-10.4,7.34s1.09,8.08,6.61,8.28c4.44.15,7-.21,9.34-4.23,5.23,0,8-.05,13.4-.27-4.93,12.56,8.62,27.4-11.67,29-15.77,1.22-34.92-15.46-29.84-33.33C220.84,235.25,233.13,221.8,244.56,224.76Z"/><path d="M300.59,242.77c12.63,11.78,10.81,44.92,13.19,60.9-5.25-3.36-7.87-5.14-13.12-8.52-.4-2.76-1.44-7.24-3.43-15.88-.61,18.22-7.32,9.35-12.88,6.63-12.06-5.91-23.5-21.56-25.2-30.56-1.22-6.51,9.71-15.07,18.49-15.82a19,19,0,0,1,9.58,1.34c-2.25-5.65-4-4.51-7.45-4.16a51.13,51.13,0,0,0-12.28,2.85c-.78-4.14.21-6.09.06-10.31a64,64,0,0,1,19.83-3.55C300.67,225.49,285.15,223.7,300.59,242.77ZM291,249.92a33.81,33.81,0,0,0-9.33-.31c-6.28.51-9.54,1.85-9.18,3.66.31,1.58,2.89,4.1,6.43,4.13,4.71.05,8.72-4.18,12.29-5.92A5.09,5.09,0,0,0,291,249.92Z"/><path d="M343.69,226.73c-1.75,3.87-19.08,2.32-17.68,6.84a21.66,21.66,0,0,0-6.84-.72c-4,.21-11,.06-7.54,6.47,19,15.41,14.54,50.87,16.88,73.14-5.23-2.79-7.85-4.42-13.09-7.74q-4.1-26.69-8.13-53.38a21.74,21.74,0,0,0-5.35-8.94,11.58,11.58,0,0,1-4-8.1,49.8,49.8,0,0,0,12-8.11c5.16,0,7.74,0,12.9,0-.47,3.35-2.83,2.72-7.18,4.08,11.18-2.78,14.66-5.2,19.92-5.2C339.25,225.05,341.75,226.24,343.69,226.73Z"/><path d="M373.69,246.1l12.9.06c1.67,18.47,4.24,60.21-15.32,71.34-11.73,6.67-14.59-10.24-16.74-18.13-5-18.36-4.25-48.51-20-59.17-2.41-1.63-5-4.32-7.48-6.48,10.08-6.17,27.72-7.68,39.42-8.68a16.19,16.19,0,0,1,12.34,4q-10.54,7.29,6.08,14.71c-10.7-.15-21.4-.31-32.1-.34,8.43,5.07,9.43,6.27,13,6.27C370.46,249.71,373.42,248.71,373.69,246.1Zm-32.91-11.91c7.07.13,10.88.26,18.7.55-3.68-3.39-3.77-3-7.68-3.12S340.24,230.85,340.78,234.19Z"/><path d="M401.37,247.3c.51,1.95,2,4.22,9.7,3.54,7.14-.62,8.27-2,8.34-2.72s-1.29-1.52-9.27-1.83c-11.09-.43-33.05-9.64-32.33-12.38.81-3.11,22.11-8.44,33.17-8.24,11.83.21,18.41,1.16,18.93,10.57-5.93-.17-9-.29-15.36-.55.06-1.7-2.17-1.72-9.19-2-8-.32-10.59-.47-11.1.65s1.79,1.59,11.82,2.23c7.69.49,26,1.42,26.28,11.05.34,12.38-9.91,21.08-19,30.35-22.26,22.59-22.44-12.6-25-30.68Z"/><path d="M446.81,248.78v9.67c-5.15.14-7.65.9-12.59,3.25.11-2.81-.41-10.15-.33-13.16C439.05,248.57,441.63,248.61,446.81,248.78Z"/></g></g></svg>