<?xml version="1.0" encoding="utf-8"?>
<!-- Generator: Adobe Illustrator 22.1.0, SVG Export Plug-In . SVG Version: 6.00 Build 0)  -->
<svg version="1.1" id="Layer_1" xmlns="http://www.w3.org/2000/svg" xmlns:xlink="http://www.w3.org/1999/xlink" x="0px" y="0px"
	 viewBox="0 0 175.3 262.2" style="enable-background:new 0 0 175.3 262.2;" xml:space="preserve">
<style type="text/css">
	.st0{enable-background:new    ;}
</style>
<title>whocares-outline</title>
<g id="Layer_2_1_">
	<g id="Layer_1-2">
		<g class="st0">
			<g>
				<path d="M119.6,65.6H96.8l-9.2-22.9l-9.2,22.9H55.7L36.3,19h21.6l10.2,27.7L77.8,19h19.7l0.1,0.3l9.6,27.4L117.4,19H139
					L119.6,65.6z M97.5,64.6h21.4L137.5,20h-19.4l-10.9,29.7L96.8,20H78.5L68.1,49.7L57.2,20H37.8l18.6,44.6h21.4L87.6,40L97.5,64.6
					z"/>
			</g>
		</g>
		<g class="st0">
			<g>
				<path d="M87.8,122.8H68.6V103c0-7.8-2.9-10.7-10.5-10.7c-5,0-10.6,2.1-14.2,5.5v24.9H24.7V61h19.2v20.8
					c6.5-4.3,13.6-6.4,21.5-6.4c14.9,0,22.4,6.8,22.4,20.2V122.8z M69.6,121.8h17.2V95.6c0-12.9-7-19.2-21.4-19.2
					c-8.1,0-15.2,2.2-21.7,6.7l-0.8,0.5V62H25.7v59.8h17.2V97.4l0.2-0.1c3.8-3.6,9.6-5.9,15-5.9c8.3,0,11.5,3.3,11.5,11.7V121.8z"/>
			</g>
		</g>
		<g class="st0">
			<g>
				<path d="M119.8,123.5c-21.2,0-31.5-7.9-31.5-24.1s10.3-24.1,31.5-24.1s31.5,7.9,31.5,24.1S141,123.5,119.8,123.5z M119.8,76.4
					c-20.5,0-30.5,7.5-30.5,23.1s10,23.1,30.5,23.1s30.5-7.5,30.5-23.1S140.4,76.4,119.8,76.4z M119.8,108.3
					c-11.7,0-13.3-4.3-13.3-8.9c0-7.8,6.4-8.9,13.3-8.9c11.7,0,13.3,4.3,13.3,8.9C133.1,107.3,126.7,108.3,119.8,108.3z M119.8,91.6
					c-8.9,0-12.3,2.1-12.3,7.9s3.3,7.9,12.3,7.9s12.3-2.1,12.3-7.9S128.8,91.6,119.8,91.6z"/>
			</g>
		</g>
		<g class="st0">
			<g>
				<path d="M32.3,180.7c-21.2,0-31.5-7.9-31.5-24.1s10.3-24.1,31.5-24.1c19.6,0,29.9,6.7,31.3,20.6l0.1,0.6H44.1l-0.1-0.3
					c-1.2-3.3-4.6-4.6-11.8-4.6c-8.9,0-12.3,2.1-12.3,7.9s3.3,7.9,12.3,7.9c7.1,0,10.5-1.3,11.8-4.6l0.1-0.3h19.5l-0.1,0.6
					C62.1,174,51.9,180.7,32.3,180.7z M32.3,133.6c-20.5,0-30.5,7.5-30.5,23.1s10,23.1,30.5,23.1c18.8,0,28.7-6.3,30.3-19.1H44.8
					c-1.9,4.3-7.1,4.9-12.6,4.9c-11.7,0-13.3-4.3-13.3-8.9c0-7.8,6.4-8.9,13.3-8.9c5.4,0,10.7,0.6,12.6,4.9h17.7
					C60.9,139.9,51,133.6,32.3,133.6z"/>
			</g>
		</g>
		<g class="st0">
			<g>
				<path d="M82.6,180.7c-12.7,0-20-5.1-20-14.1c0-7.1,4.8-15.5,27.5-15.5c5.8,0,10.6,0.7,14.9,2.1c-0.5-4.1-5.2-4.5-11.3-4.5
					c-6.9,0-13.5,0.7-20.8,2.3l-0.4,0.1l-6.3-13.8l0.5-0.2c9.1-3,19.2-4.7,27.6-4.7c20.3,0,29.8,7.7,30,24.3V180H105v-5.1
					C97.4,180,89.1,180.7,82.6,180.7z M90.1,152.1c-21.9,0-26.5,7.9-26.5,14.5c0,11.8,13.3,13.1,19,13.1c6.6,0,15-0.7,22.6-6.2
					l0.8-0.6v6h17.2v-22.1c-0.1-16.1-9.1-23.3-29-23.3c-8.2,0-17.9,1.6-26.7,4.4l5.5,12c7.2-1.6,13.8-2.3,20.6-2.3
					c5.5,0,12.4,0,12.4,6.2v0.7l-0.7-0.2C101,152.9,96.1,152.1,90.1,152.1z M88.1,168.6c-4.3,0-7.3-0.2-7.3-3.4
					c0-3.5,4.4-4.1,12.6-4.1c5.3,0,9.3,0.4,12.2,1.2l0.4,0.1v2.6l-0.3,0.1C100.7,167.2,93.9,168.6,88.1,168.6z M93.4,162
					c-8.5,0-11.6,0.8-11.6,3.1c0,1.9,1.3,2.4,6.3,2.4c5.6,0,12-1.3,16.9-3.3V163C102.2,162.4,98.4,162,93.4,162z"/>
			</g>
		</g>
		<g class="st0">
			<g>
				<path d="M144.7,180h-19.2v-46.6h19.2v6.6c3.8-4.9,9.6-7.3,17.2-7.3c5.3,0,9.2,0.8,12.2,1.5l0.4,0.1v16.2l-0.6-0.2
					c-4.2-1-7.5-1.5-10.9-1.5c-6.5,0-13.2,0.8-18.3,6.2V180z M126.5,179h17.2v-24.3l0.1-0.1c5.4-5.9,12.7-6.7,19.1-6.7
					c3.3,0,6.6,0.4,10.5,1.4V135c-3-0.7-6.6-1.4-11.6-1.4c-8,0-13.6,2.7-17.3,8.1l-0.9,1.4v-8.7h-17.2V179z"/>
			</g>
		</g>
		<g class="st0">
			<g>
				<path d="M45,237.9c-20.1,0-30.7-8.3-30.7-24.1s10.9-24.1,31.5-24.1c21.4,0,31.3,8.6,31.3,27.1v0.5h-43c1.4,3.4,5.1,5.1,10.9,5.1
					c6.6,0,9.1-0.4,12.7-3.3l0.1-0.1h18.6l-0.1,0.6C74,232.1,64,237.9,45,237.9z M45.8,190.8c-20.2,0-30.5,7.8-30.5,23.1
					c0,19.1,16.2,23.1,29.7,23.1c18.2,0,27.8-5.4,30.2-16.9H58.2c-3.7,2.9-6.5,3.4-13.2,3.4c-6.7,0-10.8-2.2-12.1-6.4l-0.2-0.6h43.4
					C75.9,198.9,66.3,190.8,45.8,190.8z M58,208.3H33.4l0.4-0.7c2.2-4.5,7.3-4.8,11.9-4.8s9.7,0.4,11.9,4.8L58,208.3z M35.1,207.3
					h21.2c-2.1-3.3-6.4-3.6-10.6-3.6S37.2,204,35.1,207.3z"/>
			</g>
		</g>
		<g class="st0">
			<g>
				<path d="M109.8,237.9c-17.1,0-32.9-2.1-32.9-17v-0.5h19.2v0.5c0,2.1,1.9,3.1,12.9,3.1c9.9,0,11.4-0.5,11.4-1.9
					c0-1.5-1-1.6-8.8-1.9c-1,0-2.2-0.1-3.4-0.1c-21.3-0.8-30.6-2.5-30.6-14.6c0-13.8,15.1-15.7,31.4-15.7c14.7,0,29.1,1.2,29.1,15.8
					v0.5H119v-0.5c0-1.8-2.6-1.9-10.7-1.9c-8.3,0-11.4,0-11.4,1.2c0,1.2,1.5,1.3,10.3,1.8l2.7,0.1c16.7,0.8,29.9,1.5,29.9,14.4
					C139.7,236.6,125,237.9,109.8,237.9z M77.9,221.4c0.4,13.6,15.5,15.5,31.9,15.5c18.3,0,28.9-2.6,28.9-15.6
					c0-11.4-11-12.5-28.9-13.4l-2.7-0.1c-9.5-0.5-11.2-0.6-11.2-2.8c0-2.2,2.6-2.2,12.4-2.2c8,0,11.3,0,11.6,2.4h17.3
					c-0.3-11.9-11-14.3-28.1-14.3c-15.8,0-30.4,1.8-30.4,14.7c0,11.2,9,12.7,29.7,13.6c1.3,0.1,2.4,0.1,3.4,0.1
					c8.1,0.3,9.8,0.4,9.8,2.9c0,2.6-2.5,2.9-12.4,2.9c-10.2,0-13.6-0.8-13.9-3.6H77.9z"/>
			</g>
			<g>
				<path d="M160.2,237.1H141v-14.7h19.2V237.1z M142,236.1h17.2v-12.7H142V236.1z"/>
			</g>
		</g>
	</g>
</g>
</svg>
