<?xml version="1.0" encoding="utf-8"?>
<!-- Generator: Adobe Illustrator 22.1.0, SVG Export Plug-In . SVG Version: 6.00 Build 0)  -->
<svg version="1.1" id="Layer_1" xmlns="http://www.w3.org/2000/svg" xmlns:xlink="http://www.w3.org/1999/xlink" x="0px" y="0px"
	 viewBox="0 0 347.9 362" style="enable-background:new 0 0 347.9 362;" xml:space="preserve">
<style type="text/css">
	.st0{fill:#010101;}
	.st1{enable-background:new    ;}
	.st2{fill:#231F20;}
</style>
<title>max-final-vert</title>
<g id="Layer_2_1_">
	<g id="Layer_1-2">
		<path class="st0" d="M217.7,34c-2.4,24.3-9.7,48.6-31.6,60.7c-29.1,17-51,46.1-53.4,77.7c-12.1-4.9-19.4-14.6-31.6-17
			c2.4-38.8,29.2-68,55.9-94.7c-21.9,17-43.7,34-58.3,58.3c-7.3-4.8-17-2.4-24.3-2.4c2.4-24.3,12.1-46.2,17-68
			c-14.6,34-34,70.4-31.6,109.3c-12.1,4.9-19.4,14.6-26.7,26.7c-4.9-38.9,0-75.3,4.8-114.1c0-17,2.4-34-4.8-48.6
			C57.4,7.3,84.1,2.4,110.8,0c14.6,17,14.6,41.3,7.3,60.7c19.4-14.6,38.9-29.1,48.6-53.4C183.7,14.6,200.7,21.9,217.7,34z"/>
		<path class="st0" d="M307.5,148.1c-9.7,29.1-36.4,46.1-65.6,53.4c-34,7.3-63.1-4.9-92.3-19.4c2.4-14.6,2.4-29.1,12.1-41.3
			c12.2-14.6,29.2-24.3,43.7-36.4c14.6-17,26.7-36.4,26.7-60.7c9.7,4.9,19.4,9.7,29.1,9.7c21.9,0,48.6,7.3,53.4,31.6
			C317.2,106.8,317.2,126.3,307.5,148.1L307.5,148.1z M263.8,143.3c0-7.3,7.3-17,4.9-24.3c-4.9-7.3-12.1-12.1-21.9-12.1
			c-9.7,24.3-31.6,38.9-41.3,63.1C229.8,179.7,256.5,167.6,263.8,143.3L263.8,143.3z"/>
		<g class="st1">
			<path class="st2" d="M54.4,285.8h-13v-16.6l-9.5,16.6h-8.5l-9.5-16.6v16.6H1v-34.9h15.9l10.8,19.9l10.8-19.9h15.9V285.8z"/>
		</g>
		<g class="st1">
			<path class="st2" d="M87.5,279.5H72.7l-2.4,6.3H56l14.4-34.9h19.2l14.4,34.9H89.9L87.5,279.5z M84.1,270.5l-4-10.7l-4,10.7H84.1z
				"/>
			<path class="st2" d="M122.2,268.4l-16.5-17.4h16.9l8.8,10l8.8-10h16.9l-16.5,17.4l16.5,17.4h-16.9l-8.8-10l-8.8,10h-16.9
				L122.2,268.4z"/>
			<path class="st2" d="M231.4,250.9L220,285.8h-19.2l-5.7-20.1l-5.7,20.1H170l-11.5-34.9h13.9l7.2,24.6l7.6-24.6h15.4l7.6,24.6
				l7.2-24.6H231.4z"/>
			<path class="st2" d="M246.4,260.9v3.2h23.9v8.5h-23.9v3.2h23.9v10h-36.9v-34.9h36.9v10H246.4z"/>
			<path class="st2" d="M308.1,274.8v11h-35.9v-34.9h13v23.9H308.1z"/>
			<path class="st2" d="M346,274.8v11h-35.9v-34.9h13v23.9H346z"/>
		</g>
		<g class="st1">
			<path class="st2" d="M98.1,328.1c0,11.9-7.9,17.4-16.3,17.4H55.8v-34.9h25.9C90.2,310.7,98.1,316.3,98.1,328.1z M85.1,328.1
				c0-6.5-4.6-6.5-7.4-6.5h-9v13h9C80.5,334.6,85.1,334.6,85.1,328.1z"/>
			<path class="st2" d="M113,320.7v3.2h23.9v8.5H113v3.2h23.9v10h-36.9v-34.9h36.9v10H113z"/>
		</g>
		<g class="st1">
			<path class="st2" d="M184.2,310.7v34.9h-16.9l-15-20.6v20.6h-13v-34.9h16.9l15,20.6v-20.6H184.2z"/>
			<path class="st2" d="M216.6,339.3h-14.8l-2.4,6.3h-14.2l14.4-34.9h19.2l14.4,34.9H219L216.6,339.3z M213.2,330.3l-4-10.7l-4,10.7
				H213.2z"/>
		</g>
		<g class="st1">
			<path class="st2" d="M270.1,335.6l6.2,10H261l-4.8-8.2h-7.6v8.2h-13v-34.9H263c7.9,0,13.4,5.6,13.4,13.4
				C276.3,329.1,274,333.3,270.1,335.6z M248.5,326.4h12c1.3,0,2.9,0,2.9-2.4s-1.6-2.4-2.9-2.4h-12V326.4z"/>
			<path class="st2" d="M291.3,345.6h-13v-34.9h13V345.6z"/>
		</g>
	</g>
</g>
</svg>
