<?xml version="1.0" encoding="utf-8"?>
<!-- Generator: Adobe Illustrator 22.1.0, SVG Export Plug-In . SVG Version: 6.00 Build 0)  -->
<svg version="1.1" id="Layer_1" xmlns="http://www.w3.org/2000/svg" xmlns:xlink="http://www.w3.org/1999/xlink" x="0px" y="0px"
	 viewBox="0 0 616.7 123" style="enable-background:new 0 0 616.7 123;" xml:space="preserve">
<style type="text/css">
	.st0{enable-background:new    ;}
</style>
<title>max-mockup3</title>
<g id="Layer_2_1_">
	<g id="Layer_1-2">
		<g>
			<path d="M46.7,0.8H14.1c0,3.9-1.1,5.9-3.6,9.8h38.6C49.2,6.7,49.1,4.7,46.7,0.8z M122.2,0.8c-2.3,3.9-4.7,5.9-9.5,9.8h38.4
				c2.5-3.9,3.6-5.9,3.6-9.8L122.2,0.8z M14.2,118.2h36c0-3.9,1.1-5.9,3.6-9.8H17.8C15.3,112.3,14.1,114.3,14.2,118.2L14.2,118.2z
				 M25.4,80.5c3.3,5.6,3.9,8.4,1.5,14h36c2.5-5.6,1.8-8.4-1.4-14H25.4z M70.1,80.5c6.7,5.6,9.1,8.4,10.1,14h33.4
				c5.8-5.6,6.8-8.4,6.9-14H70.1z M89.3,52.5c-0.3,4.3-2.6,6.5-3.8,10.8c-4-4.3-4.3-6.5-9.2-10.8H12.1c2.9,5.6,1.1,8.4,4,14h103.4
				c0.1-0.6,0.1-1.2,0.3-1.8c0.3,0.7,0.5,1.1,0.8,1.8h36.2c-2.9-5.6-1.1-8.4-4-14H89.3z M119,118.2h36.1c0-3.9,1.1-5.9,3.6-9.8
				h-36.1C120.1,112.3,119,114.3,119,118.2z M166.1,80.5h-36.1c3.3,5.6,3.9,8.4,1.4,14h36.2C170.1,88.9,169.4,86.1,166.1,80.5
				L166.1,80.5z M142.1,24.6H95.3c-5.8,5.6-6.8,8.4-6.8,14h55.2C140.4,33,139.7,30.2,142.1,24.6L142.1,24.6z M48.6,24.6H1.5
				c-2.5,5.6-1.8,8.4,1.4,14h55.6C51.9,33,49.5,30.2,48.6,24.6L48.6,24.6z"/>
		</g>
		<g>
			<path d="M252.9,7.9c-7.4-4.8-19.6-7.1-32.6-7.1h-57.9c0,3.9-1.1,5.9-3.6,9.8h97.3C255.2,9.6,254.1,8.7,252.9,7.9z M160.4,52.5
				c2.9,5.6,1.1,8.4,4,14H204c-2.9-5.6-1.1-8.4-4-14H160.4z M249.7,80.5c-2.4,4.5-8.9,6.8-17.2,6.8h-16.6c-0.4-2.7-1.1-4.1-2.7-6.8
				h-39.6c3.3,5.6,3.9,8.4,1.4,14h113.1c1.4-1.1,2.7-2.4,3.8-3.8c2.4-2.8,3.2-6.7,2.1-10.2L249.7,80.5z M162.4,118.3h57.9
				c12.6,0,25.1-2.4,36.7-7.1c2.1-0.8,4.1-1.7,6.3-2.7h-97.3C163.6,112.3,162.4,114.3,162.4,118.3L162.4,118.3z M284.2,52.5H244
				c1.6,2,2.5,4.5,2.6,7c0.1,2.4,0.6,4.8,1.4,7h40.1c-1-2.2-1.5-4.6-1.6-7C286.4,57,285.6,54.6,284.2,52.5z M264.4,28.2
				c-0.6-1.2-0.9-2.5-1.5-3.6H149.8c-2.5,5.6-1.8,8.4,1.4,14h39.6c-1.6-2.8-2.3-4.2-2.7-7h16.6c8.2,0,14.8,2.4,22.5,7h44.5
				C268.8,35.5,266.4,32,264.4,28.2z"/>
		</g>
		<g class="st0">
			<path d="M357.9,45.1l-0.1-16.9l-8.1,13.6h-5.5l-8.1-13v16.3h-11.4V8h10.3l12.1,19.8L358.9,8h10.3l0.1,37.1H357.9z"/>
		</g>
		<g class="st0">
			<path d="M400.8,38.6h-14.1l-2.5,6.5h-12.7L387.7,8H400l16.2,37.1h-12.9L400.8,38.6z M397.3,29.6l-3.6-9.3l-3.6,9.3H397.3z"/>
		</g>
		<g class="st0">
			<path d="M439.7,45.1l-6.4-9.9l-6.3,9.9h-14.3l13.4-18.7L413.2,8h14.1l6.3,9.3l6.2-9.3h13.5l-12.9,17.9L454,45.1H439.7z"/>
		</g>
		<g class="st0">
			<path d="M515.5,8l-11.9,37.1h-13.4l-6-19.8l-6.3,19.8h-13.4L452.6,8h12.9l6.5,21.1L478.8,8h11.5l6.5,21.4L503.6,8H515.5z"/>
		</g>
		<g class="st0">
			<path d="M549.2,35.6v9.4h-30.9V8h30.2v9.4h-17.9v4.3h15.7v9h-15.7v4.9H549.2z"/>
			<path d="M554,8h12.5v27.4h16.8v9.7H554V8z"/>
			<path d="M586.7,8h12.5v27.4H616v9.7h-29.3V8z"/>
		</g>
		<g class="st0">
			<path d="M324.8,71.6h18.3c4.1,0,7.8,0.8,10.9,2.3c3.2,1.5,5.6,3.6,7.4,6.4c1.8,2.8,2.6,6.1,2.6,9.9s-0.9,7.1-2.6,9.9
				c-1.8,2.8-4.2,4.9-7.4,6.4c-3.2,1.5-6.8,2.3-10.9,2.3h-18.3V71.6z M342.5,98.9c2.7,0,4.8-0.8,6.4-2.3c1.6-1.5,2.4-3.7,2.4-6.5
				s-0.8-5-2.4-6.5c-1.6-1.5-3.8-2.3-6.4-2.3h-5.2v17.6H342.5z"/>
			<path d="M399.4,99.3v9.4h-30.9V71.6h30.2V81h-17.9v4.3h15.7v9h-15.7v4.9H399.4z"/>
			<path d="M440.8,71.6v37.1h-10.3l-14.1-16.9v16.9h-12.2V71.6h10.3l14.1,16.9V71.6H440.8z"/>
			<path d="M472.2,102.2h-14.1l-2.5,6.5h-12.7l16.2-37.1h12.3l16.2,37.1h-12.9L472.2,102.2z M468.7,93.2l-3.6-9.3l-3.6,9.3H468.7z"
				/>
			<path d="M505.5,99.4h-3.4v9.3h-12.5V71.6h17.9c3.4,0,6.4,0.6,9,1.7s4.5,2.8,5.9,4.9c1.4,2.1,2.1,4.6,2.1,7.4c0,2.7-0.6,5-1.8,6.9
				c-1.2,2-2.9,3.6-5.2,4.7l7.8,11.5h-13.4L505.5,99.4z M510.5,82.4c-0.8-0.8-2.1-1.1-3.8-1.1h-4.6v8.7h4.6c1.7,0,3-0.4,3.8-1.1
				c0.8-0.8,1.3-1.8,1.3-3.2C511.8,84.2,511.3,83.1,510.5,82.4z"/>
			<path d="M529.1,71.6h12.5v37.1h-12.5V71.6z"/>
		</g>
	</g>
</g>
</svg>
