<?xml version="1.0" encoding="utf-8"?>
<!-- Generator: Adobe Illustrator 22.1.0, SVG Export Plug-In . SVG Version: 6.00 Build 0)  -->
<svg version="1.1" id="Layer_1" xmlns="http://www.w3.org/2000/svg" xmlns:xlink="http://www.w3.org/1999/xlink" x="0px" y="0px"
	 viewBox="0 0 645.8 171.1" style="enable-background:new 0 0 645.8 171.1;" xml:space="preserve">
<style type="text/css">
	.st0{enable-background:new    ;}
</style>
<title>max-mockup2</title>
<g id="Layer_2_1_">
	<g id="Layer_1-2">
		<g>
			<path d="M156.7,28.5c-2,20.4-8.2,40.8-26.5,51c-24.5,14.3-42.8,38.7-44.9,65.2c-10.2-4.1-16.3-12.2-26.5-14.3
				c2-32.6,24.5-57.1,46.9-79.5C87.3,65.2,69,79.5,56.8,99.9c-6.1-4.1-14.3-2-20.4-2c2-20.4,10.2-38.7,14.3-57.1
				c-12.2,28.5-28.5,59.1-26.5,91.7C13.9,136.6,7.8,144.8,1.7,155c-4.1-32.6,0-63.2,4.1-95.8c0-14.3,2-28.5-4.1-40.8
				C22.1,6.1,44.5,2,66.9,0c12.2,14.3,12.2,34.7,6.1,51c16.3-12.2,32.6-24.5,40.8-44.9C128.1,12.2,142.4,18.4,156.7,28.5L156.7,28.5
				z"/>
		</g>
		<g>
			<path d="M232.1,124.4c-8.1,24.5-30.6,38.7-55.1,44.9c-28.6,6.1-53-4.1-77.5-16.3c2-12.2,2-24.5,10.2-34.7
				c10.2-12.3,24.5-20.4,36.7-30.6c12.2-14.3,22.4-30.6,22.4-51c8.2,4.1,16.3,8.2,24.5,8.2c18.4,0,40.8,6.1,44.9,26.5
				C240.2,89.7,240.2,106,232.1,124.4L232.1,124.4z M195.4,120.3c0-6.1,6.1-14.3,4.1-20.4c-4.1-6.1-10.2-10.2-18.4-10.2
				c-8.2,20.4-26.5,32.6-34.7,53C166.9,150.9,189.3,140.7,195.4,120.3L195.4,120.3z"/>
		</g>
		<g class="st0">
			<path d="M341.6,29.2v49.4h-15.3V49.2l-4.6,21.2h-11.2L306,49.2v29.4h-15.3V29.2h18.1l7.3,24.2l7.3-24.2H341.6z"/>
			<path d="M379.9,72.2h-13.7l-1.7,6.4h-18.4l17.2-49.4h19.4l17.2,49.4h-18.4L379.9,72.2z M376.1,58.5L373,47.5l-3,11.1H376.1z"/>
			<path d="M433,53.3l13,25.3H431l-5.7-10.8l-5.8,10.8h-14.9l13-25.3l-13-24.1h16.1l4.7,9l4.6-9H446L433,53.3z"/>
			<path d="M515.4,29.2l-10.8,49.4h-15.1l-6.1-26l-6.1,26h-15.1l-10.8-49.4h15.3l5.1,25l6.1-25H489l6,25l5.2-25H515.4z"/>
		</g>
		<g class="st0">
			<path d="M538.4,43.2v3.4h19.1v12.9h-19.1v5h21.6v14l-38,0.1V29.3l38-0.1v14H538.4z"/>
		</g>
		<g class="st0">
			<path d="M602.9,78.5l-36.8,0.1V29.2H583v37.2h19.9V78.5z"/>
			<path d="M644.3,78.5l-36.8,0.1V29.2h16.9v37.2h19.9V78.5z"/>
		</g>
		<g class="st0">
			<path d="M333.7,126.8c-0.9,3.4-2.7,6.5-5.2,9.1c-2,2-4.5,3.7-7.4,5c-2.3,1-4.8,1.8-7.5,2.2c-2.6,0.4-5.1,0.6-7,0.6H291V94.3h13.8
				c2,0,5.3,0,9,0.6c2.7,0.5,5.3,1.2,7.5,2.2c3,1.3,5.5,3,7.5,5.1c2.4,2.4,3.9,5.1,4.8,8.3c0.7,2.9,1,5.7,1,7.8
				C334.7,120.8,334.5,123.7,333.7,126.8z M318.9,118.6c0-4.2-0.6-6.2-2.2-7.9c-1.2-1.3-3.3-2.2-6-2.7c-1.6-0.3-3-0.4-4.2-0.4v22.8
				c5.8-0.2,8.7-1.8,10-3.2C318.6,125.2,319,122.4,318.9,118.6z"/>
			<path d="M357.1,108.4v3.4h19.1v12.9h-19.1v5h21.6v14l-38,0.1V94.4l38-0.1v14H357.1z"/>
			<path d="M432,94.3v49.4h-21l-10.2-27.1l0.4,27.1h-15.7V94.3h19.8l11.4,28.6l-0.4-28.6H432z"/>
			<path d="M470.3,137.4h-13.7l-1.7,6.4h-18.4l17.2-49.4h19.4l17.2,49.4H472L470.3,137.4z M466.5,123.7l-3.1-11.1l-3,11.1H466.5z"/>
			<path d="M513.5,131.3H512v12.4h-16.4V94.3h19.4c5,0,9.7,1.3,13.4,3.7c3.6,2.3,6.2,5.6,7.6,9.5c0.7,1.8,2,6.4-0.2,11.6
				c-1.5,3.7-4.2,6.9-7.6,9c-0.1,0-0.1,0.1-0.2,0.1l10.4,15.6h-17.6L513.5,131.3z M515,107.9h-3v10h3.4c3.4,0,4.7-1.3,5.4-3.2
				c0.5-1.5,0-3,0-3.1C519.9,109.1,518,107.9,515,107.9z"/>
			<path d="M544.6,143.8V94.3H561v49.4H544.6z"/>
		</g>
	</g>
</g>
</svg>
