<?xml version="1.0" encoding="utf-8"?>
<!-- Generator: Adobe Illustrator 22.1.0, SVG Export Plug-In . SVG Version: 6.00 Build 0)  -->
<svg version="1.1" id="Layer_1" xmlns="http://www.w3.org/2000/svg" xmlns:xlink="http://www.w3.org/1999/xlink" x="0px" y="0px"
	 viewBox="0 0 762.5 98.7" style="enable-background:new 0 0 762.5 98.7;" xml:space="preserve">
<style type="text/css">
	.st0{enable-background:new    ;}
	.st1{fill:#010101;}
</style>
<title>max-final-horiz</title>
<g id="Layer_2_1_">
	<g id="Layer_1-2">
		<g class="st0">
			<path class="st1" d="M188.7,63.7h-13.4V49l-9.9,14.7h-8.8L146.8,49v14.7h-13.4V32.8h16.5l11.1,17.6l11.1-17.6h16.5V63.7z"/>
		</g>
		<g class="st0">
			<path class="st1" d="M223,58.1h-15.4l-2.5,5.6h-14.8l15-30.9h19.9l15,30.9h-14.8L223,58.1z M219.5,50.2l-4.2-9.4l-4.2,9.4H219.5z
				"/>
			<path class="st1" d="M258.9,48.3l-17.1-15.4h17.5l9.1,8.8l9.1-8.8H295L278,48.3L295,63.7h-17.5l-9.1-8.8l-9.1,8.8h-17.5
				L258.9,48.3z"/>
			<path class="st1" d="M372,32.8l-11.9,30.9h-19.9l-5.9-17.8l-5.9,17.8h-19.9l-11.9-30.9H311l7.5,21.8l7.8-21.8h16l7.8,21.8
				l7.5-21.8H372z"/>
			<path class="st1" d="M387.5,41.6v2.9h24.8V52h-24.8v2.9h24.8v8.8h-38.2V32.8h38.2v8.8H387.5z"/>
			<path class="st1" d="M451.4,54v9.7h-37.1V32.8h13.4V54H451.4z"/>
			<path class="st1" d="M490.7,54v9.7h-37.1V32.8h13.4V54H490.7z"/>
			<path class="st1" d="M557.6,48.3c0,10.5-8.2,15.4-16.9,15.4h-26.8V32.8h26.8C549.4,32.8,557.6,37.8,557.6,48.3z M544.2,48.3
				c0-5.7-4.7-5.7-7.6-5.7h-9.3V54h9.3C539.4,54,544.2,54,544.2,48.3z"/>
			<path class="st1" d="M573.1,41.6v2.9h24.8V52h-24.8v2.9h24.8v8.8h-38.2V32.8h38.2v8.8H573.1z"/>
		</g>
		<g class="st0">
			<path class="st1" d="M647.8,32.8v30.9h-17.5l-15.6-18.2v18.2h-13.4V32.8h17.5L634.4,51V32.8H647.8z"/>
			<path class="st1" d="M681.5,58.1h-15.4l-2.5,5.6h-14.8l15-30.9h19.9l15,30.9h-14.8L681.5,58.1z M678,50.2l-4.2-9.4l-4.2,9.4H678z
				"/>
		</g>
		<g class="st0">
			<path class="st1" d="M736.9,54.8l6.4,8.9h-15.9l-5-7.2h-7.9v7.2h-13.4V32.8h28.4c8.2,0,13.8,4.9,13.8,11.8
				C743.3,49.1,740.8,52.8,736.9,54.8z M714.5,46.8h12.4c1.3,0,3,0,3-2.1c0-2.1-1.7-2.1-3-2.1h-12.4V46.8z"/>
			<path class="st1" d="M758.7,63.7h-13.4V32.8h13.4V63.7z"/>
		</g>
		<path class="st1" d="M60.8,34.5c-0.5,5.3-2.1,10.6-6.9,13.3c-6.4,3.7-11.2,10.1-11.7,17c-2.7-1.1-4.2-3.2-6.9-3.7
			c0.5-8.5,6.4-14.9,12.2-20.7c-4.8,3.7-9.6,7.4-12.8,12.8c-1.6-1.1-3.7-0.5-5.3-0.5c0.5-5.3,2.7-10.1,3.7-14.9
			c-3.1,7.5-7.4,15.4-6.9,23.9c-2.6,1.1-4.2,3.2-5.8,5.8c-1.1-8.5,0-16.5,1.1-25c0-3.7,0.5-7.5-1.1-10.6c5.3-3.2,11.2-4.2,17-4.8
			c3.2,3.7,3.2,9,1.6,13.3c4.3-3.2,8.5-6.4,10.6-11.7C53.5,30.2,57.3,32.1,60.8,34.5z"/>
		<path class="st1" d="M80.4,59.5c-2.1,6.4-8,10.1-14.4,11.7c-7.4,1.6-13.8-1.1-20.2-4.2c0.5-3.2,0.5-6.4,2.7-9
			c2.7-3.2,6.4-5.3,9.6-8C61.3,46.2,64,42,64,36.6c2.1,1.1,4.2,2.1,6.4,2.1c4.8,0,10.6,1.6,11.7,6.9C82.6,50.5,82.6,54.7,80.4,59.5
			L80.4,59.5z M70.9,58.4c0-1.6,1.6-3.7,1.1-5.3c-1-1.7-2.8-2.7-4.8-2.7c-2.1,5.3-6.9,8.5-9,13.8c4.8,2.1,10.4-0.1,12.4-4.9
			C70.7,59,70.8,58.7,70.9,58.4L70.9,58.4z"/>
		<path class="st1" d="M49.4,98.7C22.1,98.7,0,76.6,0,49.4S22.1,0,49.4,0s49.4,22.1,49.4,49.4l0,0C98.7,76.6,76.6,98.7,49.4,98.7z
			 M49.4,2C23.2,2,2,23.2,2,49.4s21.2,47.4,47.4,47.4s47.4-21.2,47.4-47.4l0,0C96.7,23.2,75.5,2,49.4,2z"/>
	</g>
</g>
</svg>
