<?xml version="1.0" encoding="utf-8"?>
<!-- Generator: Adobe Illustrator 22.1.0, SVG Export Plug-In . SVG Version: 6.00 Build 0)  -->
<svg version="1.1" id="Layer_1" xmlns="http://www.w3.org/2000/svg" xmlns:xlink="http://www.w3.org/1999/xlink" x="0px" y="0px"
	 viewBox="0 0 695.6 133.4" style="enable-background:new 0 0 695.6 133.4;" xml:space="preserve">
<style type="text/css">
	.st0{enable-background:new    ;}
</style>
<title>max-mockup1</title>
<g id="Layer_2_1_">
	<g id="Layer_1-2">
		<path d="M46.7,13.3H14.1c0,3.9-1.1,5.9-3.6,9.8h38.6C49.2,19.2,49.1,17.2,46.7,13.3z M122.2,13.3c-2.3,3.9-4.7,5.9-9.5,9.8h38.4
			c2.5-3.9,3.6-5.9,3.6-9.8L122.2,13.3z M14.2,130.7h36c0-3.9,1.1-5.9,3.6-9.8H17.8C15.3,124.9,14.1,126.8,14.2,130.7L14.2,130.7z
			 M25.4,93c3.3,5.6,3.9,8.4,1.5,14h36.1c2.5-5.6,1.8-8.4-1.4-14H25.4z M70.1,93c6.7,5.6,9.1,8.4,10.1,14h33.4
			c5.8-5.6,6.8-8.4,6.9-14H70.1z M89.3,65c-0.3,4.3-2.6,6.5-3.8,10.8c-4-4.3-4.3-6.4-9.2-10.8H12.1c2.9,5.6,1.1,8.4,4,14h103.4
			c0.1-0.6,0.1-1.2,0.3-1.8c0.3,0.7,0.5,1.1,0.8,1.8h36.2c-2.9-5.6-1.1-8.4-4-14L89.3,65z M119,130.7h36.1c0-3.9,1.1-5.9,3.6-9.8
			h-36.1C120.1,124.9,119,126.8,119,130.7z M166.1,93h-36.1c3.3,5.6,3.9,8.4,1.4,14h36.2C170.1,101.4,169.4,98.6,166.1,93z
			 M142.1,37.1H95.3c-5.8,5.6-6.8,8.4-6.8,14h55.2C140.4,45.5,139.7,42.7,142.1,37.1L142.1,37.1z M48.6,37.1H1.5
			c-2.5,5.6-1.8,8.4,1.4,14h55.6C51.9,45.5,49.5,42.7,48.6,37.1L48.6,37.1z"/>
		<path d="M252.9,20.5c-7.4-4.8-19.6-7.1-32.6-7.1h-57.9c0,3.9-1.1,5.9-3.6,9.8h97.3C255.2,22.1,254.1,21.2,252.9,20.5z M160.4,65
			c2.9,5.6,1.1,8.4,4,14H204c-2.9-5.6-1.1-8.4-4-14H160.4z M249.7,93c-2.4,4.5-8.9,6.8-17.2,6.8h-16.6c-0.4-2.7-1.1-4.1-2.7-6.8
			h-39.6c3.3,5.6,3.9,8.4,1.4,14h113.1c1.4-1.1,2.7-2.4,3.8-3.8c2.4-2.8,3.2-6.7,2.1-10.2H249.7z M162.4,130.7h57.9
			c12.6,0,25.1-2.4,36.7-7.1c2.1-0.8,4.1-1.7,6.3-2.7h-97.3C163.6,124.9,162.4,126.8,162.4,130.7z M284.2,65H244
			c1.6,2,2.5,4.5,2.6,7c0.1,2.4,0.6,4.8,1.4,7h40.1c-1-2.2-1.5-4.6-1.6-7C286.4,69.5,285.6,67.1,284.2,65z M264.4,40.7
			c-0.6-1.3-0.9-2.5-1.5-3.6H149.8c-2.5,5.6-1.8,8.4,1.4,14h39.6c-1.6-2.8-2.3-4.2-2.7-7h16.6c8.2,0,14.8,2.4,22.5,7h44.5
			C268.8,48,266.4,44.5,264.4,40.7z"/>
		<g class="st0">
			<path d="M391.3,10.3v49.4h-15.3V30.3l-4.6,21.2h-11.2l-4.6-21.2v29.4h-15.3V10.3h18.1l7.3,24.2l7.3-24.2H391.3z"/>
			<path d="M429.6,53.4h-13.7l-1.7,6.4h-18.4l17.2-49.4h19.4l17.2,49.4h-18.4L429.6,53.4z M425.9,39.7l-3.1-11.1l-3,11.1H425.9z"/>
			<path d="M482.8,34.4l13,25.3h-14.9L475.1,49l-5.8,10.8h-14.9l13-25.3l-13-24.1h16.1l4.7,9l4.6-9h16.1L482.8,34.4z"/>
			<path d="M565.2,10.3l-10.8,49.4h-15.1l-6.1-26l-6.1,26h-15.1l-10.8-49.4h15.3l5.1,25l6.1-25h11.2l6,25l5.2-25H565.2z"/>
		</g>
		<g class="st0">
			<path d="M588.1,24.4v3.4h19.1v12.9h-19.1v5h21.6v14l-38,0.1V10.4l38-0.1v14H588.1z"/>
		</g>
		<g class="st0">
			<path d="M652.7,59.7l-36.8,0.1V10.3h16.9v37.2h19.9V59.7z"/>
			<path d="M694.1,59.7l-36.8,0.1V10.3h16.9v37.2h19.9V59.7z"/>
		</g>
		<g class="st0">
			<path d="M383.5,107.9c-0.9,3.4-2.7,6.5-5.2,9.1c-2,2-4.5,3.7-7.4,5c-2.3,1-4.8,1.8-7.5,2.2c-2.6,0.4-5.1,0.6-7,0.6h-15.6V75.5
				h13.8c2,0,5.3,0,9,0.6c2.7,0.5,5.3,1.2,7.5,2.2c3,1.3,5.5,3,7.5,5.1c2.4,2.4,3.9,5.1,4.8,8.3c0.7,2.9,1,5.7,1,7.8
				C384.5,101.9,384.3,104.9,383.5,107.9z M368.7,99.8c0-4.2-0.6-6.2-2.2-7.9c-1.2-1.3-3.3-2.2-6-2.7c-1.6-0.3-3-0.4-4.2-0.4v22.8
				c5.8-0.2,8.7-1.8,10-3.2C368.4,106.4,368.8,103.6,368.7,99.8z"/>
			<path d="M406.8,89.5V93h19.1v12.9h-19.1v5h21.6v14l-38,0.1V75.6l38-0.1v14H406.8z"/>
			<path d="M481.8,75.5v49.4h-21l-10.2-27.1l0.4,27.1h-15.7V75.5H455l11.4,28.6L466,75.5H481.8z"/>
			<path d="M520.1,118.5h-13.7l-1.7,6.4h-18.4l17.2-49.4H523l17.2,49.4h-18.4L520.1,118.5z M516.3,104.9l-3.1-11.1l-3,11.1H516.3z"
				/>
			<path d="M563.3,112.5h-1.6v12.4h-16.4V75.5h19.4c5,0,9.7,1.3,13.4,3.7c3.6,2.3,6.2,5.6,7.6,9.5c0.7,1.8,2,6.4-0.2,11.6
				c-1.5,3.7-4.2,6.9-7.6,9c-0.1,0-0.1,0.1-0.2,0.1l10.4,15.6h-17.6L563.3,112.5z M564.8,89h-3v10h3.4c3.4,0,4.7-1.3,5.4-3.2
				c0.5-1.5,0-3,0-3.1C569.7,90.3,567.8,89,564.8,89z"/>
			<path d="M594.4,124.9V75.5h16.4v49.4H594.4z"/>
		</g>
	</g>
</g>
</svg>
