<?xml version="1.0" encoding="utf-8"?>
<!-- Generator: Adobe Illustrator 22.1.0, SVG Export Plug-In . SVG Version: 6.00 Build 0)  -->
<svg version="1.1" id="Layer_1" xmlns="http://www.w3.org/2000/svg" xmlns:xlink="http://www.w3.org/1999/xlink" x="0px" y="0px"
	 viewBox="0 0 766.2 162.5" style="enable-background:new 0 0 766.2 162.5;" xml:space="preserve">
<style type="text/css">
	.st0{enable-background:new    ;}
</style>
<title>max-mockup4</title>
<g id="Layer_2_1_">
	<g id="Layer_1-2">
		<g>
			<path d="M133.6,117.9c-10.8,5.6-21.6,11.7-32.4,17c3.5-20,5.2-34,5.2-52c-6.6,24.2-12.8,35.9-29,61.8c-8.5,2.6-12.7,3.5-21.2,4.3
				c4.8-33.8,0.4-38.8-13.4-65.3c0.1,27.2-2.8,40.7-10.4,62.4C21.6,142.5,10.8,135.6,0,124V36.8c13.3-14.2,26.6-21.5,39.9-24.1
				c20,22.9,34.4,43,45.5,76.5c3.3-11.3,8.3-22.7,9.3-33.5s-2.8-22.1-1-33.3c13.3,6,26.6,13.5,39.9,20.5
				C130.8,67.8,130.8,93,133.6,117.9z"/>
		</g>
		<g>
			<path d="M244.2,80.4c0,12-4.3,20.9-11.5,22.9c-7.3,2.6-17.5-1.8-29.3-3.6c-21.6-3.8-43.2,4.7-64.8,15.6
				c-5.1-20.5-5.1-49.4,0-69.9c21.6,10.9,43.2,19.4,64.8,15.6c11.9-1.7,22.1-6.1,29.3-3.5C239.9,59.5,244.2,68.4,244.2,80.4z
				 M200.9,80.4c0-6-15.3-6.6-26-7.7c-11.5-1.1-15.7-1.8-21.9-2.7v20.8c6.1-0.9,10.4-1.7,21.8-2.8C185.6,87,200.9,86.4,200.9,80.4z"
				/>
		</g>
		<g class="st0">
			<path d="M370.1,58h-17.8V35.3l-13,22.7h-11.6l-13-22.7V58h-17.8V10.2h21.9l14.7,27.3l14.7-27.3h21.9V58z"/>
		</g>
		<g class="st0">
			<path d="M414.6,49.4h-20.3L391,58h-19.5l19.8-47.8h26.4L437.4,58h-19.5L414.6,49.4z M410,37.1l-5.5-14.6l-5.5,14.6H410z"/>
			<path d="M461.4,34.1l-22.6-23.9H462l12,13.7l12-13.7h23.2l-22.6,23.9L509.3,58h-23.2l-12-13.7L462,58h-23.2L461.4,34.1z"/>
			<path d="M610.5,10.2L594.8,58h-26.4l-7.9-27.5L552.7,58h-26.4l-15.7-47.8h19.1l9.9,33.7L550,10.2h21.2L581.5,44l9.9-33.7H610.5z"
				/>
			<path d="M630.3,23.9v4.4h32.8v11.6h-32.8v4.4h32.8V58h-50.5V10.2h50.5v13.7H630.3z"/>
			<path d="M714.3,43v15h-49.2V10.2h17.8V43H714.3z"/>
			<path d="M765.5,43v15h-49.2V10.2h17.8V43H765.5z"/>
		</g>
		<g class="st0">
			<path d="M354.8,116.1c0,16.3-10.9,23.9-22.4,23.9h-35.5V92.2h35.5C344,92.2,354.8,99.8,354.8,116.1z M337.1,116.1
				c0-8.9-6.3-8.9-10.1-8.9h-12.3V125H327C330.8,125,337.1,125,337.1,116.1z"/>
			<path d="M374.6,105.8v4.4h32.8v11.6h-32.8v4.4h32.8V140h-50.5V92.2h50.5v13.7H374.6z"/>
		</g>
		<g class="st0">
			<path d="M471,92.2V140h-23.2l-20.6-28.2V140h-17.8V92.2h23.2l20.6,28.2V92.2H471z"/>
			<path d="M514.9,131.4h-20.3l-3.3,8.6h-19.5l19.8-47.8h26.4l19.8,47.8h-19.5L514.9,131.4z M510.2,119.1l-5.5-14.6l-5.5,14.6H510.2
				z"/>
		</g>
		<g class="st0">
			<path d="M587.1,126.3l8.5,13.7h-21l-6.6-11.2h-10.4V140h-17.8V92.2h37.6c10.9,0,18.3,7.6,18.3,18.3
				C595.6,117.4,592.4,123.2,587.1,126.3z M557.5,113.8h16.4c1.8,0,4,0,4-3.3s-2.2-3.3-4-3.3h-16.4V113.8z"/>
			<path d="M615.4,140h-17.8V92.2h17.8V140z"/>
		</g>
	</g>
</g>
</svg>
