<?xml version="1.0" encoding="utf-8"?>
<!-- Generator: Adobe Illustrator 22.1.0, SVG Export Plug-In . SVG Version: 6.00 Build 0)  -->
<svg version="1.1" id="Layer_1" xmlns="http://www.w3.org/2000/svg" xmlns:xlink="http://www.w3.org/1999/xlink" x="0px" y="0px"
	 viewBox="0 0 256.7 188.5" style="enable-background:new 0 0 256.7 188.5;" xml:space="preserve">
<style type="text/css">
	.st0{enable-background:new    ;}
</style>
<title>max-mtv</title>
<g id="Layer_2_1_">
	<g id="Layer_1-2">
		<g>
			<path d="M133.6,105.2c-10.8,5.6-21.6,11.7-32.4,17c3.5-20,5.2-34,5.2-52c-6.6,24.2-12.8,35.9-29,61.8c-8.5,2.6-12.7,3.5-21.2,4.3
				C61,102.5,56.6,97.5,42.8,71c0.1,27.2-2.8,40.7-10.4,62.4c-10.8-3.6-21.6-10.5-32.4-22.1V24.1C13.3,9.8,26.6,2.6,39.9,0
				c20,22.9,34.4,43,45.5,76.5c3.3-11.3,8.3-22.7,9.3-33.5s-2.8-22.1-1-33.3c13.3,6,26.6,13.5,39.9,20.5
				C130.8,55.1,130.8,80.3,133.6,105.2z"/>
		</g>
		<g>
			<path d="M244.2,67.7c0,12-4.3,20.9-11.5,22.9c-7.3,2.6-17.5-1.8-29.3-3.6c-21.6-3.8-43.2,4.7-64.8,15.6
				c-5.1-20.5-5.1-49.4,0-69.9c21.6,10.9,43.2,19.4,64.8,15.6c11.9-1.7,22.1-6.1,29.3-3.5C239.9,46.8,244.2,55.7,244.2,67.7z
				 M200.9,67.7c0-6-15.3-6.6-26-7.7c-11.4-1.1-15.7-1.8-21.8-2.8v20.9c6.1-0.9,10.4-1.7,21.8-2.8C185.6,74.3,200.9,73.7,200.9,67.7
				z"/>
		</g>
		<g>
			<path d="M57.6,138.9l0.1-0.6c4.5-31.3,1-37.9-10.6-59.8c-0.6-1.1-1.2-2.2-1.8-3.4c-0.1,26.7-3.2,39.9-10.4,60.6l-0.2,0.5
				l-0.5-0.2c-11.5-3.8-22.2-11.1-32.6-22.3l-0.1-0.1V25.9l0.1-0.1C14.2,12.2,27.4,4.3,41.8,1.5l0.3-0.1l0.2,0.2
				c20.3,23.2,34.2,43,45,75.1c0.9-3.1,2-6.2,3-9.3c2.6-7.9,5.1-15.3,5.9-22.6c0.5-4.9-0.1-9.8-0.7-15c-0.7-6-1.4-12.2-0.3-18.3
				l0.1-0.6l0.6,0.3c9.5,4.3,19.2,9.5,28.5,14.5c3.7,2,7.6,4.1,11.4,6l0.3,0.2l0,0.3c-2.7,24.9-2.7,50.1,0.1,75l0,0.3l-0.3,0.2
				c-3.9,2-7.9,4.2-11.7,6.2c-6.8,3.6-13.8,7.4-20.7,10.8l-0.9,0.4l0.2-1c3-17.2,4.9-30.9,5.1-48.1c-6.1,21.3-12.1,32.9-28,58.3
				l-0.1,0.2l-0.2,0.1c-8.4,2.6-12.7,3.5-21.3,4.3L57.6,138.9z M45.2,72.8c1,1.8,1.9,3.6,2.7,5.2c11.6,22,15.2,28.7,10.8,59.8
				c8-0.7,12.2-1.7,20.3-4.1c16.6-26.7,22.5-38,28.8-61.5l1,0.1c0,18.7-1.8,33-5,51.1c6.6-3.3,13.3-6.9,19.8-10.3
				c3.7-2,7.6-4.1,11.4-6.1c-2.7-24.7-2.7-49.8-0.1-74.5c-3.7-1.9-7.5-3.9-11.1-5.9c-9.1-4.9-18.6-9.9-27.8-14.2
				c-0.8,5.8-0.2,11.7,0.4,17.4c0.6,5,1.1,10.2,0.7,15.2c-0.7,7.4-3.4,15.3-5.9,22.8c-1.2,3.5-2.4,7.2-3.4,10.8l-0.4,1.6l-0.5-1.5
				C76,45.9,62.1,25.9,41.7,2.5c-14,2.8-26.8,10.5-39.2,23.7v86.8c10.1,10.8,20.4,17.9,31.6,21.7C41.3,114,44.4,100.7,44.3,73
				L45.2,72.8z"/>
		</g>
		<g>
			<path d="M140.2,105.4l-0.2-0.6c-5.2-20.7-5.2-49.5,0-70.2l0.2-0.6l0.6,0.3c20.5,10.4,42.5,19.4,64.5,15.6
				c3.9-0.6,7.5-1.4,11.1-2.2c7.2-1.7,13.5-3.1,18.5-1.3c7.3,2,11.9,11,11.9,23.4c0,12.4-4.6,21.4-11.9,23.4
				c-5,1.8-11.2,0.3-18.5-1.3c-3.5-0.8-7.2-1.6-11-2.2c-22.1-3.9-44,5.2-64.5,15.6L140.2,105.4z M140.9,35.5
				c-4.9,20.3-4.9,48.2,0,68.5c20.5-10.3,42.4-19.3,64.6-15.4c3.9,0.6,7.6,1.4,11.1,2.2c7.1,1.6,13.2,3,18,1.4
				c6.9-1.9,11.2-10.5,11.2-22.4c0-11.9-4.3-20.5-11.2-22.4c-4.8-1.7-10.9-0.3-18,1.3c-3.5,0.8-7.2,1.7-11.1,2.2
				C183.3,54.7,161.4,45.8,140.9,35.5z M154.6,80.7v-22l3,0.5c5.1,0.8,9.5,1.5,19.4,2.4c1.1,0.1,2.3,0.2,3.5,0.3
				c10.8,0.9,23,2,23,7.8c0,5.8-12.3,6.9-23.2,7.9c-1.1,0.1-2.2,0.2-3.3,0.3c-9.9,0.9-14.3,1.6-19.4,2.4L154.6,80.7z M155.6,59.8
				v19.7l1.8-0.3c5.1-0.8,9.6-1.5,19.5-2.4c1.1-0.1,2.2-0.2,3.3-0.3c9.9-0.9,22.2-1.9,22.2-6.9c0-4.9-12.2-6-22.1-6.8
				c-1.2-0.1-2.4-0.2-3.5-0.3c-9.9-0.9-14.3-1.6-19.5-2.4L155.6,59.8z"/>
		</g>
		<g>
			<path d="M59.6,140.9l0.1-0.6c4.5-31.3,1-37.9-10.6-59.8c-0.6-1.1-1.2-2.2-1.8-3.4c-0.1,26.7-3.2,39.9-10.4,60.6l-0.2,0.5
				l-0.5-0.2c-11.5-3.8-22.2-11.1-32.6-22.3l-0.1-0.1V27.9l0.1-0.1C16.2,14.2,29.4,6.3,43.8,3.5l0.3-0.1l0.2,0.2
				c20.3,23.2,34.2,43,45,75.1c0.9-3.1,2-6.2,3-9.3c2.6-7.9,5.1-15.3,5.9-22.6c0.5-4.9-0.1-9.8-0.7-15c-0.7-6-1.4-12.2-0.3-18.3
				l0.1-0.6l0.6,0.3c9.5,4.3,19.2,9.5,28.5,14.5c3.7,2,7.6,4.1,11.4,6l0.3,0.2l0,0.3c-2.7,24.9-2.7,50.1,0.1,75l0,0.3l-0.3,0.2
				c-3.9,2-7.9,4.2-11.7,6.2c-6.8,3.6-13.8,7.4-20.7,10.8l-0.9,0.4l0.2-1c3-17.2,4.9-30.9,5.1-48.1c-6.1,21.3-12.1,32.9-28,58.3
				l-0.1,0.2l-0.2,0.1c-8.4,2.6-12.7,3.5-21.3,4.3L59.6,140.9z M47.2,74.8c1,1.8,1.9,3.6,2.7,5.2c11.6,22,15.2,28.7,10.8,59.8
				c8-0.7,12.2-1.7,20.3-4.1c16.6-26.7,22.5-38,28.8-61.5l1,0.1c0,18.7-1.8,33-5,51.1c6.6-3.3,13.3-6.9,19.8-10.3
				c3.7-2,7.6-4.1,11.4-6.1c-2.7-24.7-2.7-49.8-0.1-74.5c-3.7-1.9-7.5-3.9-11.1-5.9c-9.1-4.9-18.6-9.9-27.8-14.2
				c-0.8,5.8-0.2,11.7,0.4,17.4c0.6,5,1.1,10.2,0.7,15.2c-0.7,7.4-3.4,15.3-5.9,22.8c-1.2,3.5-2.4,7.2-3.4,10.8l-0.4,1.6l-0.5-1.5
				C78,47.9,64.1,27.9,43.7,4.5c-14,2.8-26.8,10.5-39.2,23.7v86.8c10.1,10.8,20.4,17.9,31.6,21.7C43.3,116,46.4,102.7,46.3,75
				L47.2,74.8z"/>
		</g>
		<g>
			<path d="M142.2,107.4l-0.2-0.6c-5.2-20.7-5.2-49.5,0-70.2l0.2-0.6l0.6,0.3c20.5,10.4,42.5,19.4,64.5,15.6
				c3.9-0.6,7.5-1.4,11.1-2.2c7.2-1.7,13.5-3.1,18.5-1.3c7.3,2,11.9,11,11.9,23.4c0,12.4-4.6,21.4-11.9,23.4
				c-5,1.7-11.2,0.3-18.5-1.3c-3.5-0.8-7.2-1.6-11-2.2c-22.1-3.9-44,5.2-64.5,15.6L142.2,107.4z M142.9,37.5
				c-4.9,20.3-4.9,48.2,0,68.5c20.5-10.3,42.4-19.3,64.6-15.4c3.9,0.6,7.6,1.4,11.1,2.2c7.1,1.6,13.2,3,18,1.4
				c6.9-1.9,11.2-10.5,11.2-22.4c0-11.9-4.3-20.5-11.2-22.4c-4.8-1.7-10.9-0.3-18,1.3c-3.5,0.8-7.2,1.7-11.1,2.2
				C185.3,56.7,163.4,47.8,142.9,37.5z M156.6,82.7v-22l3,0.5c5.1,0.8,9.5,1.5,19.4,2.4c1.1,0.1,2.3,0.2,3.5,0.3
				c10.8,0.9,23,2,23,7.8c0,5.8-12.3,6.9-23.2,7.9c-1.1,0.1-2.2,0.2-3.3,0.3c-9.9,0.9-14.3,1.6-19.4,2.4L156.6,82.7z M157.6,61.8
				v19.7l1.8-0.3c5.1-0.8,9.6-1.5,19.5-2.4c1.1-0.1,2.2-0.2,3.3-0.3c9.9-0.9,22.2-1.9,22.2-6.9c0-4.9-12.2-6-22.1-6.8
				c-1.2-0.1-2.4-0.2-3.5-0.3c-9.9-0.9-14.3-1.6-19.5-2.4L157.6,61.8z"/>
		</g>
		<g>
			<path d="M61.6,142.9l0.1-0.6c4.5-31.3,1-37.9-10.6-59.8c-0.6-1.1-1.2-2.2-1.8-3.4c-0.1,26.7-3.2,39.9-10.4,60.6l-0.2,0.5
				l-0.5-0.2c-11.5-3.8-22.2-11.1-32.6-22.3l-0.1-0.1V29.9l0.1-0.1C18.2,16.2,31.4,8.3,45.8,5.5l0.3-0.1l0.2,0.2
				c20.3,23.2,34.2,43,45,75.1c0.9-3.1,2-6.2,3-9.3c2.6-7.9,5.1-15.3,5.9-22.6c0.5-4.9-0.1-9.8-0.7-15c-0.7-6-1.4-12.2-0.3-18.3
				l0.1-0.6l0.6,0.3c9.5,4.3,19.2,9.5,28.5,14.5c3.7,2,7.6,4.1,11.4,6l0.3,0.2l0,0.3c-2.7,24.9-2.7,50.1,0.1,75l0,0.3l-0.3,0.2
				c-3.9,2-7.9,4.2-11.7,6.2c-6.8,3.6-13.8,7.4-20.7,10.8l-0.9,0.4l0.2-1c3-17.2,4.9-30.9,5.1-48.1c-6.1,21.3-12.1,32.9-28,58.3
				l-0.1,0.2l-0.2,0.1c-8.4,2.6-12.7,3.5-21.3,4.3L61.6,142.9z M49.2,76.8c1,1.8,1.9,3.6,2.7,5.2c11.6,22,15.2,28.7,10.8,59.8
				c8-0.7,12.2-1.7,20.3-4.1c16.6-26.7,22.5-38,28.8-61.5l1,0.1c0,18.7-1.8,33-5,51.1c6.6-3.3,13.3-6.9,19.8-10.3
				c3.7-2,7.6-4.1,11.4-6.1c-2.7-24.7-2.7-49.8-0.1-74.5c-3.7-1.9-7.5-3.9-11.1-5.9c-9.1-4.9-18.6-9.9-27.8-14.2
				c-0.8,5.8-0.2,11.7,0.4,17.4c0.6,5,1.1,10.2,0.7,15.2c-0.7,7.4-3.4,15.3-5.9,22.8c-1.2,3.5-2.4,7.2-3.4,10.8l-0.4,1.6l-0.5-1.5
				C80,49.9,66.1,29.9,45.7,6.5c-14,2.8-26.8,10.5-39.2,23.7v86.8c10.1,10.8,20.4,17.9,31.6,21.7C45.3,118,48.4,104.7,48.3,77
				L49.2,76.8z"/>
		</g>
		<g>
			<path d="M144.2,109.4l-0.2-0.6c-5.2-20.7-5.2-49.5,0-70.2l0.2-0.6l0.6,0.3c20.5,10.4,42.5,19.4,64.5,15.6
				c3.9-0.6,7.5-1.4,11.1-2.2c7.2-1.7,13.5-3.1,18.5-1.3c7.3,2,11.9,11,11.9,23.4c0,12.4-4.6,21.4-11.9,23.4
				c-5,1.7-11.2,0.3-18.5-1.3c-3.5-0.8-7.2-1.6-11-2.2c-22.1-3.9-44,5.2-64.5,15.6L144.2,109.4z M144.9,39.5
				c-4.9,20.3-4.9,48.2,0,68.5c20.5-10.3,42.4-19.3,64.6-15.4c3.9,0.6,7.6,1.4,11.1,2.2c7.1,1.6,13.2,3,18,1.4
				c6.9-1.9,11.2-10.5,11.2-22.4c0-11.9-4.3-20.5-11.2-22.4c-4.8-1.7-10.9-0.3-18,1.3c-3.5,0.8-7.2,1.7-11.1,2.2
				C187.3,58.7,165.4,49.8,144.9,39.5z M158.6,84.7v-22l3,0.5c5.1,0.8,9.5,1.5,19.4,2.4c1.1,0.1,2.3,0.2,3.5,0.3
				c10.8,0.9,23,2,23,7.8c0,5.8-12.3,6.9-23.2,7.9c-1.1,0.1-2.2,0.2-3.3,0.3c-9.9,0.9-14.3,1.6-19.4,2.4L158.6,84.7z M159.6,63.8
				v19.7l1.8-0.3c5.1-0.8,9.6-1.5,19.5-2.4c1.1-0.1,2.2-0.2,3.3-0.3c9.9-0.9,22.2-1.9,22.2-6.9c0-4.9-12.2-6-22.1-6.8
				c-1.2-0.1-2.4-0.2-3.5-0.3c-9.9-0.9-14.3-1.6-19.5-2.4L159.6,63.8z"/>
		</g>
		<g>
			<path d="M63.6,144.9l0.1-0.6c4.5-31.3,1-37.9-10.6-59.8c-0.6-1.1-1.2-2.2-1.8-3.4c-0.1,26.7-3.2,39.9-10.4,60.6l-0.2,0.5
				l-0.5-0.2c-11.5-3.8-22.2-11.1-32.6-22.3l-0.1-0.1V31.9l0.1-0.1C20.2,18.2,33.4,10.3,47.8,7.5l0.3-0.1l0.2,0.2
				c20.3,23.2,34.2,43,45,75.1c0.9-3.1,2-6.2,3-9.3c2.6-7.9,5.1-15.3,5.9-22.6c0.5-4.9-0.1-9.8-0.7-15c-0.7-6-1.4-12.2-0.3-18.3
				l0.1-0.6l0.6,0.3c9.5,4.3,19.2,9.5,28.5,14.5c3.7,2,7.6,4.1,11.4,6l0.3,0.2l0,0.3c-2.7,24.9-2.7,50.1,0.1,74.9l0,0.3l-0.3,0.2
				c-3.9,2-7.9,4.2-11.7,6.2c-6.8,3.6-13.8,7.4-20.7,10.8l-0.9,0.4l0.2-1c3-17.2,4.9-30.9,5.1-48.1c-6.1,21.3-12.1,32.9-28,58.3
				l-0.1,0.2l-0.2,0.1c-8.4,2.6-12.7,3.5-21.3,4.3L63.6,144.9z M51.2,78.8c1,1.8,1.9,3.6,2.7,5.2c11.6,22,15.2,28.7,10.8,59.8
				c8-0.7,12.2-1.7,20.3-4.1c16.6-26.7,22.5-38,28.8-61.5l1,0.1c0,18.7-1.8,33-5,51.1c6.6-3.3,13.3-6.9,19.8-10.3
				c3.7-2,7.6-4.1,11.4-6.1c-2.7-24.7-2.7-49.8-0.1-74.5c-3.7-1.9-7.5-3.9-11.1-5.9c-9.1-4.9-18.6-9.9-27.9-14.2
				c-0.8,5.8-0.2,11.7,0.4,17.4c0.6,5,1.1,10.2,0.7,15.2c-0.7,7.4-3.4,15.2-5.9,22.8c-1.2,3.5-2.4,7.2-3.4,10.8l-0.4,1.6l-0.5-1.5
				C82,51.9,68.1,31.9,47.7,8.5c-14,2.8-26.8,10.5-39.2,23.7v86.8c10.1,10.8,20.4,17.9,31.6,21.7C47.3,120,50.4,106.7,50.3,79
				L51.2,78.8z"/>
		</g>
		<g>
			<path d="M146.2,111.4l-0.2-0.6c-5.2-20.7-5.2-49.5,0-70.2l0.2-0.6l0.6,0.3c20.5,10.4,42.5,19.4,64.5,15.6
				c3.9-0.6,7.5-1.4,11.1-2.2c7.2-1.7,13.5-3.1,18.5-1.3c7.3,2,11.9,11,11.9,23.4c0,12.4-4.6,21.4-11.9,23.4
				c-5,1.7-11.2,0.3-18.5-1.3c-3.5-0.8-7.2-1.6-11-2.2c-22.1-3.9-44,5.2-64.5,15.6L146.2,111.4z M146.9,41.5
				c-4.9,20.3-4.9,48.2,0,68.5c20.5-10.3,42.4-19.3,64.6-15.4c3.9,0.6,7.6,1.4,11.1,2.2c7.1,1.6,13.2,3,18,1.4
				c6.9-1.9,11.2-10.5,11.2-22.4c0-11.9-4.3-20.5-11.2-22.4c-4.8-1.7-10.9-0.3-18,1.3c-3.5,0.8-7.2,1.7-11.1,2.2
				C189.3,60.7,167.4,51.8,146.9,41.5z M160.6,86.7v-22l3,0.5c5.1,0.8,9.5,1.5,19.4,2.4c1.1,0.1,2.3,0.2,3.5,0.3
				c10.8,0.9,23,2,23,7.8c0,5.8-12.3,6.9-23.2,7.9c-1.1,0.1-2.2,0.2-3.3,0.3c-9.9,0.9-14.3,1.6-19.4,2.4L160.6,86.7z M161.6,65.8
				v19.7l1.8-0.3c5.1-0.8,9.6-1.5,19.5-2.4c1.1-0.1,2.2-0.2,3.3-0.3c9.9-0.9,22.2-1.9,22.2-6.9c0-4.9-12.2-6-22.1-6.8
				c-1.2-0.1-2.4-0.2-3.5-0.3c-9.9-0.9-14.3-1.6-19.5-2.4L161.6,65.8z"/>
		</g>
		<g>
			<path d="M65.6,146.9l0.1-0.6c4.5-31.3,1-37.9-10.6-59.8c-0.6-1.1-1.2-2.2-1.8-3.4c-0.1,26.7-3.2,39.9-10.4,60.6l-0.2,0.5
				l-0.5-0.2c-11.5-3.8-22.2-11.1-32.6-22.3l-0.1-0.1V33.9l0.1-0.1C22.2,20.2,35.4,12.3,49.8,9.5l0.3-0.1l0.2,0.2
				c20.3,23.2,34.2,43,45,75.1c0.9-3.1,2-6.2,3-9.3c2.6-7.9,5.1-15.3,5.9-22.6c0.5-4.9-0.1-9.8-0.7-15c-0.7-6-1.4-12.2-0.3-18.3
				l0.1-0.6l0.6,0.3c9.5,4.3,19.2,9.5,28.5,14.5c3.7,2,7.6,4.1,11.4,6l0.3,0.2l0,0.3c-2.7,24.9-2.7,50.1,0.1,74.9l0,0.3l-0.3,0.2
				c-3.9,2-7.9,4.2-11.7,6.2c-6.8,3.6-13.8,7.4-20.7,10.8l-0.9,0.4l0.2-1c3-17.2,4.9-30.9,5.1-48.1c-6.1,21.3-12.1,32.9-28,58.3
				l-0.1,0.2l-0.2,0.1c-8.4,2.6-12.7,3.5-21.3,4.3L65.6,146.9z M53.2,80.8c1,1.8,1.9,3.6,2.7,5.2c11.6,22,15.2,28.7,10.8,59.8
				c8-0.7,12.2-1.7,20.3-4.1c16.6-26.7,22.5-38,28.8-61.5l1,0.1c0,18.7-1.8,33-5,51.1c6.6-3.3,13.3-6.9,19.8-10.3
				c3.7-2,7.6-4.1,11.4-6.1c-2.7-24.7-2.7-49.8-0.1-74.5c-3.7-1.9-7.4-3.9-11.1-5.9c-9.1-4.9-18.6-9.9-27.9-14.2
				c-0.8,5.8-0.2,11.7,0.4,17.4c0.6,5,1.1,10.2,0.7,15.2c-0.7,7.4-3.4,15.2-5.9,22.8c-1.2,3.5-2.4,7.2-3.4,10.8l-0.4,1.6l-0.5-1.5
				C84,53.9,70.1,33.9,49.7,10.5c-14,2.8-26.8,10.5-39.2,23.7v86.8c10.1,10.8,20.4,17.9,31.6,21.7C49.3,122,52.4,108.7,52.3,81
				L53.2,80.8z"/>
		</g>
		<g>
			<path d="M148.2,113.4l-0.2-0.6c-5.2-20.7-5.2-49.5,0-70.2l0.2-0.6l0.6,0.3c20.5,10.4,42.5,19.4,64.5,15.6
				c3.9-0.6,7.5-1.4,11.1-2.2c7.2-1.7,13.5-3.1,18.5-1.3c7.3,2,11.9,11,11.9,23.4c0,12.4-4.6,21.4-11.9,23.4
				c-5,1.7-11.2,0.3-18.5-1.3c-3.5-0.8-7.2-1.6-11-2.2c-22.1-3.9-44,5.2-64.5,15.6L148.2,113.4z M148.9,43.5
				c-4.9,20.3-4.9,48.2,0,68.5c20.5-10.3,42.4-19.3,64.6-15.4c3.9,0.6,7.6,1.4,11.1,2.2c7.1,1.6,13.2,3,18,1.4
				c6.9-1.9,11.2-10.5,11.2-22.4c0-11.9-4.3-20.5-11.2-22.4c-4.8-1.7-10.9-0.3-18,1.3c-3.5,0.8-7.2,1.7-11.1,2.2
				C191.3,62.7,169.4,53.8,148.9,43.5z M162.6,88.7v-22l3,0.5c5.1,0.8,9.5,1.5,19.4,2.4c1.1,0.1,2.3,0.2,3.5,0.3
				c10.8,0.9,23,2,23,7.8c0,5.8-12.3,6.9-23.2,7.9c-1.1,0.1-2.2,0.2-3.3,0.3c-9.9,0.9-14.3,1.6-19.4,2.4L162.6,88.7z M163.6,67.8
				v19.7l1.8-0.3c5.1-0.8,9.6-1.5,19.5-2.4c1.1-0.1,2.2-0.2,3.3-0.3c9.9-0.9,22.2-1.9,22.2-6.9c0-4.9-12.2-6-22.1-6.8
				c-1.2-0.1-2.4-0.2-3.5-0.3c-9.9-0.9-14.3-1.6-19.5-2.4L163.6,67.8z"/>
		</g>
		<g>
			<path d="M67.6,148.9l0.1-0.6c4.5-31.3,1-37.9-10.6-59.8c-0.6-1.1-1.2-2.2-1.8-3.4c-0.1,26.7-3.2,39.9-10.4,60.6l-0.2,0.5
				l-0.5-0.2c-11.5-3.8-22.2-11.1-32.6-22.3l-0.1-0.1V35.9l0.1-0.1c12.6-13.5,25.7-21.4,40.1-24.2l0.3-0.1l0.2,0.2
				c20.3,23.2,34.2,43,45,75.1c0.9-3.1,2-6.2,3-9.3c2.6-7.9,5.1-15.3,5.9-22.6c0.5-4.9-0.1-9.8-0.7-15c-0.7-6-1.4-12.2-0.3-18.3
				l0.1-0.6l0.6,0.3c9.5,4.3,19.2,9.5,28.5,14.5c3.7,2,7.6,4.1,11.4,6l0.3,0.2l0,0.3c-2.7,24.9-2.7,50.1,0.1,74.9l0,0.3l-0.3,0.2
				c-3.9,2-7.9,4.2-11.7,6.2c-6.8,3.6-13.8,7.4-20.7,10.8l-0.9,0.4l0.2-1c3-17.2,4.9-30.9,5.1-48.1c-6.1,21.3-12.1,32.9-28,58.3
				l-0.1,0.2l-0.2,0.1c-8.4,2.6-12.7,3.5-21.3,4.3L67.6,148.9z M55.2,82.8c1,1.8,1.9,3.6,2.7,5.2c11.6,22,15.2,28.7,10.8,59.8
				c8-0.7,12.2-1.7,20.3-4.1c16.6-26.7,22.5-38,28.8-61.5l1,0.1c0,18.7-1.8,33-5,51.1c6.6-3.3,13.3-6.9,19.8-10.3
				c3.7-2,7.6-4.1,11.4-6.1c-2.7-24.7-2.7-49.8-0.1-74.5c-3.7-1.9-7.4-3.9-11.1-5.9c-9.1-4.9-18.6-9.9-27.9-14.2
				c-0.8,5.8-0.2,11.7,0.4,17.4c0.6,5,1.1,10.2,0.7,15.2c-0.7,7.4-3.4,15.2-5.9,22.8c-1.2,3.5-2.4,7.2-3.4,10.8l-0.4,1.6l-0.5-1.5
				C86,55.9,72.1,35.9,51.7,12.5c-14,2.8-26.8,10.5-39.2,23.7v86.8c10.1,10.8,20.4,17.9,31.6,21.7C51.3,124,54.4,110.7,54.3,83
				L55.2,82.8z"/>
		</g>
		<g>
			<path d="M150.2,115.4l-0.2-0.6c-5.2-20.7-5.2-49.5,0-70.2l0.2-0.6l0.6,0.3c20.5,10.4,42.5,19.4,64.5,15.6
				c3.9-0.6,7.5-1.4,11.1-2.2c7.2-1.7,13.5-3.1,18.5-1.3c7.3,2,11.9,11,11.9,23.4c0,12.4-4.6,21.4-11.9,23.4
				c-5,1.7-11.2,0.3-18.5-1.3c-3.5-0.8-7.2-1.6-11-2.2c-22.1-3.9-44,5.2-64.5,15.6L150.2,115.4z M150.9,45.5
				c-4.9,20.3-4.9,48.2,0,68.5c20.5-10.3,42.4-19.3,64.6-15.4c3.9,0.6,7.6,1.4,11.1,2.2c7.1,1.6,13.2,3,18,1.4
				c6.9-1.9,11.2-10.5,11.2-22.4c0-11.9-4.3-20.5-11.2-22.4c-4.8-1.7-10.9-0.3-18,1.3c-3.5,0.8-7.2,1.7-11.1,2.2
				C193.3,64.7,171.4,55.8,150.9,45.5z M164.6,90.7v-22l3,0.5c5.1,0.8,9.5,1.5,19.4,2.4c1.1,0.1,2.3,0.2,3.5,0.3
				c10.8,0.9,23,2,23,7.8c0,5.8-12.3,6.9-23.2,7.9c-1.1,0.1-2.2,0.2-3.3,0.3c-9.9,0.9-14.3,1.6-19.4,2.4L164.6,90.7z M165.6,69.8
				v19.7l1.8-0.3c5.1-0.8,9.6-1.5,19.5-2.4c1.1-0.1,2.2-0.2,3.3-0.3c9.9-0.9,22.2-1.9,22.2-6.9c0-4.9-12.2-6-22.1-6.8
				c-1.2-0.1-2.4-0.2-3.5-0.3c-9.9-0.9-14.3-1.6-19.5-2.4L165.6,69.8z"/>
		</g>
		<g class="st0">
			<path d="M69.2,184.5h-3.1v-4l-2.3,4h-2l-2.3-4v4h-3.1v-8.4h3.8l2.6,4.8l2.6-4.8h3.8V184.5z"/>
		</g>
		<g class="st0">
			<path d="M77.1,183h-3.6l-0.6,1.5h-3.4l3.5-8.4h4.6l3.5,8.4h-3.4L77.1,183z M76.2,180.8l-1-2.6l-1,2.6H76.2z"/>
			<path d="M85.3,180.3l-4-4.2h4.1l2.1,2.4l2.1-2.4h4.1l-4,4.2l4,4.2h-4.1l-2.1-2.4l-2.1,2.4h-4.1L85.3,180.3z"/>
			<path d="M111.5,176.1l-2.8,8.4h-4.6l-1.4-4.8l-1.4,4.8h-4.6l-2.8-8.4h3.3L99,182l1.8-5.9h3.7l1.8,5.9l1.7-5.9H111.5z"/>
			<path d="M115,178.5v0.8h5.8v2H115v0.8h5.8v2.4h-8.9v-8.4h8.9v2.4H115z"/>
			<path d="M129.7,181.9v2.6h-8.6v-8.4h3.1v5.8H129.7z"/>
			<path d="M138.7,181.9v2.6h-8.6v-8.4h3.1v5.8H138.7z"/>
			<path d="M154,180.3c0,2.9-1.9,4.2-3.9,4.2h-6.2v-8.4h6.2C152.1,176.1,154,177.5,154,180.3z M150.9,180.3c0-1.6-1.1-1.6-1.8-1.6
				H147v3.1h2.2C149.8,181.9,150.9,181.9,150.9,180.3z"/>
			<path d="M157.5,178.5v0.8h5.8v2h-5.8v0.8h5.8v2.4h-8.9v-8.4h8.9v2.4H157.5z"/>
		</g>
		<g class="st0">
			<path d="M174.5,176.1v8.4h-4.1l-3.6-5v5h-3.1v-8.4h4.1l3.6,5v-5H174.5z"/>
			<path d="M182.2,183h-3.6l-0.6,1.5h-3.4l3.5-8.4h4.6l3.5,8.4h-3.4L182.2,183z M181.4,180.8l-1-2.6l-1,2.6H181.4z"/>
		</g>
		<g class="st0">
			<path d="M194.9,182.1l1.5,2.4h-3.7l-1.2-2h-1.8v2h-3.1v-8.4h6.6c1.9,0,3.2,1.3,3.2,3.2C196.4,180.6,195.8,181.6,194.9,182.1z
				 M189.7,179.9h2.9c0.3,0,0.7,0,0.7-0.6c0-0.6-0.4-0.6-0.7-0.6h-2.9V179.9z"/>
			<path d="M199.9,184.5h-3.1v-8.4h3.1V184.5z"/>
		</g>
	</g>
</g>
</svg>
