<?xml version="1.0" encoding="utf-8"?>
<!-- Generator: Adobe Illustrator 22.1.0, SVG Export Plug-In . SVG Version: 6.00 Build 0)  -->
<svg version="1.1" id="Layer_1" xmlns="http://www.w3.org/2000/svg" xmlns:xlink="http://www.w3.org/1999/xlink" x="0px" y="0px"
	 viewBox="0 0 312 155.4" style="enable-background:new 0 0 312 155.4;" xml:space="preserve">
<style type="text/css">
	.st0{opacity:0.5;}
	.st1{enable-background:new    ;}
</style>
<title>max-weird</title>
<g id="Layer_2_1_">
	<g id="Layer_1-2">
		<g class="st0">
			<g>
				<path d="M150.1,121.3l-21.7-3.7l-7.2-18.3l-8.1,12.1l-10.2-1.8l-0.1-0.1L86.3,93.4l4.1,17.7l-21.6-3.7l-6.7-43.7l16.4,3.7
					l0.1,0.1l24.7,26l10.8-18l16.1,3.7L150.1,121.3z M129.2,116.7l19.3,3.3l-18.8-40l-15-3.4l-11.2,18.5L78,68.3l-14.7-3.3l6.3,41.5
					l19.4,3.3l-4.5-19.5l18.8,18.4l9.3,1.6l8.8-13.2L129.2,116.7z"/>
			</g>
			<g>
				<path d="M200.9,129.1c-3.8,0-8.3-0.4-13.2-1.3l-33.1-5.7L134,80l28.7,6.5c12.6,3,24.4,8.2,35,15.7c4.7,3.2,8.9,7.1,12.5,11.5
					c3.3,4.1,4.6,7.6,3.8,10.1c-0.8,2.6-3.6,4.3-8.3,4.9C204.4,129,202.7,129.1,200.9,129.1z M155.2,121.2l32.6,5.6
					c7.1,1.3,13.3,1.6,17.8,1c4.2-0.6,6.8-2,7.4-4.2c0.7-2.3-0.6-5.4-3.6-9.2c-3.5-4.4-7.7-8.2-12.3-11.3
					c-10.5-7.4-22.2-12.6-34.7-15.5l-26.7-6.1L155.2,121.2z M185.4,117.6c-1.5,0-3.2-0.2-5.2-0.6l0,0l-9.3-1.7l-11.9-20.4l9.4,2
					c4.3,0.9,8.3,2.5,12.1,4.7c3.5,2,6.5,4.7,8.8,7.9c2.3,3.3,2.5,5.6,0.6,6.9C189,117.2,187.5,117.6,185.4,117.6z M180.4,116
					c4.5,0.8,7.5,0.7,9.1-0.4c0.5-0.3,2-1.4-0.8-5.5c-2.2-3.1-5.2-5.8-8.5-7.7c-3.7-2.2-7.6-3.7-11.8-4.6l-7.2-1.5l10.5,18.1
					L180.4,116z"/>
			</g>
		</g>
		<g class="st0">
			<g>
				<path d="M97.3,85.7l-7.4-18.9l-8.5,12.6l-9.8-1.7L53.9,60.3l4.3,18.6l-20.5-3.5l-6.5-42.6l15.6,3.5L72,62.8l11-18.2l15.6,3.5
					l19.3,41.1L97.3,85.7z"/>
			</g>
			<g>
				<path d="M103.4,49.2l27.7,6.3c12.5,2.9,24.4,8.2,34.9,15.6c4.7,3.2,8.9,7,12.4,11.4c3.2,4,4.4,7.3,3.7,9.7s-3.4,4-7.9,4.6
					s-10.5,0.3-18-1l-32.9-5.7L103.4,49.2z M148.8,85c4.6,0.8,7.8,0.7,9.4-0.4s1.4-3.2-0.7-6.2c-2.3-3.2-5.3-5.9-8.7-7.8
					c-3.7-2.2-7.7-3.8-11.9-4.7l-8.3-1.8l11.2,19.2L148.8,85z"/>
			</g>
		</g>
		<g class="st1">
			<path d="M122.8,67.6l-0.1-13.3L116.4,65H112l-6.3-10.2v12.9h-9V38.4h8.1l9.5,15.6l9.3-15.6h8.1l0.1,29.2H122.8z"/>
		</g>
		<g class="st1">
			<path d="M154.2,62.5h-11.1l-2,5.1h-10l12.8-29.2h9.7l12.8,29.2h-10.2L154.2,62.5z M151.5,55.4l-2.8-7.3l-2.8,7.3H151.5z"/>
		</g>
		<g class="st1">
			<path d="M182.5,67.6l-5.1-7.8l-4.9,7.8h-11.2l10.6-14.7l-10.2-14.5h11.1l5,7.4l4.8-7.4h10.6L183,52.5l10.8,15.1H182.5z"/>
		</g>
		<g class="st1">
			<path d="M239.8,38.4l-9.4,29.2h-10.6L215.2,52l-5,15.6h-10.6l-9.4-29.2h10.1l5.1,16.6l5.4-16.6h9.1l5.1,16.8l5.4-16.8H239.8z"/>
		</g>
		<g class="st1">
			<path d="M264,60.2v7.4h-24.3V38.4h23.8v7.4h-14.1v3.4h12.4v7.1h-12.4v3.8H264z"/>
			<path d="M265.7,38.4h9.9V60h13.2v7.6h-23.1V38.4z"/>
			<path d="M289.4,38.4h9.9V60h13.2v7.6h-23.1V38.4z"/>
		</g>
		<g class="st1">
			<path d="M26.2,108.9h14.4c3.3,0,6.1,0.6,8.6,1.8c2.5,1.2,4.4,2.9,5.8,5.1c1.4,2.2,2.1,4.8,2.1,7.8c0,3-0.7,5.6-2.1,7.8
				c-1.4,2.2-3.3,3.9-5.8,5.1c-2.5,1.2-5.4,1.8-8.6,1.8H26.2V108.9z M40.2,130.4c2.1,0,3.8-0.6,5.1-1.8c1.3-1.2,1.9-2.9,1.9-5.1
				c0-2.2-0.6-3.9-1.9-5.1c-1.3-1.2-3-1.8-5.1-1.8h-4.1v13.9H40.2z"/>
			<path d="M82.5,130.7v7.4H58.2v-29.2H82v7.4H67.9v3.4h12.4v7.1H67.9v3.8H82.5z"/>
			<path d="M112.6,108.9v29.2h-8.1l-11.1-13.3v13.3h-9.6v-29.2h8.1l11.1,13.3v-13.3H112.6z"/>
			<path d="M134.8,133h-11.1l-2,5.1h-10l12.8-29.2h9.7l12.8,29.2h-10.2L134.8,133z M132.1,125.9l-2.8-7.3l-2.8,7.3H132.1z"/>
			<path d="M158.6,130.8h-2.7v7.3H146v-29.2h14.1c2.7,0,5.1,0.4,7.1,1.3c2,0.9,3.5,2.2,4.6,3.8c1.1,1.7,1.6,3.6,1.6,5.8
				c0,2.1-0.5,3.9-1.4,5.5c-0.9,1.6-2.3,2.8-4.1,3.7l6.1,9h-10.5L158.6,130.8z M162.5,117.4c-0.7-0.6-1.7-0.9-3-0.9h-3.6v6.8h3.6
				c1.3,0,2.3-0.3,3-0.9s1-1.4,1-2.5C163.5,118.8,163.1,118,162.5,117.4z"/>
			<path d="M174.6,108.9h9.9v29.2h-9.9V108.9z"/>
		</g>
		<g>
			<rect x="49.6" y="77.4" transform="matrix(0.7187 -0.6953 0.6953 0.7187 -8.7254 133.7911)" width="222.8" height="0.5"/>
		</g>
		<g>
			<rect y="88.9" width="248" height="0.5"/>
		</g>
	</g>
</g>
</svg>
