<svg xmlns="http://www.w3.org/2000/svg" viewBox="0 0 244.23 186.32"><defs><style>.cls-1{opacity:0.5;}.cls-2{opacity:0.2;}.cls-3{opacity:0.1;}.cls-4{opacity:0.05;}.cls-5{opacity:0.01;}</style></defs><title>max-mtv-fade</title><g id="Layer_2" data-name="Layer 2"><g id="Layer_1-2" data-name="Layer 1"><g class="cls-1"><path d="M133.57,115.21c-10.79,5.63-21.59,11.7-32.39,17,3.52-20,5.15-34,5.17-52-6.55,24.16-12.78,35.86-29,61.84-8.47,2.56-12.71,3.52-21.18,4.27C61,112.54,56.64,107.48,42.77,81c.08,27.2-2.77,40.68-10.37,62.42C21.6,139.83,10.8,132.87,0,121.3V34.07C13.29,19.83,26.58,12.57,39.87,10c20,22.87,34.39,43,45.45,76.48C88.58,75.14,93.61,63.8,94.65,53s-2.85-22.08-1-33.33c13.29,6,26.58,13.55,39.87,20.48A343.64,343.64,0,0,0,133.57,115.21Z"/><path d="M244.23,77.69c0,12-4.29,20.91-11.54,22.9-7.26,2.55-17.47-1.84-29.33-3.55-21.6-3.8-43.2,4.66-64.8,15.6-5.14-20.53-5.14-49.38,0-69.91,21.6,10.94,43.2,19.4,64.8,15.6,11.86-1.71,22.07-6.1,29.33-3.55C239.94,56.77,244.23,65.7,244.23,77.69Zm-43.32,0c0-6-15.27-6.64-26-7.66-11.43-1.09-15.69-1.85-21.84-2.78V88.12c6.15-.93,10.41-1.69,21.84-2.78C185.64,84.33,200.91,83.65,200.91,77.69Z"/></g><g class="cls-2"><path d="M133.57,125.21c-10.79,5.63-21.59,11.7-32.39,17,3.52-20,5.15-34,5.17-52-6.55,24.16-12.78,35.86-29,61.84-8.47,2.56-12.71,3.52-21.18,4.27C61,122.54,56.64,117.48,42.77,91c.08,27.2-2.77,40.68-10.37,62.42C21.6,149.83,10.8,142.87,0,131.3V44.07C13.29,29.83,26.58,22.57,39.87,20c20,22.87,34.39,43,45.45,76.48C88.58,85.14,93.61,73.8,94.65,63s-2.85-22.08-1-33.33c13.29,6,26.58,13.55,39.87,20.48A343.64,343.64,0,0,0,133.57,125.21Z"/><path d="M244.23,87.69c0,12-4.29,20.91-11.54,22.9-7.26,2.55-17.47-1.84-29.33-3.55-21.6-3.8-43.2,4.66-64.8,15.6-5.14-20.53-5.14-49.38,0-69.91,21.6,10.94,43.2,19.4,64.8,15.6,11.86-1.71,22.07-6.1,29.33-3.55C239.94,66.77,244.23,75.7,244.23,87.69Zm-43.32,0c0-6-15.27-6.64-26-7.66-11.43-1.09-15.69-1.85-21.84-2.78V98.12c6.15-.93,10.41-1.69,21.84-2.78C185.64,94.33,200.91,93.65,200.91,87.69Z"/></g><g class="cls-3"><path d="M133.57,135.21c-10.79,5.63-21.59,11.7-32.39,17,3.52-20,5.15-34,5.17-52-6.55,24.16-12.78,35.86-29,61.84-8.47,2.56-12.71,3.52-21.18,4.27,4.84-33.78.44-38.84-13.43-65.32.08,27.2-2.77,40.68-10.37,62.42C21.6,159.83,10.8,152.87,0,141.3V54.07C13.29,39.83,26.58,32.57,39.87,30c20,22.87,34.39,43,45.45,76.48C88.58,95.14,93.61,83.8,94.65,73s-2.85-22.08-1-33.33c13.29,6,26.58,13.55,39.87,20.48A343.64,343.64,0,0,0,133.57,135.21Z"/><path d="M244.23,97.69c0,12-4.29,20.91-11.54,22.9-7.26,2.55-17.47-1.84-29.33-3.55-21.6-3.8-43.2,4.66-64.8,15.6-5.14-20.53-5.14-49.38,0-69.91,21.6,10.94,43.2,19.4,64.8,15.6,11.86-1.71,22.07-6.1,29.33-3.55C239.94,76.77,244.23,85.7,244.23,97.69Zm-43.32,0c0-6-15.27-6.64-26-7.66-11.43-1.09-15.69-1.85-21.84-2.78v20.87c6.15-.93,10.41-1.69,21.84-2.78C185.64,104.33,200.91,103.65,200.91,97.69Z"/></g><g class="cls-4"><path d="M133.57,145.21c-10.79,5.63-21.59,11.7-32.39,17,3.52-20,5.15-34,5.17-52-6.55,24.16-12.78,35.86-29,61.84-8.47,2.56-12.71,3.52-21.18,4.27,4.84-33.78.44-38.84-13.43-65.32.08,27.2-2.77,40.68-10.37,62.42C21.6,169.83,10.8,162.87,0,151.3V64.07C13.29,49.83,26.58,42.57,39.87,40c20,22.87,34.39,43,45.45,76.48C88.58,105.14,93.61,93.8,94.65,83s-2.85-22.08-1-33.33c13.29,6,26.58,13.55,39.87,20.48A343.64,343.64,0,0,0,133.57,145.21Z"/><path d="M244.23,107.69c0,12-4.29,20.91-11.54,22.9-7.26,2.55-17.47-1.84-29.33-3.55-21.6-3.8-43.2,4.66-64.8,15.6-5.14-20.53-5.14-49.38,0-69.91,21.6,10.94,43.2,19.4,64.8,15.6,11.86-1.71,22.07-6.1,29.33-3.55C239.94,86.77,244.23,95.7,244.23,107.69Zm-43.32,0c0-6-15.27-6.64-26-7.66-11.43-1.09-15.69-1.85-21.84-2.78v20.87c6.15-.93,10.41-1.69,21.84-2.78C185.64,114.33,200.91,113.65,200.91,107.69Z"/></g><g class="cls-5"><path d="M133.57,155.21c-10.79,5.63-21.59,11.7-32.39,17,3.52-20,5.15-34,5.17-52-6.55,24.16-12.78,35.86-29,61.84-8.47,2.56-12.71,3.52-21.18,4.27,4.84-33.78.44-38.84-13.43-65.32.08,27.2-2.77,40.68-10.37,62.42C21.6,179.83,10.8,172.87,0,161.3V74.07C13.29,59.83,26.58,52.57,39.87,50c20,22.87,34.39,43,45.45,76.48,3.26-11.34,8.29-22.68,9.33-33.47s-2.85-22.08-1-33.33c13.29,6,26.58,13.55,39.87,20.48A343.64,343.64,0,0,0,133.57,155.21Z"/><path d="M244.23,117.69c0,12-4.29,20.91-11.54,22.9-7.26,2.55-17.47-1.84-29.33-3.55-21.6-3.8-43.2,4.66-64.8,15.6-5.14-20.53-5.14-49.38,0-69.91,21.6,10.94,43.2,19.4,64.8,15.6,11.86-1.71,22.07-6.1,29.33-3.55C239.94,96.77,244.23,105.7,244.23,117.69Zm-43.32,0c0-6-15.27-6.64-26-7.66-11.43-1.09-15.69-1.85-21.84-2.78v20.87c6.15-.93,10.41-1.69,21.84-2.78C185.64,124.33,200.91,123.65,200.91,117.69Z"/></g><path d="M133.57,105.21c-10.79,5.63-21.59,11.7-32.39,17,3.52-20,5.15-34,5.17-52-6.55,24.16-12.78,35.86-29,61.84-8.47,2.56-12.71,3.52-21.18,4.27C61,102.54,56.64,97.48,42.77,71c.08,27.2-2.77,40.68-10.37,62.42C21.6,129.83,10.8,122.87,0,111.3V24.07C13.29,9.83,26.58,2.57,39.87,0c20,22.87,34.39,43,45.45,76.48C88.58,65.14,93.61,53.8,94.65,43s-2.85-22.08-1-33.33c13.29,6,26.58,13.55,39.87,20.48A343.64,343.64,0,0,0,133.57,105.21Z"/><path d="M244.23,67.69c0,12-4.29,20.91-11.54,22.9-7.26,2.55-17.47-1.84-29.33-3.55-21.6-3.8-43.2,4.66-64.8,15.6-5.14-20.53-5.14-49.38,0-69.91,21.6,10.94,43.2,19.4,64.8,15.6,11.86-1.71,22.07-6.1,29.33-3.55C239.94,46.77,244.23,55.7,244.23,67.69Zm-43.32,0c0-6-15.27-6.64-26-7.66-11.43-1.09-15.69-1.85-21.84-2.78V78.12c6.15-.93,10.41-1.69,21.84-2.78C185.64,74.33,200.91,73.65,200.91,67.69Z"/></g></g></svg>