<svg xmlns="http://www.w3.org/2000/svg" viewBox="0 0 518 437.34"><defs><style>.cls-1{fill:#d1d3d4;}.cls-2{fill:#fa9001;}.cls-3{fill:#fff;}</style></defs><title>max-logo-stacked</title><g id="Layer_2" data-name="Layer 2"><g id="Layer_1-2" data-name="Layer 1"><rect class="cls-1" y="0.34" width="247" height="87"/><rect class="cls-2" y="95.34" width="245" height="87"/><path d="M406.88,87.22h-32.4a165.45,165.45,0,0,0,5.17-41.49c-6.54,19.86-12.78,27.31-29,41.49H329.5c4.84-21.27.44-24.84-13.43-41.49.08,17.55-2.76,25.67-10.37,41.49H273.3V0h39.88c20,16.6,34.39,25.46,45.44,49.84,3.27-7.82,8.29-16.49,9.33-24.92S365.1,8.94,367,0h39.87A463.76,463.76,0,0,0,406.88,87.22Z"/><path d="M517.53,43.61c0,22.69-17.15,43.77-40.87,43.61H411.87a248.12,248.12,0,0,1,0-87.22h64.79C500.38-.16,517.53,20.92,517.53,43.61Zm-43.31,0c0-13.71-15.27-16.63-26-16.2H426.34v32.4h21.85C459,60.25,474.22,57.33,474.22,43.61Z"/><rect class="cls-1" x="273" y="95.34" width="245" height="87"/><path d="M406.88,342.22h-32.4a165.45,165.45,0,0,0,5.17-41.49c-6.54,19.86-12.78,27.31-29,41.49H329.5c4.84-21.27.44-24.84-13.43-41.49.08,17.55-2.76,25.67-10.37,41.49H273.3V255h39.88c20,16.6,34.39,25.46,45.44,49.84,3.27-7.82,8.29-16.49,9.33-24.92s-2.85-16-.94-24.92h39.87A463.76,463.76,0,0,0,406.88,342.22Z"/><path d="M517.53,298.61c0,22.69-17.15,43.77-40.87,43.61H411.87a248.12,248.12,0,0,1,0-87.22h64.79C500.38,254.84,517.53,275.92,517.53,298.61Zm-43.31,0c0-13.71-15.27-16.63-26-16.2H426.34v32.4h21.85C459,315.25,474.22,312.33,474.22,298.61Z"/><rect class="cls-2" x="273" y="350.34" width="245" height="87"/><path d="M133.88,87.22h-32.4a165.45,165.45,0,0,0,5.17-41.49c-6.54,19.86-12.78,27.31-29,41.49H56.5c4.84-21.27.44-24.84-13.43-41.49.08,17.55-2.76,25.67-10.37,41.49H.3V0H40.18c20,16.6,34.39,25.46,45.44,49.84C88.89,42,93.91,33.35,95,24.92S92.1,8.94,94,0h39.87A463.76,463.76,0,0,0,133.88,87.22Z"/><path d="M244.53,43.61c0,22.69-17.15,43.77-40.87,43.61H138.87a248.12,248.12,0,0,1,0-87.22h64.79C227.38-.16,244.53,20.92,244.53,43.61Zm-43.31,0c0-13.71-15.27-16.63-26-16.2H153.34v32.4h21.85C186,60.25,201.22,57.33,201.22,43.61Z"/><path d="M133.88,182.22h-32.4a165.45,165.45,0,0,0,5.17-41.49c-6.54,19.86-12.78,27.31-29,41.49H56.5c4.84-21.27.44-24.84-13.43-41.49.08,17.55-2.76,25.67-10.37,41.49H.3V95H40.18c20,16.6,34.39,25.46,45.44,49.84,3.27-7.82,8.29-16.49,9.33-24.92S92.1,103.94,94,95h39.87A463.76,463.76,0,0,0,133.88,182.22Z"/><path d="M244.53,138.61c0,22.69-17.15,43.77-40.87,43.61H138.87a248.12,248.12,0,0,1,0-87.22h64.79C227.38,94.84,244.53,115.92,244.53,138.61Zm-43.31,0c0-13.71-15.27-16.63-26-16.2H153.34v32.4h21.85C186,155.25,201.22,152.33,201.22,138.61Z"/><rect class="cls-1" x="4" y="255.34" width="243" height="87"/><rect class="cls-2" x="1" y="350.34" width="245" height="86"/><path class="cls-3" d="M133.88,342.22h-32.4a165.45,165.45,0,0,0,5.17-41.49c-6.54,19.86-12.78,27.31-29,41.49H56.5c4.84-21.27.44-24.84-13.43-41.49.08,17.55-2.76,25.67-10.37,41.49H.3V255H40.18c20,16.6,34.39,25.46,45.44,49.84,3.27-7.82,8.29-16.49,9.33-24.92S92.1,263.94,94,255h39.87A463.76,463.76,0,0,0,133.88,342.22Z"/><path class="cls-3" d="M244.53,298.61c0,22.69-17.15,43.77-40.87,43.61H138.87a248.12,248.12,0,0,1,0-87.22h64.79C227.38,254.84,244.53,275.92,244.53,298.61Zm-43.31,0c0-13.71-15.27-16.63-26-16.2H153.34v32.4h21.85C186,315.25,201.22,312.33,201.22,298.61Z"/><path class="cls-3" d="M133.88,437.22h-32.4a165.45,165.45,0,0,0,5.17-41.49c-6.54,19.86-12.78,27.31-29,41.49H56.5c4.84-21.27.44-24.84-13.43-41.49.08,17.55-2.76,25.67-10.37,41.49H.3V350H40.18c20,16.6,34.39,25.46,45.44,49.84,3.27-7.82,8.29-16.49,9.33-24.92S92.1,358.94,94,350h39.87A463.76,463.76,0,0,0,133.88,437.22Z"/><path class="cls-3" d="M244.53,393.61c0,22.69-17.15,43.77-40.87,43.61H138.87a248.12,248.12,0,0,1,0-87.22h64.79C227.38,349.84,244.53,370.92,244.53,393.61Zm-43.31,0c0-13.71-15.27-16.63-26-16.2H153.34v32.4h21.85C186,410.25,201.22,407.33,201.22,393.61Z"/></g></g></svg>